<?xml version="1.0" encoding="utf-8"?>
<!-- Generator: Adobe Illustrator 18.0.0, SVG Export Plug-In . SVG Version: 6.00 Build 0)  -->
<!DOCTYPE svg PUBLIC "-//W3C//DTD SVG 1.1//EN" "http://www.w3.org/Graphics/SVG/1.1/DTD/svg11.dtd">
<svg version="1.1" id="Layer_1" xmlns="http://www.w3.org/2000/svg" xmlns:xlink="http://www.w3.org/1999/xlink" x="0px" y="0px"
	 viewBox="0 0 40 40" enable-background="new 0 0 40 40" xml:space="preserve">
<g display="none">
	<g display="inline">
		<path fill="#FFFFFF" d="M19.9,21.5c0,0,0.1,0,0.1,0c0,0,0,0,0,0c0,0,0.1,0,0.1,0c2.4,0,4.3-0.9,5.7-2.5c3.1-3.5,2.6-9.6,2.6-10.2
			c-0.2-4.3-2.3-6.4-3.9-7.4c-1.3-0.7-2.7-1.1-4.4-1.1H20c0,0,0,0,0,0h0c-0.9,0-2.7,0.1-4.4,1.1c-1.7,1-3.8,3-4,7.4
			C11.5,9.5,11,15.5,14.1,19C15.5,20.6,17.5,21.5,19.9,21.5z M13.7,9.1C13.7,9.1,13.8,9,13.7,9.1c0.3-5.9,4.4-6.5,6.2-6.5h0
			c0,0,0,0,0.1,0c2.2,0,5.9,0.9,6.2,6.5c0,0,0,0,0,0.1c0,0.1,0.6,5.6-2,8.5c-1,1.2-2.4,1.7-4.2,1.7c0,0,0,0,0,0l0,0c0,0,0,0,0,0
			c-1.8,0-3.2-0.6-4.2-1.7C13.2,14.7,13.7,9.1,13.7,9.1z"/>
		<path fill="#FFFFFF" d="M36.7,31.6C36.7,31.6,36.7,31.6,36.7,31.6c0-0.1,0-0.2,0-0.2c0-1.6-0.2-5.4-3.7-6.6c0,0-0.1,0-0.1,0
			c-3.7-0.9-6.7-3.1-6.8-3.1c-0.5-0.3-1.2-0.2-1.5,0.3c-0.3,0.5-0.2,1.2,0.3,1.5c0.1,0.1,3.4,2.4,7.4,3.4c1.9,0.7,2.1,2.7,2.2,4.6
			c0,0.1,0,0.1,0,0.2c0,0.7,0,1.9-0.2,2.5c-1.3,0.7-6.5,3.3-14.3,3.3c-7.8,0-13-2.6-14.4-3.3c-0.1-0.7-0.2-1.8-0.2-2.5
			c0-0.1,0-0.1,0-0.2c0.1-1.9,0.3-3.9,2.2-4.6c4.1-1,7.3-3.3,7.4-3.4c0.5-0.3,0.6-1,0.3-1.5c-0.3-0.5-1-0.6-1.5-0.3
			c0,0-3.1,2.1-6.8,3.1c0,0-0.1,0-0.1,0c-3.5,1.2-3.6,5-3.7,6.6c0,0.1,0,0.1,0,0.2c0,0,0,0,0,0c0,0.4,0,2.6,0.4,3.7
			c0.1,0.2,0.2,0.4,0.4,0.5c0.2,0.2,6.1,3.9,15.9,3.9s15.6-3.7,15.9-3.9c0.2-0.1,0.3-0.3,0.4-0.5C36.7,34.2,36.7,32,36.7,31.6z"/>
	</g>
</g>
<g display="none">
	<path display="inline" fill="#FFFFFF" stroke="#FFFFFF" stroke-miterlimit="10" d="M25.6,1.3H5.3v37.6h29.5V10.4L25.6,1.3z M26,3.4
		l6.6,6.6H26V3.4z M6.6,37.6V2.5h18.2v8.8h8.8v26.3H6.6z"/>
	<path display="inline" fill="#FFFFFF" stroke="#FFFFFF" stroke-miterlimit="10" d="M27.9,14.4h-10c-0.3,0-0.6,0.3-0.6,0.6
		s0.3,0.6,0.6,0.6h10c0.3,0,0.6-0.3,0.6-0.6S28.2,14.4,27.9,14.4z"/>
	<path display="inline" fill="#FFFFFF" stroke="#FFFFFF" stroke-miterlimit="10" d="M15.6,12.7l-2.7,2.2L12,14
		c-0.2-0.2-0.6-0.2-0.9,0c-0.2,0.2-0.2,0.6,0,0.9l1.3,1.3c0.1,0.1,0.3,0.2,0.4,0.2c0.1,0,0.3,0,0.4-0.1l3.1-2.5
		c0.3-0.2,0.3-0.6,0.1-0.9C16.2,12.5,15.8,12.5,15.6,12.7z"/>
	<path display="inline" fill="#FFFFFF" stroke="#FFFFFF" stroke-miterlimit="10" d="M27.9,21.3h-10c-0.3,0-0.6,0.3-0.6,0.6
		c0,0.3,0.3,0.6,0.6,0.6h10c0.3,0,0.6-0.3,0.6-0.6C28.5,21.6,28.2,21.3,27.9,21.3z"/>
	<path display="inline" fill="#FFFFFF" stroke="#FFFFFF" stroke-miterlimit="10" d="M15.6,19.6l-2.7,2.2L12,20.9
		c-0.2-0.2-0.6-0.2-0.9,0c-0.2,0.2-0.2,0.6,0,0.9l1.3,1.3c0.1,0.1,0.3,0.2,0.4,0.2c0.1,0,0.3,0,0.4-0.1l3.1-2.5
		c0.3-0.2,0.3-0.6,0.1-0.9C16.2,19.4,15.8,19.4,15.6,19.6z"/>
	<path display="inline" fill="#FFFFFF" stroke="#FFFFFF" stroke-miterlimit="10" d="M27.9,28.2h-10c-0.3,0-0.6,0.3-0.6,0.6
		c0,0.3,0.3,0.6,0.6,0.6h10c0.3,0,0.6-0.3,0.6-0.6C28.5,28.5,28.2,28.2,27.9,28.2z"/>
	<path display="inline" fill="#FFFFFF" stroke="#FFFFFF" stroke-miterlimit="10" d="M15.6,26.5l-2.7,2.2L12,27.8
		c-0.2-0.2-0.6-0.2-0.9,0c-0.2,0.2-0.2,0.6,0,0.9l1.3,1.3c0.1,0.1,0.3,0.2,0.4,0.2c0.1,0,0.3,0,0.4-0.1l3.1-2.5
		c0.3-0.2,0.3-0.6,0.1-0.9C16.2,26.3,15.8,26.3,15.6,26.5z"/>
</g>
<g display="none">
	<path display="inline" fill="#FFFFFF" d="M18.7,28.1c2.3,0,4.1-1.9,4.1-4.1v-5.2c0-2.3-1.9-4.1-4.1-4.1s-4.1,1.9-4.1,4.1V24
		C14.6,26.3,16.4,28.1,18.7,28.1z M15.8,18.8c0-1.6,1.3-2.9,2.9-2.9s2.9,1.3,2.9,2.9V24c0,1.6-1.3,2.9-2.9,2.9l0,0
		c-1.6,0-2.9-1.3-2.9-2.9V18.8z"/>
	<path display="inline" fill="#FFFFFF" d="M38.6,9.2H4.1v2.7H1.4V31H36v-2.7h2.7L38.6,9.2L38.6,9.2z M37.4,14.1
		c-0.5-0.1-1-0.2-1.4-0.5v-1.8h-1.8c-0.2-0.4-0.4-0.9-0.5-1.4h3.7L37.4,14.1L37.4,14.1z M29.8,13.1c0.3,2.6,2.4,4.7,5,5v6.7
		c-2.6,0.3-4.7,2.4-5,5H7.6c-0.3-2.6-2.4-4.7-5-5V18c2.6-0.3,4.7-2.4,5-5L29.8,13.1L29.8,13.1z M34.7,16.8c-1.9-0.3-3.4-1.8-3.7-3.7
		h3.7V16.8z M9.9,11.8c0.2-0.5,0.3-0.9,0.4-1.4h22.1c0.1,0.5,0.2,1,0.4,1.4H9.9z M36,15c0.5,0.2,0.9,0.3,1.4,0.4v6.7
		c-0.5,0.1-1,0.2-1.4,0.4V15z M5.3,10.4h3.7c-0.1,0.5-0.2,1-0.5,1.4H5.3L5.3,10.4z M6.4,13.1c-0.3,1.9-1.8,3.4-3.7,3.7v-3.7H6.4z
		 M2.7,26c1.9,0.3,3.4,1.8,3.7,3.7H2.7V26z M31,29.7c0.3-1.9,1.8-3.4,3.7-3.7v3.7H31z M36,27.1v-3.2c0.4-0.2,0.9-0.4,1.4-0.5v3.7H36
		z"/>
</g>
<path display="none" fill="#FFFFFF" stroke="#1E5931" stroke-width="4" stroke-miterlimit="10" d="M22.6,34.3c0-0.4-0.1-0.9-0.2-1.3
	c-0.2-0.4-0.4-0.7-0.7-1c-0.3-0.3-0.7-0.5-1.1-0.7c-0.4-0.2-0.8-0.3-1.3-0.3c-0.4,0-0.9,0.1-1.3,0.3c-0.4,0.2-0.7,0.4-1,0.7
	c-0.3,0.3-0.5,0.6-0.7,1c-0.2,0.4-0.2,0.8-0.2,1.3c0,0.4,0.1,0.9,0.2,1.3c0.2,0.4,0.4,0.7,0.7,1c0.3,0.3,0.6,0.5,1,0.7
	c0.4,0.2,0.8,0.3,1.3,0.3c0.4,0,0.9-0.1,1.3-0.3c0.4-0.2,0.8-0.4,1.1-0.7c0.3-0.3,0.5-0.6,0.7-1C22.5,35.2,22.6,34.7,22.6,34.3z
	 M19.5,26.7h-0.3c-0.8-0.1-1.4-0.4-1.9-1c-0.5-0.6-0.7-1.3-0.6-2c0.1-1.3,0.5-2.5,1-3.8c0.5-1.2,1.2-2.3,2-3.2
	c0.3-0.3,0.5-0.6,0.8-0.9c0.3-0.3,0.6-0.5,0.9-0.8c0.8-0.7,1.4-1.2,1.8-1.8c0.4-0.5,0.6-1.2,0.6-1.9c0-0.7-0.1-1.2-0.4-1.6
	c-0.3-0.4-0.6-0.8-1-1c-0.4-0.2-0.8-0.4-1.2-0.5C20.9,8,20.5,8,20.1,8h-0.1c-0.7,0-1.2,0.1-1.6,0.3S17.7,8.7,17.4,9
	s-0.5,0.7-0.7,1.1c-0.2,0.4-0.4,0.9-0.6,1.4c-0.3,0.7-0.6,1.2-1,1.5c-0.4,0.3-0.8,0.5-1.2,0.5c-0.4,0.1-0.9,0.1-1.4-0.1
	c-0.5-0.2-0.8-0.5-1.1-0.8c-0.3-0.3-0.5-0.7-0.6-1.2c-0.1-0.5-0.1-1.1,0.1-1.8c0.1-0.4,0.4-1.1,0.7-1.9c0.4-0.8,0.9-1.7,1.6-2.5
	s1.6-1.5,2.8-2.1s2.5-0.9,4.2-0.8c1.1,0,2.2,0.2,3.3,0.6s2.1,1,2.9,1.7c0.9,0.8,1.6,1.7,2.1,2.8c0.5,1.1,0.8,2.3,0.8,3.8
	c0,1-0.1,2-0.4,2.8c-0.3,0.8-0.6,1.5-1.1,2.2c-0.4,0.6-0.9,1.2-1.4,1.7c-0.5,0.5-1,0.9-1.4,1.3c-0.2,0.2-0.5,0.4-0.7,0.6
	c-0.2,0.2-0.4,0.3-0.5,0.5c-0.4,0.5-0.8,1.1-1.1,1.8c-0.3,0.7-0.5,1.4-0.5,2.2c-0.1,0.7-0.4,1.3-0.9,1.8
	C20.9,26.4,20.3,26.7,19.5,26.7z"/>
<g display="none">
	<g display="inline">
		<path fill="#FFFFFF" stroke="#1E5931" stroke-miterlimit="10" d="M14.9,22.5c-0.2,0-0.4,0.1-0.6,0.2c-0.1,0.1-0.2,0.4-0.2,0.6
			l0,5.4H3.4V5.6h15.8v2.9c0.3-0.2,0.7-0.3,1.1-0.3h1.2V4.5c0-0.4-0.3-0.7-0.7-0.7H1.9c-0.4,0-0.7,0.3-0.7,0.7v25.4
			c0,0.4,0.3,0.7,0.7,0.7h14c0.2,0,0.4-0.1,0.5-0.2l1.8-2v-5.8L14.9,22.5L14.9,22.5z"/>
		<path fill="#FFFFFF" stroke="#1E5931" stroke-miterlimit="10" d="M12.8,20.2l4.7-3.8c0,0,0.4-0.3,0-0.6C17,15.2,12.6,12,12.6,12
			s-0.6-0.6-0.6,0.2c0,0.8,0,2,0,2s-0.3,0-0.8,0c-1.6,0-4.7,0-5.8,0c0,0-0.3,0-0.3,0.3c0,0.4,0,2.6,0,3.1C5.1,18,5.4,18,5.4,18
			c1.2,0,4.2,0,5.8,0c0.6,0,0.9,0,0.9,0s0,1.5,0,2.2C12.2,20.8,12.8,20.2,12.8,20.2z"/>
		<path fill="#FFFFFF" stroke="#1E5931" stroke-miterlimit="10" d="M38.6,9.2H19.8c-0.4,0-0.7,0.3-0.7,0.7v25.4
			c0,0.4,0.3,0.7,0.7,0.7h14c0.2,0,0.4-0.1,0.5-0.2l4.8-5.4c0.1-0.1,0.2-0.3,0.2-0.5v-20C39.3,9.5,39,9.2,38.6,9.2z M37,27.9l-4.3,0
			c0,0,0,0,0,0c-0.2,0-0.4,0.1-0.6,0.2c-0.2,0.1-0.2,0.4-0.2,0.6l0,5.4H21.2V11H37L37,27.9L37,27.9z"/>
		<path fill="#FFFFFF" stroke="#1E5931" stroke-miterlimit="10" d="M27.9,26.7c0,0,0.6,0.6,0.6-0.2c0-0.8,0-2,0-2s0.3,0,0.8,0
			c1.6,0,4.7,0,5.8,0c0,0,0.3,0,0.3-0.3c0-0.4,0-2.6,0-3.1c0-0.5-0.3-0.4-0.3-0.4c-1.2,0-4.2,0-5.8,0c-0.6,0-0.9,0-0.9,0
			s0-1.5,0-2.2c0-0.6-0.6,0-0.6,0l-4.7,3.8c0,0-0.4,0.3,0,0.6C23.5,23.4,27.9,26.7,27.9,26.7z"/>
	</g>
</g>
<g>
	<g>
		<circle fill="#FFFFFF" stroke="#1E5931" stroke-miterlimit="10" cx="19.3" cy="33.7" r="2.8"/>
		<circle fill="#FFFFFF" stroke="#1E5931" stroke-miterlimit="10" cx="30.6" cy="33.7" r="2.8"/>
		<path fill="#FFFFFF" stroke="#1E5931" stroke-miterlimit="10" d="M38.1,9.6C37.5,8.9,36.3,9,36.3,9H11.4l-0.8-3.4
			c-0.3-1.2-1.4-2.1-2.7-2.1H1.3l1.3,2.7l4,0c0.9,0,1.7,0.6,1.9,1.5l3.7,17.7c0.4,2.1,2.3,3.6,4.4,3.6c5.3,0,14.6,0,16.2,0
			c2.2,0,2.4-2.5,2.4-2.5s-13.1,0-17.8,0c-0.9,0-2,0.1-2.7-2.5c-0.3-1-0.8-4-0.8-4l22.3,0c1,0,1.8-0.8,1.9-1.8l0.8-6.9
			C38.8,10.6,38.7,10.2,38.1,9.6z M35.5,17.1H13.1l-1.1-5h24L35.5,17.1z"/>
	</g>
</g>
</svg>
