<?xml version="1.0" encoding="utf-8"?>
<!-- Generator: Adobe Illustrator 18.0.0, SVG Export Plug-In . SVG Version: 6.00 Build 0)  -->
<!DOCTYPE svg PUBLIC "-//W3C//DTD SVG 1.1//EN" "http://www.w3.org/Graphics/SVG/1.1/DTD/svg11.dtd">
<svg version="1.1" id="Layer_1" xmlns="http://www.w3.org/2000/svg" xmlns:xlink="http://www.w3.org/1999/xlink" x="0px" y="0px"
	 viewBox="0 0 70 70" enable-background="new 0 0 70 70" xml:space="preserve">
<g display="none">
	<path display="inline" fill="#EF4025" stroke="#EF4025" stroke-miterlimit="10" d="M45.3,1H8.5v68h53.3V17.5L45.3,1z M45.9,4.9
		l12,12h-12V4.9z M10.8,66.7V3.3h32.9v15.9h15.9v47.6H10.8z"/>
	<path display="inline" fill="#EF4025" stroke="#EF4025" stroke-miterlimit="10" d="M49.3,24.8H31.2c-0.6,0-1.1,0.5-1.1,1.1
		s0.5,1.1,1.1,1.1h18.1c0.6,0,1.1-0.5,1.1-1.1S50,24.8,49.3,24.8z"/>
	<path display="inline" fill="#EF4025" stroke="#EF4025" stroke-miterlimit="10" d="M27.1,21.6l-4.9,3.9L20.7,24
		c-0.4-0.4-1.2-0.4-1.6,0c-0.4,0.4-0.4,1.2,0,1.6l2.3,2.3c0.2,0.2,0.5,0.3,0.8,0.3c0.2,0,0.5-0.1,0.7-0.2l5.7-4.5
		c0.5-0.4,0.6-1.1,0.2-1.6C28.3,21.3,27.6,21.3,27.1,21.6z"/>
	<path display="inline" fill="#EF4025" stroke="#EF4025" stroke-miterlimit="10" d="M49.3,37.3H31.2c-0.6,0-1.1,0.5-1.1,1.1
		s0.5,1.1,1.1,1.1h18.1c0.6,0,1.1-0.5,1.1-1.1S50,37.3,49.3,37.3z"/>
	<path display="inline" fill="#EF4025" stroke="#EF4025" stroke-miterlimit="10" d="M27.1,34.1L22.2,38l-1.5-1.5
		c-0.4-0.4-1.2-0.4-1.6,0s-0.4,1.2,0,1.6l2.3,2.3c0.2,0.2,0.5,0.3,0.8,0.3c0.2,0,0.5-0.1,0.7-0.2l5.7-4.5c0.5-0.4,0.6-1.1,0.2-1.6
		C28.3,33.8,27.6,33.7,27.1,34.1z"/>
	<path display="inline" fill="#EF4025" stroke="#EF4025" stroke-miterlimit="10" d="M49.3,49.7H31.2c-0.6,0-1.1,0.5-1.1,1.1
		c0,0.6,0.5,1.1,1.1,1.1h18.1c0.6,0,1.1-0.5,1.1-1.1C50.5,50.2,50,49.7,49.3,49.7z"/>
	<path display="inline" fill="#EF4025" stroke="#EF4025" stroke-miterlimit="10" d="M27.1,46.6l-4.9,3.9l-1.5-1.5
		c-0.4-0.4-1.2-0.4-1.6,0c-0.4,0.4-0.4,1.2,0,1.6l2.3,2.3c0.2,0.2,0.5,0.3,0.8,0.3c0.2,0,0.5-0.1,0.7-0.2l5.7-4.5
		c0.5-0.4,0.6-1.1,0.2-1.6C28.3,46.3,27.6,46.2,27.1,46.6z"/>
</g>
<path fill="#EF4025" stroke="#EF4025" stroke-miterlimit="10" d="M53.1,5c-7.4-1.1-15.3,2.8-17.9,9.7c-1.3-3.3-3.9-6.1-7-7.8
	C23,4,17.9,3.9,12.3,6.3C8.1,8.1,4.7,12.8,2.9,17c-2.3,5.2-1.1,11.6,0.3,16.9c0.3,1,1.8,0.6,1.5-0.4c-2.3-8.8-2-18.6,6.1-24.5
	c3.8-2.8,10.3-3.8,14.5-1.8c4.4,2,8.8,6,9.1,11.1c0.1,1,1.5,1,1.6,0C36.9,8.8,48.4,3.8,56.6,7.6C65.2,11.7,68.8,23.3,66,32
	c-1.8,5.5-8.9,4.2-13.6,4.2c-2.7,0-5.3,0-8,0c-0.4,0-1.8,0-1.8,0c-0.4-0.3-1.5-3.4-1.7-4.1c-0.3-0.9-1.4-0.7-1.6,0.2
	c-0.5,4.1-1.6,8.1-2.4,12.1c-0.8-6.8-1.2-13.6-2.3-20.4c-0.1-0.8-1.4-0.7-1.5,0c-1.1,4.7-2.2,9.4-3.3,14.2c-0.5-2.2-1-4.4-1.5-6.6
	c-0.2-0.7-1.4-0.8-1.5,0c-0.2,1.1-0.4,4-1.2,4.6c-0.5,0.4-2.4,0-3,0c-2.9,0-5.8,0-8.6-0.1c-3.1,0-8.1-0.6-7.9,4.1
	c0.1,2.5,2.4,5,3.8,6.8c2.1,2.6,4.6,4.9,7.3,7c5.5,4.3,11.6,7.6,17.5,11.2c0.2,0.2,0.6,0.1,0.8,0c10.7-5.9,19.4-13.4,27-23
	c0.6-0.8-0.5-1.9-1.1-1.1c-5,6.3-10.6,12.3-17.3,16.9c-2.1,1.5-6.8,5.7-9.4,5.3c-1.2-0.2-3-1.8-4-2.4c-1.7-1-3.3-2-5-3
	c-3.6-2.3-7.1-4.7-10.3-7.5c-1.9-1.7-11.4-10.8-5.1-12.7c2.4-0.7,6.2,0,8.7,0.1c2.5,0,4.9,0,7.4,0c0.4,0,0.7-0.2,0.8-0.6
	c0.2-0.6,0.4-1.2,0.5-1.8c0.5,2.2,1,4.4,1.5,6.6c0.2,0.8,1.4,0.8,1.5,0c1-4.5,2.1-9,3.1-13.4c0.9,7,1.2,14.1,2.4,21.2
	c0.2,1,1.5,0.6,1.6-0.2c0.6-4.8,2-9.4,2.8-14.1c0.5,1.2,1.3,2.1,2.7,2.4c3.6,0.6,7.8,0,11.4,0c3.3,0,7.8,0.7,10.5-1.5
	c2.4-2,2.9-5.4,3.1-8.3C69.1,18.2,63.8,6.6,53.1,5z"/>
<g display="none">
	
		<rect x="16.2" y="40.3" display="inline" fill="none" stroke="#EF4025" stroke-width="2" stroke-miterlimit="10" width="15" height="8.9"/>
	<g display="inline">
		<path fill="none" stroke="#EF4025" stroke-width="2" stroke-miterlimit="10" d="M53.8,61.9V40.3h-15v21.6H53.8z M41.3,49.2
			C41.3,49.2,41.3,49.2,41.3,49.2c0-0.2,0-0.3,0.1-0.5c0,0,0,0,0-0.1c0-0.1,0.1-0.1,0.1-0.2l3.8-5.1c0.2-0.3,0.6-0.5,1-0.5
			c0.4,0,0.8,0.2,1,0.5l3.8,5.1c0,0.1,0.1,0.1,0.1,0.2c0,0,0,0,0,0.1c0.1,0.1,0.1,0.3,0.1,0.4c0,0,0,0,0,0v5.1
			c0,0.3-0.1,0.7-0.4,0.9c-0.2,0.2-0.6,0.4-0.9,0.4h-7.5c-0.3,0-0.7-0.1-0.9-0.4c-0.2-0.2-0.4-0.6-0.4-0.9L41.3,49.2L41.3,49.2z"/>
		<path fill="none" stroke="#EF4025" stroke-width="2" stroke-miterlimit="10" d="M61.3,61.9V33c-0.7,0.6-1.6,1-2.5,1h-2.5
			c-0.9,0-1.8-0.4-2.5-1c-0.7,0.6-1.6,1-2.5,1h-2.5c-0.9,0-1.8-0.4-2.5-1c-0.7,0.6-1.6,1-2.5,1h-2.5c-0.9,0-1.8-0.4-2.5-1
			c-0.7,0.6-1.6,1-2.5,1h-2.5c-0.9,0-1.8-0.4-2.5-1c-0.7,0.6-1.6,1-2.5,1h-2.5c-0.9,0-1.8-0.4-2.5-1c-0.7,0.6-1.6,1-2.5,1h-2.5
			c-0.9,0-1.8-0.4-2.5-1c-0.7,0.6-1.6,1-2.5,1h-2.5c-0.9,0-1.8-0.4-2.5-1v28.9h27.6V39.1c0-0.3,0.1-0.7,0.4-0.9
			c0.2-0.2,0.6-0.4,0.9-0.4h17.6c0.3,0,0.7,0.1,0.9,0.4c0.2,0.2,0.4,0.6,0.4,0.9v22.8L61.3,61.9L61.3,61.9z M32.5,56.8H14.9
			c-0.7,0-1.3-0.6-1.3-1.3c0-0.7,0.6-1.3,1.3-1.3h17.6c0.7,0,1.3,0.6,1.3,1.3C33.7,56.3,33.2,56.8,32.5,56.8z M33.7,50.5
			c0,0.3-0.1,0.7-0.4,0.9c-0.2,0.2-0.6,0.4-0.9,0.4H14.9c-0.3,0-0.7-0.1-0.9-0.4s-0.4-0.6-0.4-0.9V39.1c0-0.3,0.1-0.7,0.4-0.9
			c0.2-0.2,0.6-0.4,0.9-0.4h17.6c0.3,0,0.7,0.1,0.9,0.4c0.2,0.2,0.4,0.6,0.4,0.9V50.5z"/>
		<path fill="none" stroke="#EF4025" stroke-width="2" stroke-miterlimit="10" d="M3.7,31.5h2.5c0.7,0,1.3-0.6,1.3-1.3v-6.3
			c0-0.7,0.6-1.3,1.3-1.3s1.3,0.6,1.3,1.3v6.3c0,0.7,0.6,1.3,1.3,1.3h2.5c0.7,0,1.3-0.6,1.3-1.3v-3.8c0-0.7,0.6-1.3,1.3-1.3
			c0.7,0,1.3,0.6,1.3,1.3v3.8c0,0.7,0.6,1.3,1.3,1.3h2.5c0.7,0,1.3-0.6,1.3-1.3v-6.3c0-0.7,0.6-1.3,1.3-1.3s1.3,0.6,1.3,1.3v6.3
			c0,0.7,0.6,1.3,1.3,1.3h2.5c0.7,0,1.3-0.6,1.3-1.3v-3.8c0-0.7,0.6-1.3,1.3-1.3c0.7,0,1.3,0.6,1.3,1.3v3.8c0,0.7,0.6,1.3,1.3,1.3
			h2.5c0.7,0,1.3-0.6,1.3-1.3v-6.3c0-0.7,0.6-1.3,1.3-1.3c0.7,0,1.3,0.6,1.3,1.3v6.3c0,0.7,0.6,1.3,1.3,1.3h2.5
			c0.7,0,1.3-0.6,1.3-1.3v-3.8c0-0.7,0.6-1.3,1.3-1.3c0.7,0,1.3,0.6,1.3,1.3v3.8c0,0.7,0.6,1.3,1.3,1.3h2.5c0.7,0,1.3-0.6,1.3-1.3
			v-6.3c0-0.7,0.6-1.3,1.3-1.3c0.7,0,1.3,0.6,1.3,1.3v6.3c0,0.7,0.6,1.3,1.3,1.3h2.5c0.7,0,1.3-0.6,1.3-1.3v-3.8
			c0-0.7,0.6-1.3,1.3-1.3c0.7,0,1.3,0.6,1.3,1.3v3.8c0,0.7,0.6,1.3,1.3,1.3h2.5c0.7,0,1.3-0.6,1.3-1.3v-5.9L54.8,7.9
			c-0.2-0.3-0.6-0.5-1-0.5H16.2c-0.4,0-0.7,0.2-1,0.5L2.4,24.3v5.9C2.4,30.9,3,31.5,3.7,31.5z"/>
	</g>
</g>
</svg>
