<?xml version="1.0" encoding="utf-8"?>
<!-- Generator: Adobe Illustrator 18.0.0, SVG Export Plug-In . SVG Version: 6.00 Build 0)  -->
<!DOCTYPE svg PUBLIC "-//W3C//DTD SVG 1.1//EN" "http://www.w3.org/Graphics/SVG/1.1/DTD/svg11.dtd">
<svg version="1.1" id="Layer_1" xmlns="http://www.w3.org/2000/svg" xmlns:xlink="http://www.w3.org/1999/xlink" x="0px" y="0px"
	 viewBox="0 0 70 70" enable-background="new 0 0 70 70" xml:space="preserve">
<g>
	<path fill="#EF4025" stroke="#EF4025" stroke-miterlimit="10" d="M45.3,1H8.5v68h53.3V17.5L45.3,1z M45.9,4.9l12,12h-12V4.9z
		 M10.8,66.7V3.3h32.9v15.9h15.9v47.6H10.8z"/>
	<path fill="#EF4025" stroke="#EF4025" stroke-miterlimit="10" d="M49.3,24.8H31.2c-0.6,0-1.1,0.5-1.1,1.1s0.5,1.1,1.1,1.1h18.1
		c0.6,0,1.1-0.5,1.1-1.1S50,24.8,49.3,24.8z"/>
	<path fill="#EF4025" stroke="#EF4025" stroke-miterlimit="10" d="M27.1,21.6l-4.9,3.9L20.7,24c-0.4-0.4-1.2-0.4-1.6,0
		c-0.4,0.4-0.4,1.2,0,1.6l2.3,2.3c0.2,0.2,0.5,0.3,0.8,0.3c0.2,0,0.5-0.1,0.7-0.2l5.7-4.5c0.5-0.4,0.6-1.1,0.2-1.6
		C28.3,21.3,27.6,21.3,27.1,21.6z"/>
	<path fill="#EF4025" stroke="#EF4025" stroke-miterlimit="10" d="M49.3,37.3H31.2c-0.6,0-1.1,0.5-1.1,1.1s0.5,1.1,1.1,1.1h18.1
		c0.6,0,1.1-0.5,1.1-1.1S50,37.3,49.3,37.3z"/>
	<path fill="#EF4025" stroke="#EF4025" stroke-miterlimit="10" d="M27.1,34.1L22.2,38l-1.5-1.5c-0.4-0.4-1.2-0.4-1.6,0
		s-0.4,1.2,0,1.6l2.3,2.3c0.2,0.2,0.5,0.3,0.8,0.3c0.2,0,0.5-0.1,0.7-0.2l5.7-4.5c0.5-0.4,0.6-1.1,0.2-1.6
		C28.3,33.8,27.6,33.7,27.1,34.1z"/>
	<path fill="#EF4025" stroke="#EF4025" stroke-miterlimit="10" d="M49.3,49.7H31.2c-0.6,0-1.1,0.5-1.1,1.1c0,0.6,0.5,1.1,1.1,1.1
		h18.1c0.6,0,1.1-0.5,1.1-1.1C50.5,50.2,50,49.7,49.3,49.7z"/>
	<path fill="#EF4025" stroke="#EF4025" stroke-miterlimit="10" d="M27.1,46.6l-4.9,3.9l-1.5-1.5c-0.4-0.4-1.2-0.4-1.6,0
		c-0.4,0.4-0.4,1.2,0,1.6l2.3,2.3c0.2,0.2,0.5,0.3,0.8,0.3c0.2,0,0.5-0.1,0.7-0.2l5.7-4.5c0.5-0.4,0.6-1.1,0.2-1.6
		C28.3,46.3,27.6,46.2,27.1,46.6z"/>
</g>
</svg>
