<?xml version="1.0" encoding="utf-8"?>
<!-- Generator: Adobe Illustrator 18.0.0, SVG Export Plug-In . SVG Version: 6.00 Build 0)  -->
<!DOCTYPE svg PUBLIC "-//W3C//DTD SVG 1.1//EN" "http://www.w3.org/Graphics/SVG/1.1/DTD/svg11.dtd">
<svg version="1.1" id="Layer_1" xmlns="http://www.w3.org/2000/svg" xmlns:xlink="http://www.w3.org/1999/xlink" x="0px" y="0px"
	 viewBox="0 0 35 35" enable-background="new 0 0 35 35" xml:space="preserve">
<g>
	<path fill="#FFFFFF" stroke="#EF4025" stroke-miterlimit="10" d="M24.4,0.8H10.6c-1.9,0-3.4,1.4-3.4,3.1v27.2
		c0,1.7,1.5,3.1,3.4,3.1h13.7c1.9,0,3.4-1.4,3.4-3.1V3.9C27.8,2.2,26.3,0.8,24.4,0.8z M25.5,31.1c0,0.6-0.5,1-1.1,1H10.6
		c-0.6,0-1.1-0.5-1.1-1V28h16V31.1z M25.5,25.9h-16V7h16V25.9z M25.5,5h-16v-1c0-0.6,0.5-1,1.1-1h13.7c0.6,0,1.1,0.5,1.1,1V5z"/>
	<rect x="16.4" y="29" fill="#FFFFFF" stroke="#EF4025" stroke-miterlimit="10" width="2.3" height="2.1"/>
</g>
</svg>
