<?xml version="1.0" encoding="utf-8"?>
<!-- Generator: Adobe Illustrator 18.0.0, SVG Export Plug-In . SVG Version: 6.00 Build 0)  -->
<!DOCTYPE svg PUBLIC "-//W3C//DTD SVG 1.1//EN" "http://www.w3.org/Graphics/SVG/1.1/DTD/svg11.dtd">
<svg version="1.1" id="Layer_1" xmlns="http://www.w3.org/2000/svg" xmlns:xlink="http://www.w3.org/1999/xlink" x="0px" y="0px"
	 viewBox="0 0 40 40" enable-background="new 0 0 40 40" xml:space="preserve">
<g>
	<g>
		<path fill="#FFFFFF" d="M19.9,21.5c0,0,0.1,0,0.1,0c0,0,0,0,0,0c0,0,0.1,0,0.1,0c2.4,0,4.3-0.9,5.7-2.5c3.1-3.5,2.6-9.6,2.6-10.2
			c-0.2-4.3-2.3-6.4-3.9-7.4c-1.3-0.7-2.7-1.1-4.4-1.1H20c0,0,0,0,0,0h0c-0.9,0-2.7,0.1-4.4,1.1c-1.7,1-3.8,3-4,7.4
			C11.5,9.5,11,15.5,14.1,19C15.5,20.6,17.5,21.5,19.9,21.5z M13.7,9.1C13.7,9.1,13.8,9,13.7,9.1c0.3-5.9,4.4-6.5,6.2-6.5h0
			c0,0,0,0,0.1,0c2.2,0,5.9,0.9,6.2,6.5c0,0,0,0,0,0.1c0,0.1,0.6,5.6-2,8.5c-1,1.2-2.4,1.7-4.2,1.7c0,0,0,0,0,0l0,0c0,0,0,0,0,0
			c-1.8,0-3.2-0.6-4.2-1.7C13.2,14.7,13.7,9.1,13.7,9.1z"/>
		<path fill="#FFFFFF" d="M36.7,31.6C36.7,31.6,36.7,31.6,36.7,31.6c0-0.1,0-0.2,0-0.2c0-1.6-0.2-5.4-3.7-6.6c0,0-0.1,0-0.1,0
			c-3.7-0.9-6.7-3.1-6.8-3.1c-0.5-0.3-1.2-0.2-1.5,0.3c-0.3,0.5-0.2,1.2,0.3,1.5c0.1,0.1,3.4,2.4,7.4,3.4c1.9,0.7,2.1,2.7,2.2,4.6
			c0,0.1,0,0.1,0,0.2c0,0.7,0,1.9-0.2,2.5c-1.3,0.7-6.5,3.3-14.3,3.3c-7.8,0-13-2.6-14.4-3.3c-0.1-0.7-0.2-1.8-0.2-2.5
			c0-0.1,0-0.1,0-0.2c0.1-1.9,0.3-3.9,2.2-4.6c4.1-1,7.3-3.3,7.4-3.4c0.5-0.3,0.6-1,0.3-1.5c-0.3-0.5-1-0.6-1.5-0.3
			c0,0-3.1,2.1-6.8,3.1c0,0-0.1,0-0.1,0c-3.5,1.2-3.6,5-3.7,6.6c0,0.1,0,0.1,0,0.2c0,0,0,0,0,0c0,0.4,0,2.6,0.4,3.7
			c0.1,0.2,0.2,0.4,0.4,0.5c0.2,0.2,6.1,3.9,15.9,3.9s15.6-3.7,15.9-3.9c0.2-0.1,0.3-0.3,0.4-0.5C36.7,34.2,36.7,32,36.7,31.6z"/>
	</g>
</g>
</svg>
