<?xml version="1.0" encoding="utf-8"?>
<!-- Generator: Adobe Illustrator 18.0.0, SVG Export Plug-In . SVG Version: 6.00 Build 0)  -->
<!DOCTYPE svg PUBLIC "-//W3C//DTD SVG 1.1//EN" "http://www.w3.org/Graphics/SVG/1.1/DTD/svg11.dtd">
<svg version="1.1" id="Layer_1" xmlns="http://www.w3.org/2000/svg" xmlns:xlink="http://www.w3.org/1999/xlink" x="0px" y="0px"
	 viewBox="0 0 35 35" enable-background="new 0 0 35 35" xml:space="preserve">
<g display="none">
	<path display="inline" fill="#FFFFFF" stroke="#EF4025" stroke-miterlimit="10" d="M24.4,0.8H10.6c-1.9,0-3.4,1.4-3.4,3.1v27.2
		c0,1.7,1.5,3.1,3.4,3.1h13.7c1.9,0,3.4-1.4,3.4-3.1V3.9C27.8,2.2,26.3,0.8,24.4,0.8z M25.5,31.1c0,0.6-0.5,1-1.1,1H10.6
		c-0.6,0-1.1-0.5-1.1-1V28h16V31.1z M25.5,25.9h-16V7h16V25.9z M25.5,5h-16v-1c0-0.6,0.5-1,1.1-1h13.7c0.6,0,1.1,0.5,1.1,1V5z"/>
	<rect x="16.4" y="29" display="inline" fill="#FFFFFF" stroke="#EF4025" stroke-miterlimit="10" width="2.3" height="2.1"/>
</g>
<g>
	<g>
		<g>
			<path fill="#FFFFFF" stroke="#FFFFFF" stroke-miterlimit="10" d="M18.9,34.3h-2.7c-1,0-1.9-0.8-1.9-1.9v-3.3
				c-1-0.3-2-0.7-2.9-1.2L9.3,30c-0.4,0.3-0.8,0.5-1.3,0.5c-0.5,0-1-0.2-1.3-0.5l-1.9-1.9c-0.7-0.7-0.7-1.9,0-2.6l2.2-2.2
				c-0.4-0.8-0.7-1.5-0.9-2.4H2.7c-1,0-1.9-0.8-1.9-1.9v-2.7c0-1,0.8-1.9,1.9-1.9H6c0.3-1,0.7-2,1.2-2.9L4.8,9
				c-0.7-0.7-0.7-1.9,0-2.6l1.9-1.9C7.1,4.1,7.5,3.9,8,3.9c0.5,0,1,0.2,1.3,0.5l2.5,2.6c0.8-0.4,1.6-0.7,2.4-0.9V2.8
				c0-1,0.8-1.9,1.9-1.9h2.7c1,0,1.9,0.8,1.9,1.9v3.3c0.8,0.2,1.7,0.6,2.5,1l2.6-2.5C26.1,4.2,26.6,4,27.1,4c0.5,0,1,0.2,1.3,0.5
				l1.9,1.9c0.4,0.4,0.5,0.8,0.5,1.3s-0.2,1-0.5,1.3l-2.5,2.5c0.5,0.9,0.9,1.8,1.2,2.8h3.3c1,0,1.9,0.8,1.9,1.9V19
				c0,1-0.8,1.9-1.9,1.9H29c-0.2,0.8-0.6,1.7-1,2.5l2.2,2.2c0.4,0.4,0.5,0.8,0.5,1.3s-0.2,1-0.5,1.3l-1.9,1.9
				c-0.4,0.3-0.8,0.5-1.3,0.5c-0.5,0-1-0.2-1.3-0.5l-2.1-2.1c-0.9,0.5-1.8,0.9-2.8,1.2v3.3C20.7,33.4,19.9,34.3,18.9,34.3z
				 M11.3,26.8l0.3,0.2c1,0.6,2.1,1.1,3.2,1.4l0.3,0.1v4c0,0.6,0.5,1,1,1h2.7c0.6,0,1-0.5,1-1v-4l0.3-0.1c1.1-0.3,2.2-0.7,3.2-1.3
				l0.3-0.2l2.6,2.6c0.2,0.2,0.4,0.3,0.7,0.3c0.3,0,0.5-0.1,0.7-0.3l1.9-1.9c0.2-0.2,0.3-0.4,0.3-0.7c0-0.3-0.1-0.5-0.3-0.7
				l-2.7-2.7l0.2-0.3c0.5-0.9,0.9-1.8,1.1-2.8l0.1-0.3h4c0.6,0,1-0.5,1-1v-2.7c0-0.6-0.5-1-1-1h-4l-0.1-0.3
				c-0.3-1.1-0.7-2.2-1.3-3.2l-0.2-0.3l2.9-2.9C29.9,8.3,30,8.1,30,7.8c0-0.3-0.1-0.5-0.3-0.7l-1.9-1.9C27.6,5,27.3,4.9,27,4.9
				c-0.3,0-0.5,0.1-0.7,0.3l-3,3L23,8c-0.9-0.5-1.8-0.9-2.8-1.1l-0.3-0.1v-4c0-0.6-0.5-1-1-1h-2.7c-0.6,0-1,0.5-1,1v4l-0.3,0.1
				c-1,0.2-1.9,0.6-2.8,1.1l-0.3,0.2l-3-3C8.6,4.9,8.3,4.8,8,4.8c-0.3,0-0.5,0.1-0.7,0.3L5.4,7C5,7.4,5,8,5.4,8.4l2.9,3l-0.2,0.3
				c-0.6,1-1.1,2.1-1.4,3.2l-0.1,0.3h-4c-0.6,0-1,0.5-1,1V19c0,0.6,0.5,1,1,1h4l0.1,0.3c0.2,1,0.6,1.9,1.1,2.8L8,23.4L5.3,26
				c-0.4,0.4-0.4,1,0,1.4l1.9,1.9c0.2,0.2,0.4,0.3,0.7,0.3c0.3,0,0.5-0.1,0.7-0.3L11.3,26.8z"/>
		</g>
		<g>
			<path fill="#FFFFFF" stroke="#FFFFFF" stroke-miterlimit="10" d="M17.5,24c-3.5,0-6.4-2.9-6.4-6.4c0-3.5,2.9-6.4,6.4-6.4
				s6.4,2.9,6.4,6.4S21,24,17.5,24z M17.5,12.1c-3,0-5.5,2.5-5.5,5.5s2.5,5.5,5.5,5.5s5.5-2.5,5.5-5.5S20.5,12.1,17.5,12.1z"/>
		</g>
	</g>
</g>
</svg>
