<?xml version="1.0" encoding="utf-8"?>
<!-- Generator: Adobe Illustrator 18.0.0, SVG Export Plug-In . SVG Version: 6.00 Build 0)  -->
<!DOCTYPE svg PUBLIC "-//W3C//DTD SVG 1.1//EN" "http://www.w3.org/Graphics/SVG/1.1/DTD/svg11.dtd">
<svg version="1.1" id="Layer_1" xmlns="http://www.w3.org/2000/svg" xmlns:xlink="http://www.w3.org/1999/xlink" x="0px" y="0px"
	 viewBox="0 0 35 35" enable-background="new 0 0 35 35" xml:space="preserve">
<g display="none">
	<path display="inline" fill="#FFFFFF" stroke="#EF4025" stroke-miterlimit="10" d="M24.4,0.8H10.6c-1.9,0-3.4,1.4-3.4,3.1v27.2
		c0,1.7,1.5,3.1,3.4,3.1h13.7c1.9,0,3.4-1.4,3.4-3.1V3.9C27.8,2.2,26.3,0.8,24.4,0.8z M25.5,31.1c0,0.6-0.5,1-1.1,1H10.6
		c-0.6,0-1.1-0.5-1.1-1V28h16V31.1z M25.5,25.9h-16V7h16V25.9z M25.5,5h-16v-1c0-0.6,0.5-1,1.1-1h13.7c0.6,0,1.1,0.5,1.1,1V5z"/>
	<rect x="16.4" y="29" display="inline" fill="#FFFFFF" stroke="#EF4025" stroke-miterlimit="10" width="2.3" height="2.1"/>
</g>
<g display="none">
	<g display="inline">
		<g>
			<path fill="#FFFFFF" stroke="#FFFFFF" stroke-miterlimit="10" d="M18.9,34.3h-2.7c-1,0-1.9-0.8-1.9-1.9v-3.3
				c-1-0.3-2-0.7-2.9-1.2L9.3,30c-0.4,0.3-0.8,0.5-1.3,0.5c-0.5,0-1-0.2-1.3-0.5l-1.9-1.9c-0.7-0.7-0.7-1.9,0-2.6l2.2-2.2
				c-0.4-0.8-0.7-1.5-0.9-2.4H2.7c-1,0-1.9-0.8-1.9-1.9v-2.7c0-1,0.8-1.9,1.9-1.9H6c0.3-1,0.7-2,1.2-2.9L4.8,9
				c-0.7-0.7-0.7-1.9,0-2.6l1.9-1.9C7.1,4.1,7.5,3.9,8,3.9c0.5,0,1,0.2,1.3,0.5l2.5,2.6c0.8-0.4,1.6-0.7,2.4-0.9V2.8
				c0-1,0.8-1.9,1.9-1.9h2.7c1,0,1.9,0.8,1.9,1.9v3.3c0.8,0.2,1.7,0.6,2.5,1l2.6-2.5C26.1,4.2,26.6,4,27.1,4c0.5,0,1,0.2,1.3,0.5
				l1.9,1.9c0.4,0.4,0.5,0.8,0.5,1.3s-0.2,1-0.5,1.3l-2.5,2.5c0.5,0.9,0.9,1.8,1.2,2.8h3.3c1,0,1.9,0.8,1.9,1.9V19
				c0,1-0.8,1.9-1.9,1.9H29c-0.2,0.8-0.6,1.7-1,2.5l2.2,2.2c0.4,0.4,0.5,0.8,0.5,1.3s-0.2,1-0.5,1.3l-1.9,1.9
				c-0.4,0.3-0.8,0.5-1.3,0.5c-0.5,0-1-0.2-1.3-0.5l-2.1-2.1c-0.9,0.5-1.8,0.9-2.8,1.2v3.3C20.7,33.4,19.9,34.3,18.9,34.3z
				 M11.3,26.8l0.3,0.2c1,0.6,2.1,1.1,3.2,1.4l0.3,0.1v4c0,0.6,0.5,1,1,1h2.7c0.6,0,1-0.5,1-1v-4l0.3-0.1c1.1-0.3,2.2-0.7,3.2-1.3
				l0.3-0.2l2.6,2.6c0.2,0.2,0.4,0.3,0.7,0.3c0.3,0,0.5-0.1,0.7-0.3l1.9-1.9c0.2-0.2,0.3-0.4,0.3-0.7c0-0.3-0.1-0.5-0.3-0.7
				l-2.7-2.7l0.2-0.3c0.5-0.9,0.9-1.8,1.1-2.8l0.1-0.3h4c0.6,0,1-0.5,1-1v-2.7c0-0.6-0.5-1-1-1h-4l-0.1-0.3
				c-0.3-1.1-0.7-2.2-1.3-3.2l-0.2-0.3l2.9-2.9C29.9,8.3,30,8.1,30,7.8c0-0.3-0.1-0.5-0.3-0.7l-1.9-1.9C27.6,5,27.3,4.9,27,4.9
				c-0.3,0-0.5,0.1-0.7,0.3l-3,3L23,8c-0.9-0.5-1.8-0.9-2.8-1.1l-0.3-0.1v-4c0-0.6-0.5-1-1-1h-2.7c-0.6,0-1,0.5-1,1v4l-0.3,0.1
				c-1,0.2-1.9,0.6-2.8,1.1l-0.3,0.2l-3-3C8.6,4.9,8.3,4.8,8,4.8c-0.3,0-0.5,0.1-0.7,0.3L5.4,7C5,7.4,5,8,5.4,8.4l2.9,3l-0.2,0.3
				c-0.6,1-1.1,2.1-1.4,3.2l-0.1,0.3h-4c-0.6,0-1,0.5-1,1V19c0,0.6,0.5,1,1,1h4l0.1,0.3c0.2,1,0.6,1.9,1.1,2.8L8,23.4L5.3,26
				c-0.4,0.4-0.4,1,0,1.4l1.9,1.9c0.2,0.2,0.4,0.3,0.7,0.3c0.3,0,0.5-0.1,0.7-0.3L11.3,26.8z"/>
		</g>
		<g>
			<path fill="#FFFFFF" stroke="#FFFFFF" stroke-miterlimit="10" d="M17.5,24c-3.5,0-6.4-2.9-6.4-6.4c0-3.5,2.9-6.4,6.4-6.4
				s6.4,2.9,6.4,6.4S21,24,17.5,24z M17.5,12.1c-3,0-5.5,2.5-5.5,5.5s2.5,5.5,5.5,5.5s5.5-2.5,5.5-5.5S20.5,12.1,17.5,12.1z"/>
		</g>
	</g>
</g>
<g display="none">
	<g display="inline">
		<path fill="#FFFFFF" d="M10.6,13.7v-1.3c-1.3-1.1-2.1-2.7-2.1-4.5c0-3.2,2.7-5.9,5.9-5.9c3.2,0,5.9,2.7,5.9,5.9
			c0,1.4-0.5,2.8-1.4,3.8c0.4,0,0.8,0.1,1.2,0.2c0.9-1.2,1.3-2.6,1.3-4.1c0-3.9-3.1-7-7-7s-7,3.1-7,7C7.4,10.3,8.7,12.5,10.6,13.7z"
			/>
		<path fill="#FFFFFF" d="M19.2,7.8C19.2,5.2,17,3,14.3,3S9.5,5.2,9.5,7.8c0,1.2,0.4,2.3,1.1,3v-3c0-2,1.7-3.8,3.8-3.8
			s3.8,1.7,3.8,3.8v3C18.7,10.1,19.2,9,19.2,7.8z"/>
		<path fill="#FFFFFF" d="M27.2,15.9c-0.6,0-1.2,0.2-1.6,0.5l0,0c0-1.5-1.2-2.7-2.7-2.7c-0.6,0-1.3,0.2-1.8,0.6
			c-0.4-1.1-1.4-1.7-2.5-1.7c-0.6,0-1.2,0.2-1.6,0.5V7.8c0-1.5-1.2-2.7-2.7-2.7s-2.7,1.2-2.7,2.7v9.6c-2.1-1.9-4.5-3.4-6-1.9
			c-2.1,2.1,2.4,6.3,5.8,12.7c2.5,4.4,5.9,6,9.3,6c5,0,9.1-4.1,9.1-9.1v-6.4C29.9,17.1,28.7,15.9,27.2,15.9z M28.8,20.9V25
			c0,4.2-3.7,8.1-8.1,8.1c-4.1,0-6.4-2.3-8.4-5.4c-4.2-7.1-7.2-10.3-6-11.5c1.2-1.2,4.1,1.4,6.3,3.8V7.8c0-0.9,0.8-1.6,1.6-1.6
			S16,7,16,7.8v11.3H17v-3.8c0-0.9,0.8-1.6,1.6-1.6c0.9,0,1.6,0.8,1.6,1.6V18h1.1v-1.6c0-0.9,0.8-1.6,1.6-1.6c0.9,0,1.6,0.8,1.6,1.6
			v2.7h1.1v-0.5c0-0.9,0.8-1.6,1.6-1.6c0.9,0,1.6,0.8,1.6,1.6L28.8,20.9L28.8,20.9z"/>
	</g>
</g>
<path fill="none" stroke="#FFFFFF" stroke-width="2" stroke-miterlimit="10" d="M27.9,33.9c-2.7,0-5-2.2-5-5c0,0,0-0.1,0-0.1
	l-11.5-6.6c-1,0.8-2.3,1.2-3.6,1.2c-3.2,0-5.8-2.6-5.8-5.8c0-3.2,2.6-5.8,5.8-5.8c1.3,0,2.5,0.4,3.6,1.2L23,6.4c0,0,0-0.1,0-0.1
	c0-2.7,2.2-5,5-5c2.7,0,5,2.2,5,5c0,2.7-2.2,5-5,5c-1,0-1.9-0.3-2.7-0.8l-11.5,6.6c0,0.2,0,0.4,0,0.5c0,0.2,0,0.3,0,0.5l11.5,6.6
	c0.8-0.5,1.7-0.8,2.7-0.8c2.7,0,5,2.2,5,5C32.9,31.7,30.7,33.9,27.9,33.9z"/>
</svg>
