<?xml version="1.0" encoding="utf-8"?>
<!-- Generator: Adobe Illustrator 18.0.0, SVG Export Plug-In . SVG Version: 6.00 Build 0)  -->
<!DOCTYPE svg PUBLIC "-//W3C//DTD SVG 1.1//EN" "http://www.w3.org/Graphics/SVG/1.1/DTD/svg11.dtd">
<svg version="1.1" id="Layer_1" xmlns="http://www.w3.org/2000/svg" xmlns:xlink="http://www.w3.org/1999/xlink" x="0px" y="0px"
	 viewBox="0 0 45 45" enable-background="new 0 0 45 45" xml:space="preserve">
<g>
	<path fill="#FFFFFF" d="M39.6,12.6c-1.8-3-4.2-5.4-7.2-7.2c-3-1.8-6.3-2.7-9.9-2.7c-3.6,0-6.9,0.9-9.9,2.7c-3,1.8-5.4,4.2-7.2,7.2
		c-1.8,3-2.7,6.3-2.7,9.9c0,3.6,0.9,6.9,2.7,9.9c1.8,3,4.2,5.4,7.2,7.2c3,1.8,6.3,2.7,9.9,2.7s6.9-0.9,9.9-2.7
		c3-1.8,5.4-4.2,7.2-7.2c1.8-3,2.7-6.3,2.7-9.9C42.3,18.9,41.4,15.6,39.6,12.6z M35.4,26.1l-2.6,2.6c-0.3,0.3-0.7,0.5-1.2,0.5
		c-0.4,0-0.8-0.2-1.2-0.5l-7.9-7.9l-7.9,7.9c-0.3,0.3-0.7,0.5-1.2,0.5c-0.4,0-0.8-0.2-1.2-0.5l-2.6-2.6c-0.3-0.3-0.5-0.7-0.5-1.2
		c0-0.4,0.2-0.8,0.5-1.2l11.7-11.7c0.3-0.3,0.7-0.5,1.2-0.5c0.4,0,0.8,0.2,1.2,0.5l11.7,11.7c0.3,0.3,0.5,0.7,0.5,1.2
		C35.8,25.4,35.7,25.8,35.4,26.1z"/>
</g>
</svg>
