<?xml version="1.0" encoding="utf-8"?>
<!-- Generator: Adobe Illustrator 18.0.0, SVG Export Plug-In . SVG Version: 6.00 Build 0)  -->
<!DOCTYPE svg PUBLIC "-//W3C//DTD SVG 1.1//EN" "http://www.w3.org/Graphics/SVG/1.1/DTD/svg11.dtd">
<svg version="1.1" id="Layer_1" xmlns="http://www.w3.org/2000/svg" xmlns:xlink="http://www.w3.org/1999/xlink" x="0px" y="0px"
	 viewBox="0 0 2000 2000" enable-background="new 0 0 2000 2000" xml:space="preserve">
<g>
	<path fill="#EF4025" d="M1250.6,817c-6.5,0-12.2,0-17.8,0c-7,0-10.7-3.2-10.7-10.3c-0.2-28.8-0.2-57.7,0-86.5
		c0-6.7,4.2-10.2,11.4-10.2c51.8,0,103.7,0,155.5,0c1.8,0,3.6,0,6.1,0c-5.4-5.9-10.2-11.4-15.3-16.6c-11.8-12-23.6-24.1-34.6-36.9
		c-1.6-1.9-3.7-3.4-5.4-5.2c-9.8-10.1-19.6-20.3-29.3-30.5c-11.6-12.2-23.2-24.5-34.8-36.7c-13.7-14.4-27.4-28.8-41.1-43.2
		c-11.8-12.5-23.7-25-35.5-37.4c-13.5-14.2-26.9-28.3-40.4-42.5c-11.7-12.4-23.5-24.7-35.2-37.1c-13.7-14.4-27.4-28.8-41.1-43.2
		c-11.4-12-22.8-24-34.1-36c-13.6-14.3-27.3-28.4-40.6-42.9c-6.1-6.7-12.8-13-18.9-19.7c-2.3-2.5-3.7-2.8-6.2,0.2
		c-9.8,11.5-20.1,22.6-30.1,33.8c-13.3,14.8-26.5,29.7-39.8,44.5c-10.2,11.4-20.5,22.6-30.7,34c-12.7,14.2-25.3,28.5-38,42.7
		c-10.1,11.3-20.3,22.4-30.3,33.6c-12.9,14.4-25.8,29-38.7,43.4c-10,11.1-20,22.2-30,33.3c-13,14.6-26,29.2-39.1,43.8
		c-9.9,11-19.8,21.9-29.6,32.9c-13.2,14.7-26.2,29.4-39.4,44.1c-9.7,10.9-19.6,21.7-29.3,32.6c-8,8.9-15.8,17.9-23.9,26.7
		c-1.2,1.4-1.8,2.7-1.6,4.4c0.1,0.8,0,1.7,0,2.5c0,334,0,668-0.1,1002c0,5.1,1.1,6.5,6.4,6.5c25.8-0.3,51.7-0.2,77.5,0
		c4.2,0,5.5-0.8,5.5-5.3c-0.2-66.5-0.1-133-0.1-199.5c0-5.3-0.1-10.4,3.2-15.4c3.9-5.8,9-7.5,15.2-6.8c6.2,0.7,9.9,4.9,12.3,10.3
		c1.5,3.4,2.2,7.1,2.2,11c-0.1,26.8,0,53.7-0.1,80.5c0,3.7,0.7,5.1,4.8,5.1c30.2-0.2,60.3-0.2,90.5,0c3.9,0,4.7-1.2,4.6-4.8
		c-0.2-27.2-0.1-54.3,0-81.5c0-4.5,0.1-8.8,2.9-13.1c3.6-5.4,8.1-8,14.4-7.5c6.2,0.5,10.1,4.1,12.9,9.4c1.8,3.5,2.4,7.2,2.4,11
		c0,69.7,0,139.3,0,209c0,6-1.8,11.2-6,15.7c-4.2,4.4-9.5,6-14.9,4.4c-6.5-1.8-10.1-7.2-11.1-13.6c-0.8-5.2-0.5-10.6-0.5-16
		c0-23-0.1-46,0.1-69c0-4.1-1.2-4.9-5-4.9c-30,0.2-60,0.2-90,0c-3.9,0-5,1-5,4.9c0.2,25.8,0,51.7,0.1,77.5c0,9.7-4.5,16.6-12.2,21.7
		c-2,1.4-4.5,1.7-7.1,1.7c-38.7,0-77.3,0-116,0c-7,0-10.3-3.2-10.7-10.3c-0.1-1.8-0.1-3.7-0.1-5.5c0-340.5,0-681-0.1-1021.5
		c0-7.8,1.6-14.1,7.4-20.3c31-33.7,61.3-68.1,91.9-102.2c38.8-43.3,77.5-86.6,116.3-129.9c29.8-33.3,59.6-66.5,89.4-99.7
		c36.6-40.8,73.3-81.5,109.6-122.5c9-10.2,16.2-11.7,26.5-0.8c54.1,57.4,108.5,114.4,162.7,171.6c16.3,17.1,32.6,34.3,48.9,51.4
		c20.9,22,41.7,43.9,62.6,65.9c17.3,18.2,34.6,36.4,51.9,54.6c20.4,21.5,40.8,42.9,61.2,64.4c15.8,16.6,31.5,33.4,47.3,50
		c2.5,2.6,3.3,5.6,3.3,9c0,27.7,0,55.3,0,83c0,7.7-4.3,11.9-11.8,12c-5.2,0-10.3,0-16.2,0c6.1,9.5,11.9,18.6,17.7,27.6
		c33.7,52.6,67.3,105.3,101.1,157.8c3.8,5.8,5.1,11.9,5.1,18.4c0.1,142.3,0.1,284.7,0,427c0,5-1.1,9.9-0.5,14.9
		c0.3,2.8-1.8,3.7-3.6,4.9c-20.5,13.6-42.1,25-64.9,34.2c-54.9,22.2-112.1,31.8-171.1,30c-53-1.6-104.2-12.1-152.8-33.7
		c-5.2-2.3-9.3-2.3-14.5,0.3c-29.9,15.2-61.8,23.9-95.2,26.8c-6.1,0.5-12.1,1.9-18.3,1.9c-35.1-0.1-69.2-6-102.3-18.1
		c-13.2-4.9-25.8-11-38.2-17.5c-19.2-10.2-36-23.9-51.9-38.7c-17.1-16-31.7-34-44.7-53.4c-8.5-12.7-16.1-25.8-21.8-39.9
		c-11.4-27.9-19.2-56.8-22.1-86.9c-3.1-32.5-1.3-64.7,7.2-96.2c14.1-52,39.6-97.6,78.9-135.1c13.7-13,28.5-24.6,44.4-34.7
		c2.4-1.6,7.6-3.8,10.3-2.5c3,1.4,4.4,4.3,4.8,7c1.8,10.5-7.6,17.4-16.3,23.5c-50.6,36-84.3,84.5-99.5,144.8
		c-15.9,62.8-9.7,124.1,19.2,182.5c13.7,27.7,31.8,52.4,54.8,73.2c13.9,12.6,28.5,24.2,44.8,33.6c51.3,29.6,106.4,40.1,164.9,31.2
		c37.6-5.7,72.3-19.7,103.3-41.8c19.1-13.6,36.3-29.3,51.4-47.5c12-14.3,21.7-30,30.3-46.3c8.3-15.9,15.6-32.4,19.7-50.1
		c2.3-10,4-20.3,6.1-30.3c4-18.4,4.3-36.6,3.2-55c-3.5-57.9-24.2-109.2-61.7-153.5c-16.8-19.9-36.4-36.6-58.3-50.6
		c-3-1.9-6.6-2.9-8.8-6.4c-2.8-4.5-2.4-8.9,0-12.8c17-26.8,34.2-53.5,51.3-80.2c21.9-34.2,43.8-68.4,65.8-102.6
		C1248.2,821.3,1249.1,819.6,1250.6,817z M1508,1235.3C1508,1235.3,1508,1235.3,1508,1235.3c0-71.2-0.1-142.3,0-213.4
		c0-2.9-0.5-5.4-2.1-8c-41.2-64.3-82.4-128.6-123.4-192.9c-1.8-2.8-3.6-4-7.1-4c-30.2,0.2-60.3,0.2-90.5,0c-3.4,0-5.3,1.1-7.1,4
		c-20.2,31.7-40.4,63.4-60.7,95c-19.3,30.1-38.5,60.3-57.9,90.3c-1.8,2.9-1.8,4.4,1.2,6.3c4.3,2.8,8.5,5.8,12.5,9.1
		c82.2,67,115.7,154.1,106.7,258.6c-1.8,20.9-7.2,41.3-14.4,61.1c-20.5,55.9-54.7,101.3-103.4,135.8c-1.3,0.9-3.5,1.7-3.3,3.4
		c0.2,1.8,2.5,1.9,4,2.5c27.1,11,55.3,18.7,84.2,22.8c66.7,9.5,131.9,3.7,195.3-19.8c21.9-8.1,42.8-18.4,62.6-30.9
		c1.9-1.2,3.5-2.2,3.5-5.3C1508,1378.2,1508,1306.8,1508,1235.3z M1329.3,792c26.1,0,52.3-0.1,78.4,0.1c3.5,0,4.4-0.8,4.4-4.4
		c-0.2-16.3-0.2-32.6,0-49c0-3.1-0.8-3.8-3.9-3.8c-52.5,0.1-104.9,0.1-157.4,0c-3.1,0-3.9,0.7-3.9,3.8c0.2,16.3,0.2,32.6,0,49
		c0,3.6,0.9,4.4,4.4,4.3C1277.3,791.9,1303.3,792,1329.3,792z"/>
	<path fill="#EF4025" d="M1588.4,827.8c0.1,5.3-5,8.7-9.8,11.7c-4.4,2.8-9.1,0.9-13.5-3.1c-8.6-7.8-16.2-16.6-24.2-24.9
		c-10.4-10.9-21-21.7-31.4-32.6c-11.8-12.3-23.5-24.7-35.2-37c-14.3-15-28.6-30-42.8-45c-11.9-12.5-23.7-24.9-35.6-37.4
		c-14.2-14.9-28.3-29.7-42.5-44.6c-12-12.6-23.9-25.2-35.9-37.8c-14-14.8-28.1-29.5-42.1-44.3c-11.9-12.5-23.7-24.9-35.5-37.4
		c-14.1-14.9-28.6-29.5-42.4-44.7c-43.3-47.4-88.3-93.3-132.4-140c-25.4-26.9-51-53.6-76.4-80.5c-2.5-2.6-3.7-3.3-6.6,0
		c-42.1,47.2-84.5,94.3-126.8,141.4c-50.5,56.3-100.9,112.6-151.4,168.9c-39.5,44-79,88-118.5,132c-17.8,19.8-35.7,39.4-53.4,59.2
		c-14.5,16.1-29,32.3-43.5,48.5c-17.5,19.5-35.1,38.9-52.4,58.6c-5.9,6.7-12.4,6.1-19.5,0.1c-5.7-4.9-5.4-12.9-0.1-18.6
		c12.5-13.5,24.6-27.5,37.1-41c8.7-9.4,17.3-19,25.7-28.6c11.6-13.2,23.5-26.2,35.3-39.3c8.6-9.6,17.2-19,25.7-28.7
		c11.6-13.2,23.5-26.2,35.2-39.3c8.6-9.6,17.2-19,25.7-28.7c11.6-13.2,23.6-26.1,35.3-39.3c14.2-16,28.5-31.9,42.8-47.8
		c11.8-13,23.5-26.2,35.3-39.3c11.7-12.9,23.3-25.9,34.9-38.9c11.6-13,23.4-25.9,35-39c14.3-16.1,28.7-32.1,43.2-48.1
		c11.6-12.8,22.9-25.9,34.6-38.6c9.8-10.6,19-21.8,28.6-32.5c10.6-11.8,21.4-23.3,31.9-35.1c9.6-10.7,19-21.7,28.7-32.4
		c8.5-9.4,17.1-18.8,25.9-28c3.8-3.9,13.4-2.7,17.9,2.1c12.5,13.1,25,26.3,37.5,39.4c19.7,20.7,39.5,41.5,59.2,62.2
		c19.4,20.4,38.7,40.7,58.1,61.1c19.7,20.7,39.4,41.5,59.2,62.2c19.3,20.2,38.5,40.5,57.8,60.7c19.7,20.7,39.4,41.5,59.2,62.2
		c19.6,20.6,39.2,41.2,58.8,61.8c19.6,20.6,39.2,41.2,58.8,61.8c19.3,20.2,38.5,40.5,57.8,60.8c19.7,20.7,39.5,41.4,59.2,62.2
		c8.2,8.7,16.3,17.6,24.5,26.2C1587.1,820.7,1588.1,823.3,1588.4,827.8z"/>
	<path fill="#23572E" d="M892.8,1060.5c1.7-3.5,5.4-4.2,7.8-6.5c9-8.4,13.6-19.6,19.7-29.9c3.4-5.8,6.6-11.9,12.4-15.7
		c-17.7-10.7-30.3-26.6-41.7-44.2c4.6-0.4,8.4,1.7,12.5,1.9c10.9,0.4,21.2-2.6,31.5-5.2c24.6-6.2,41,3.6,54.7,21.7
		c0.8,1,3.2,4.1,2.8,3.6c0-7.8,0-16.2,0-24c0.1-9.7,0.2-19.3,0.3-29c0-4,0.6-7.9,4.4-10.1c5.2-3,10.8-2.9,16,0.1
		c4.1,2.4,4.7,6.9,4.7,11.3c-0.1,8.7-0.3,17.3-0.4,26c-0.1,8.7,0,17.3,0,25.7c2.4-3.1,4.9-6.8,7.8-10c13.6-14.8,29.9-20.1,48.8-14.9
		c9.3,2.6,19,7.1,28.9,6.8c4.3-0.1,8.3-1.7,13.5-2.2c-12.6,19.2-26.3,36.1-46.6,46.8c11.7,14.7,15.5,35.2,34.2,45.4
		c-29.2,5.6-60.9,4-76.9-9.9c-5.4,21.5-17.4,39-32.3,55.6c-2.2-4.5-0.2-8.7-1.2-12.6c-2.2-8.4-6-16-10.4-23.3
		c-3.6-6-6.6-12.3-9.2-18.8c-0.8-2.1-0.9-2.6-2.7-1.1c-13.3,11.8-29.6,14.6-46.6,15c-9.1,0.3-18.1,0-27.2-1
		C896.2,1061.8,894.7,1061.1,892.8,1060.5z"/>
	<path fill="#EF4025" d="M1063.1,1656.1c0,10.5,0,19.9,0,29.4c0,20.2,0,40.3,0,60.5c0,5.9-3.9,10.7-9.3,12
		c-5.6,1.3-10.9-1.3-13.8-6.3c-1.1-1.9-0.9-3.8-0.9-5.7c-0.1-42.3-0.1-84.6,0-126.9c0-5.1,1.5-9.6,6.5-11.7
		c5.7-2.3,12.1-0.2,15.7,4.6c13.4,18.4,26.9,36.7,40.1,55.2c1.9,2.7,2.4,3.9,4.9,0.3c13-18.2,26.3-36.2,39.5-54.3
		c3.8-5.2,9.7-7.6,15.5-6c4.6,1.3,8.1,6.5,8.1,12.9c0.1,41.8,0.1,83.6,0,125.4c0,8.1-5.1,12.6-13.2,12.5c-7-0.1-11-4.6-11-12.6
		c0-27.7,0-55.3-0.1-83c0-1.5,1.1-3.8-1-4.3c-1.6-0.4-2,1.8-2.9,3c-8.7,11.8-17.5,23.6-26.1,35.4c-6.9,9.5-15.1,10.1-22.2,0.8
		C1082.9,1684.1,1073.5,1670.5,1063.1,1656.1z"/>
	<path fill="#23572E" d="M869,1681.6c-0.1-42.5,33.2-76.1,76.3-75.5c42.4,0.5,75.2,33,75.4,75.7c0.2,42.6-33.5,75-75.7,76.1
		C903.7,1759,867.4,1722.5,869,1681.6z M893.1,1681.7c-0.1,28.3,23.2,51.8,51.6,52.1c28.1,0.2,51.8-23.2,52.1-51.7
		c0.3-28.1-23.4-51.9-51.6-52C916.7,1630.1,893.2,1653.4,893.1,1681.7z"/>
	<path fill="#EF4025" d="M1292,1683.3c0-20.3,0.2-40.7-0.1-61c-0.2-11.6,4.8-15.5,16-16c12.6-0.5,25.3-0.1,38-0.1
		c24.1-0.1,42,15.4,45.7,38.2c3.1,18.6-3.2,33.8-21.9,45c-3.5,2.1-4.1,3.2-2.1,6.8c7.9,14.4,15.5,28.9,23.2,43.5
		c2.3,4.3,2.5,8.9-0.3,13.1c-2.8,4.2-6.8,5.8-12,5.2c-4-0.5-6.5-2.6-8.2-6c-8.1-15.4-16.2-30.7-24.3-46.1c-1.4-2.7-3.8-4.9-4.4-8.1
		c-0.4-2.1-2-1.9-3.5-1.9c-6.3,0-12.7,0.2-19-0.1c-3.3-0.1-3.8,1.2-3.8,4.1c0.1,15.2,0.2,30.3,0,45.5c-0.1,9.4-7.7,14.7-16.5,11.7
		c-5-1.7-6.9-5.6-6.9-10.7c0-0.3,0-0.7,0-1C1292,1724.7,1292,1704,1292,1683.3z M1315.4,1651c0,6,0,12,0,18c0,1.8,0.1,3.2,2.6,3.2
		c11-0.2,22,0.3,33-0.4c10.5-0.7,18.7-11.2,18-21.6c-0.7-10.9-9.9-20.1-20.4-20.2c-9.8-0.1-19.7,0.1-29.5-0.1
		c-2.8,0-3.8,0.6-3.7,3.6C1315.6,1639.3,1315.4,1645.2,1315.4,1651z"/>
	<path fill="#EF4025" d="M1187,1681.5c0-20.7,0-41.3,0-62c0-9.5,3.6-13.3,12.9-13.3c22.2-0.1,44.3-0.1,66.5,0
		c7.4,0,12.4,4.1,13.5,10.6c0.8,4.8-2.7,10.2-7.8,12.5c-2,0.9-3.9,0.8-5.9,0.8c-16.8,0-33.7,0.1-50.5-0.1c-3.7,0-5.2,0.6-5.1,4.8
		c0.3,10.7,0.2,21.3,0,32c-0.1,3.2,0.8,4.2,4.1,4.2c17.2-0.2,34.3-0.1,51.5-0.1c7.8,0,13.6,5,13.6,11.8c0.1,6.8-5.3,11.6-13.3,11.6
		c-17.2,0.1-34.3,0.1-51.5,0c-3.5,0-4.5,0.9-4.5,4.4c0.2,10.2,0.2,20.3,0,30.5c-0.1,3.8,0.7,5.1,4.8,5c16.7-0.3,33.3-0.1,50-0.1
		c7.6,0,11.2,2.3,13.5,8.4c2.6,6.7-2.8,15.3-10,15.3c-24,0.2-48,0.1-72,0c-6.1,0-10.1-4.7-10.1-11.4
		C1187,1724.8,1187,1703.2,1187,1681.5z"/>
	<path fill="#EF4025" d="M1458,1721.7c0-6.7-0.5-13.4,0.1-20c0.6-6.3-1.8-11-5.4-15.6c-15.1-19.6-30-39.3-45-58.9
		c-3-4-1.7-13.6,2.3-16.6c5-3.8,13.5-2.6,17.7,2.8c5.8,7.4,11.4,15,17,22.5c7.5,10,15.1,20,22.5,30c2.2,2.9,3.8,2.4,5.6-0.1
		c8-11.1,16.7-21.6,25.3-32.3c5.3-6.6,10-13.6,15.9-19.7c4.7-4.9,11.6-5,16.3-0.8c4.8,4.4,5.6,11.3,1.5,16.4
		c-11.9,15-23.9,30-35.8,45c-4.1,5.2-8.1,10.4-12.3,15.5c-1.7,2.1-2.1,4.3-2.1,6.9c0.1,16,0.1,32,0,48c0,9.1-4.4,13.3-13.3,13.3
		c-6.1-0.1-10.3-4.1-10.4-10.3C1457.9,1739,1458,1730.4,1458,1721.7C1458,1721.7,1458,1721.7,1458,1721.7z"/>
	<path fill="#23572E" d="M793.5,1800.1c0,7.8,0,15.6,0,23.3c0,1.3,0.9,3.4-1.5,3.5c-2.5,0.1-1.6-2.1-1.6-3.4c-0.1-8.5-0.1-17,0-25.5
		c0-1.5-1.2-3.9,2-4.1c2.3-0.1,4,0,5,2.8c2.4,6.7,5.1,13.4,7.6,20c0.3,0.8,0.5,1.6,1.7,2c2.5-6.7,5.1-13.3,7.3-20
		c0.4-1.3,1.1-2.3,1.7-3.4c1.1-2.4,3.5-1.3,5.3-1.3c2.1,0.1,1.2,2,1.2,3.2c0.1,8.7,0.1,17.3,0,26c0,1.3,1.2,3.7-1.7,3.7
		c-3.2,0.1-2.1-2.4-2.1-4c-0.1-6.2,0-12.3-0.1-18.5c0-0.9,0.4-2.2-1-2.4c-1.6-0.2-1,1.3-1.3,2.1c-2.4,6.4-4.7,12.8-7.3,19.2
		c-0.6,1.4-0.7,3.4-2.9,3.6c-2.4,0.2-1.9-2-2.4-3.1c-2.8-6.9-5.4-13.9-8.1-20.8C794.9,1802.1,795.5,1800.6,793.5,1800.1z"/>
	<path fill="#23572E" d="M929.7,1819.5c0,1.2,0.1,2.3,0,3.5c-0.1,1.6,0.8,3.7-0.6,4.7c-2,1.4-2.1-1.4-3.1-2.1
		c-1.2-0.9-1.7,0-2.5,0.5c-10.4,6-19-0.9-20.1-11.5c-0.6-5.7-0.8-11.4,3-16.3c3-3.9,7.1-5.6,11.8-5.1c4.4,0.5,8.5,2.2,9.9,7.3
		c0.3,0.9,2.1,1.9-0.1,2.6c-1,0.3-2.1,1.5-3.2-0.5c-2.1-4.1-5.8-6.3-10.3-5.2c-4.4,1.2-5.7,5.1-6.7,9.4c-1.1,4.4-0.2,8.2,1.3,12
		c2.2,5.5,9.2,7.3,13.4,3.4c1.8-1.6,3.3-3.6,2.6-6.4c-0.8-3.3-3.3-1.1-4.9-1.5c-1.5-0.4-3,0-2.9-2.3c0.1-2.1,1.6-1.7,2.8-1.8
		C929.7,1809.3,929.7,1809.3,929.7,1819.5z"/>
	<path fill="#23572E" d="M1479.7,1826.7c-3.3,1-4.8-0.1-5.7-3.1c-0.9-3-3-5.6-4.1-8.7c-1.4-3.8-5.2-1.5-7.9-1.9
		c-2.9-0.4-1.8,2.2-1.9,3.5c-0.2,2.8-0.1,5.7,0,8.5c0,1.1-0.2,1.9-1.6,1.9c-1.3,0-2.3-0.1-2.3-1.8c0-9.8,0-19.7,0-29.5
		c0-1.3,0.7-1.8,1.8-1.7c5.1,0.4,10.1-0.7,15.2,0.9c3.9,1.2,5.6,3.7,6.2,7.3c0.6,3.4-0.5,6.3-3.3,8.1c-2.2,1.4-2.4,2.4-1.3,4.6
		C1476.6,1818.7,1478,1822.7,1479.7,1826.7z M1465.8,1798c-1.6,0.5-4.8-1.2-5.5,1c-0.9,2.9-0.7,6.4,0.1,9.3c0.5,1.7,3.6,0.6,5.5,0.7
		c6.8,0.1,9.7-1.7,9.8-5.7C1475.8,1799.6,1472.9,1798,1465.8,1798z"/>
	<path fill="#23572E" d="M972.7,1826.7c-3,0.9-4.8,0.1-5.6-2.6c-0.9-3.3-3.1-5.9-4.3-9.2c-1.3-3.7-5.2-1.5-8-1.8
		c-2.9-0.3-1.7,2.2-1.8,3.6c-0.2,2.8-0.1,5.7,0,8.5c0,1.1-0.3,1.9-1.7,1.9c-1.3,0-2.3-0.1-2.3-1.8c0-9.8,0-19.7,0-29.5
		c0-1.3,0.7-1.8,1.9-1.7c5.1,0.4,10.2-0.7,15.2,0.9c3.9,1.2,5.5,3.7,6.2,7.3c0.6,3.4-0.5,6.4-3.4,8.1c-2.3,1.4-2.3,2.5-1.3,4.7
		C969.6,1818.8,971,1822.8,972.7,1826.7z M958.9,1798.1c-1.4,0.8-4.7-1.5-5.6,1c-0.9,2.7-0.9,6.1,0,8.8c0.7,2.3,3.8,1,5.8,1
		c6.7,0.2,10-1.8,9.6-5.8C968.1,1797.5,963.7,1797.9,958.9,1798.1z"/>
	<path fill="#23572E" d="M1135.7,1826.7c-3.1,1-4.8,0.1-5.7-2.9c-0.9-3.1-3-5.6-4.1-8.7c-1.5-4.1-5.5-1.8-8.3-2
		c-2.8-0.2-1.4,2.5-1.5,3.8c-0.2,2.6-0.1,5.3-0.1,8c0,1.4-0.4,2.1-2,2.1c-1.5,0-2-0.7-2-2.1c0-9.7,0-19.3,0-29c0-1.2,0.4-2,1.7-1.9
		c5.1,0.4,10.1-0.7,15.2,0.8c3.9,1.2,5.6,3.5,6.3,7.2c0.7,3.5-0.3,6.4-3.2,8.1c-2.6,1.5-2.4,2.8-1.3,5.1
		C1132.6,1818.9,1134,1822.7,1135.7,1826.7z M1122.3,1809.1c1.7-0.1,3.4,0.1,5-0.3c3.5-0.8,5.4-4.8,3.9-7.8
		c-1.3-2.5-12.7-4.5-14.7-2.6c-0.2,0.2-0.4,0.6-0.4,0.8c0,3-0.7,6.2,0.3,8.9C1117.1,1810.1,1120.3,1808.5,1122.3,1809.1z"/>
	<path fill="#23572E" d="M772.1,1810.6c0,6.8-1.8,13.3-8.3,16.1c-7.5,3.3-13.5,2.1-18.3-8.8c-2.2-5.2,0.5-16.8,4.3-21
		c6.3-7,16.9-3.7,20.4,3.7C771.7,1803.8,772.3,1807.1,772.1,1810.6z M768,1810.3c0.1-2.3,0-4.6-0.9-6.9c-1.6-3.9-4-6.4-8.5-6.4
		c-4.4,0-6.7,2.8-8,6.4c-2,5.3-1.9,10.8,0.8,15.9c1.5,2.9,3.9,4.9,7.6,4.7c3.6-0.1,5.8-2.1,7.4-5.1
		C767.7,1816.3,768.2,1813.3,768,1810.3z"/>
	<path fill="#23572E" d="M1015.1,1809.2c0,8.2-1.9,14.1-7.9,17.4c-7.8,4.3-17.7-0.5-18.9-9.6c-0.7-5.7-1.4-12,2.1-17.6
		c2.8-4.5,6.5-6.6,11.6-6.4c5.5,0.2,9.1,3.3,11.5,8.1C1014.9,1804.1,1015.3,1807.3,1015.1,1809.2z M1011,1810.2
		c0.4-3.2-0.3-6.4-2.1-9.3c-3-4.9-9.4-5.3-13.2-1.1c-4.5,5.1-4.6,16.3,0,21.4c3.7,4.2,9.6,3.9,12.8-0.8
		C1010.5,1817.4,1011.2,1814,1011,1810.2z"/>
	<path fill="#23572E" d="M1349.5,1819.6c0-7.5,0-15,0-22.4c0-1.3-0.7-3.3,1.9-3.2c2.1,0.1,1.5,1.9,1.5,3c0,8.7,0.1,17.3,0,26
		c0,1.3,1,3.3-1,3.8c-2,0.5-3.6,0.1-4.9-2.2c-4.5-8-9.3-15.9-14-23.8c-0.2-0.4-0.5-0.8-1.5-2c0,8.6,0.1,16.2-0.1,23.9
		c0,1.5,1.4,4.3-1.8,4.1c-2.6-0.1-1.4-2.6-1.5-4c-0.1-8.2-0.1-16.3,0-24.5c0-1.5-1.4-3.9,1.5-4.4c2.3-0.4,4,0.3,5.2,2.5
		c3.9,6.8,8,13.6,12,20.3C1347.6,1818,1348,1819.2,1349.5,1819.6z"/>
	<path fill="#23572E" d="M1376.5,1798.8c0,8.7,0.1,16.3-0.1,23.9c0,1.5,1.4,4.2-1.8,4.2c-2.7-0.1-1.5-2.6-1.5-3.9
		c-0.1-8.3-0.1-16.7,0-25c0-1.4-1.3-3.5,1.5-4c2.3-0.4,4,0.2,5.3,2.5c3.9,6.9,8,13.6,12,20.3c0.6,1.1,1.4,2,2.6,3.6
		c0-8.1-0.1-15.4,0-22.6c0-1.4-1.1-3.9,1.8-3.7c2.7,0.2,1.5,2.6,1.5,4c0.1,8.2,0.1,16.3,0,24.5c0,1.5,1.4,3.9-1.5,4.4
		c-2.2,0.4-3.5-0.6-4.7-2.6c-4.4-7.9-9.1-15.6-13.8-23.4C1377.7,1800.5,1377.4,1800.1,1376.5,1798.8z"/>
	<path fill="#23572E" d="M727,1810.6c0,4.7,0,9.3,0,14c0,1.5-0.1,2.5-2.1,2.5c-2,0-2.1-1.1-2.1-2.5c0-0.7,0-1.3,0-2
		c-0.1-11.9-0.1-11.8-12.1-11.6c-2.7,0-3.9,0.6-3.7,3.6c0.2,3.3,0,6.7,0.1,10c0,1.4,0,2.6-2,2.6c-1.9,0-2.1-1-2.1-2.5
		c0-9.3,0-18.6,0-28c0-1.4,0-2.6,2-2.6c2.1,0,1.9,1.3,1.9,2.6c0,0.3,0,0.7,0,1c0.4,3.1-1.4,8,0.8,8.9c3.8,1.5,8.5,0.5,12.8,0.5
		c1.4,0,1.4-1.1,1.4-2.1c0-1.2-0.3-2.5,0.1-3.5c1-2.4-2.7-7.3,2.6-7.2c4.8,0.2,1.8,4.8,2.3,7.4C727.4,1804.5,727,1807.6,727,1810.6z
		"/>
	<path fill="#23572E" d="M1417.1,1810.4c0-4.3,0.1-8.7,0-13c-0.1-2.5,0.5-3.6,3.2-3.5c5,0.2,10,0,15,0.1c1.2,0,2.7-0.4,2.8,1.8
		c0.1,2.3-1.2,2.3-2.8,2.3c-3.7,0-7.4,0.2-11-0.1c-4.5-0.4-3,2.7-3.2,4.9c-0.2,2.4-0.4,4.7,3.4,4.2c2.6-0.3,5.3,0,8-0.1
		c1.6,0,2.5,0.5,2.4,2.3c-0.1,1.7-1.2,1.8-2.4,1.8c-1.5,0-3,0-4.5,0c-6.9,0-6.6,0-7,6.6c-0.2,4.3,0.8,6,5.3,5.4
		c3.3-0.4,6.7-0.1,10-0.1c1.5,0,2.6,0.1,2.5,2.1c0,2.1-1.4,1.9-2.7,1.9c-5.3,0-10.7-0.1-16,0.1c-2.5,0.1-3.1-0.8-3-3.2
		C1417.2,1819.4,1417.1,1814.9,1417.1,1810.4z"/>
	<path fill="#23572E" d="M842.1,1810.3c0-4.3,0.2-8.7-0.1-13c-0.1-2.7,0.8-3.4,3.4-3.3c4.8,0.2,9.7,0,14.5,0.1
		c1.3,0,3.1-0.7,3.1,1.9c0.1,2.5-1.5,2.1-3,2.1c-3.8,0-7.7,0.1-11.5,0c-4-0.2-2.5,2.8-2.5,4.5c0,1.7-1.6,4.7,2.4,4.5
		c2.8-0.1,5.7,0,8.5,0c1.3,0,2.7-0.2,2.7,1.9c0.1,2-1,2.2-2.5,2.1c-0.8,0-1.7,0-2.5,0c-9.4,0-9.3,0-8.8,9.3c0.1,2.3,0.9,2.8,2.9,2.7
		c4-0.1,8,0,12,0c1.6,0,3-0.1,2.9,2.2c-0.1,2.1-1.6,1.8-2.8,1.8c-5.3,0-10.7-0.1-16,0.1c-2.7,0.1-2.9-1.2-2.9-3.3
		C842.2,1819.3,842.1,1814.8,842.1,1810.3z"/>
	<path fill="#23572E" d="M1074.1,1810.4c0-4.3,0.1-8.7,0-13c-0.1-2.5,0.4-3.6,3.2-3.5c5,0.2,10,0.1,15,0c1.6,0,2.9,0,2.8,2.3
		c-0.1,2.2-1.6,1.7-2.8,1.7c-3.8,0-7.7,0.2-11.5,0c-4.4-0.2-2.5,3-2.7,4.8c-0.2,1.9-1,4.6,2.8,4.2c2.8-0.3,5.7,0,8.5-0.1
		c1.6,0,2.5,0.4,2.4,2.2c-0.1,1.7-1.1,1.8-2.3,1.8c-1.7,0-3.3,0-5,0c-6.4,0-6.1,0-6.5,6.6c-0.2,4.2,0.7,6.1,5.3,5.4
		c3.3-0.4,6.7-0.1,10-0.1c1.4,0,2.6,0.1,2.6,2.1c0,2.1-1.3,1.9-2.7,1.9c-5.3,0-10.7-0.1-16,0.1c-2.5,0.1-3.1-0.8-3.1-3.2
		C1074.2,1819.4,1074.1,1814.9,1074.1,1810.4z"/>
	<path fill="#23572E" d="M1056.6,1803.6c-1.4,0.5-2.7,1-4.1,1.4c-1.9-7.5-5.4-8.5-9.3-7.9c-4.8,0.8-6.5,4.5-7.4,9.1
		c-0.7,3.5-0.6,6.8,0.2,10.2c0.9,3.6,2.9,6.8,6.8,7.5c3.9,0.7,6.9-1.1,8.8-4.7c0.8-1.4,1.2-4.3,3.9-2.1c1.4,1.1,0.2,2.6-0.3,4
		c-1.9,5.3-9.1,7.6-14,6.9c-4.5-0.6-10.2-7.4-10.2-12.7c0-4.5-1.1-9.1,1.1-13.5c3.4-6.7,7-9.2,13-8.8
		C1051.1,1793.4,1054.3,1796.4,1056.6,1803.6z"/>
	<path fill="#23572E" d="M1215.1,1810.1c0-2.7-0.2-5.3,0.1-8c0.2-2.7-1.3-5.8,1-8c1.8-1.7,15.6,0.3,17.6,2c3,2.7,4.7,5.8,3.5,10.1
		c-1.4,4.9-5,7.6-11,7.7c-7.2,0.1-7.2,0.1-7.2,7.3c0,1.2,0,2.3,0,3.5c0,1.2-0.1,2.2-1.8,2.2c-1.9,0-2.3-0.9-2.1-2.5
		c0-0.2,0-0.3,0-0.5C1215.1,1819.4,1215.1,1814.8,1215.1,1810.1z M1219.4,1803.7c-0.9,4.4-0.2,6.8,5.2,6.4c6.1-0.5,9.1-2,9.2-6
		c0.1-4.1-2.9-5.9-8.8-6.2C1220.3,1797.7,1217.9,1798.7,1219.4,1803.7z"/>
	<path fill="#23572E" d="M1286.8,1824.5c2.7-9.6,5.8-19.2,9.3-28.6c0.7-2,1.9-1.8,3.4-2c1.9-0.2,2.3,0.7,2.8,2.4
		c2.8,9.2,5.9,18.2,9,27.3c0.4,1.1,2,2.5-0.2,3.2c-1.6,0.5-3.4,0.2-3.9-2c0-0.2,0-0.4,0-0.5c-2.8-7.5-2.8-7.3-10.8-7.5
		c-3-0.1-4.5,0.9-5.1,3.6c-0.4,1.6-0.8,3.1-1.1,4.7c-0.3,1.5-1.2,2-2.5,1.6C1285.9,1826.5,1286.6,1825.4,1286.8,1824.5z
		 M1304.1,1812.8c-1.6-4.7-3.2-9.1-5.2-14.9c-1.9,5.7-3.3,10.2-4.9,14.9C1297.5,1812.8,1300.6,1812.8,1304.1,1812.8z"/>
	<path fill="#23572E" d="M1149.4,1794.3c3.7-1.3,5.7,0.3,7.1,3.7c1.3,2.9,3.4,5.5,4.9,8.4c1.3,2.3,2,2.2,3.1-0.1
		c1.6-3.2,3.3-6.3,5.2-9.3c1.2-1.8,2.5-4.1,5.6-2.5c-1.5,2.6-2.7,5.5-4.5,7.9c-4.9,6.5-7,13.7-6,21.8c0.2,1.5,0.3,3.1-2.1,3
		c-1.6-0.1-2.2-0.7-1.9-2.1C1163.2,1812.4,1154.4,1804.1,1149.4,1794.3z"/>
	<path fill="#23572E" d="M1254.3,1810c0-4.5,0-9,0-13.5c0-1.5,0.1-2.6,2.1-2.6c2.1,0,1.9,1.4,1.9,2.7c0,7.5,0.1,15-0.1,22.4
		c-0.1,3,0.6,4.3,3.8,4c3.1-0.3,6.3-0.1,9.5-0.1c1.4,0,2.6,0,2.6,2c0,2-1.3,2-2.6,2c-4.8,0-9.6-0.1-14.5,0c-2.4,0.1-2.7-1.1-2.6-3.1
		C1254.3,1819.3,1254.3,1814.7,1254.3,1810z"/>
	<path display="none" fill="#FFFFFF" d="M1508,1235.3c0,71.5,0,143,0.1,214.4c0,3.1-1.6,4.1-3.5,5.3c-19.8,12.5-40.7,22.8-62.6,30.9
		c-63.4,23.5-128.7,29.3-195.3,19.8c-28.9-4.1-57.1-11.7-84.2-22.8c-1.5-0.6-3.8-0.7-4-2.5c-0.2-1.7,2-2.5,3.3-3.4
		c48.7-34.4,82.9-79.9,103.4-135.8c7.2-19.8,12.6-40.2,14.4-61.1c9-104.5-24.6-191.6-106.7-258.6c-4-3.3-8.2-6.3-12.5-9.1
		c-3-1.9-3-3.4-1.2-6.3c19.4-30.1,38.6-60.2,57.9-90.3c20.3-31.7,40.6-63.3,60.7-95c1.8-2.8,3.6-4,7.1-4c30.2,0.2,60.3,0.2,90.5,0
		c3.5,0,5.3,1.2,7.1,4c41.1,64.4,82.2,128.7,123.4,192.9c1.6,2.6,2.1,5.1,2.1,8C1508,1093,1508,1164.1,1508,1235.3
		C1508,1235.3,1508,1235.3,1508,1235.3z"/>
	<path display="none" fill="#FFFFFF" d="M1329.3,792c-26,0-52-0.1-77.9,0.1c-3.5,0-4.4-0.8-4.4-4.3c0.2-16.3,0.2-32.6,0-49
		c0-3.1,0.8-3.8,3.9-3.8c52.5,0.1,104.9,0.1,157.4,0c3,0,3.9,0.7,3.9,3.8c-0.2,16.3-0.2,32.6,0,49c0,3.5-0.9,4.4-4.4,4.4
		C1381.6,791.9,1355.4,792,1329.3,792z"/>
	<path display="none" fill="#FFFFFF" d="M893.1,1681.7c0.1-28.3,23.6-51.6,52-51.6c28.3,0,51.9,23.9,51.6,52
		c-0.3,28.4-23.9,51.9-52.1,51.7C916.3,1733.5,893,1710,893.1,1681.7z"/>
	<path display="none" fill="#FFFFFF" d="M1315.4,1651c0-5.8,0.1-11.7-0.1-17.5c-0.1-2.9,1-3.6,3.7-3.6c9.8,0.1,19.7,0,29.5,0.1
		c10.5,0.1,19.7,9.3,20.4,20.2c0.7,10.4-7.5,20.8-18,21.6c-10.9,0.8-22,0.3-33,0.4c-2.5,0-2.6-1.4-2.6-3.2
		C1315.5,1663,1315.4,1657,1315.4,1651z"/>
	<path display="none" fill="#FFFFFF" d="M1465.8,1798c7.1,0,9.9,1.6,9.9,5.2c0,4-3,5.8-9.8,5.7c-1.9,0-5,1-5.5-0.7
		c-0.9-2.9-1-6.4-0.1-9.3C1461,1796.8,1464.2,1798.5,1465.8,1798z"/>
	<path display="none" fill="#FFFFFF" d="M958.9,1798.1c4.8-0.1,9.2-0.5,9.8,5.1c0.4,4-2.9,5.9-9.6,5.8c-2,0-5,1.3-5.8-1
		c-0.9-2.7-0.9-6.2,0-8.8C954.2,1796.5,957.5,1798.9,958.9,1798.1z"/>
	<path fill="#FFFFFF" d="M1122.3,1809.1c-2-0.5-5.2,1.1-5.9-0.9c-1-2.6-0.3-5.9-0.3-8.9c0-0.3,0.2-0.6,0.4-0.8
		c2-1.9,13.4,0.1,14.7,2.6c1.5,3-0.3,6.9-3.9,7.8C1125.7,1809.1,1124,1809,1122.3,1809.1z"/>
	<path display="none" fill="#FFFFFF" d="M768,1810.3c0.3,3.1-0.3,6-1.7,8.7c-1.5,3-3.7,4.9-7.4,5.1c-3.7,0.1-6.1-1.8-7.6-4.7
		c-2.7-5.1-2.8-10.6-0.8-15.9c1.3-3.6,3.6-6.4,8-6.4c4.5,0,6.9,2.5,8.5,6.4C767.9,1805.7,768,1807.9,768,1810.3z"/>
	<path display="none" fill="#FFFFFF" d="M1011,1810.2c0.2,3.8-0.5,7.2-2.5,10.2c-3.2,4.7-9.1,5-12.8,0.8c-4.5-5.1-4.5-16.3,0-21.4
		c3.8-4.2,10.1-3.8,13.2,1.1C1010.6,1803.8,1011.3,1807,1011,1810.2z"/>
	<path display="none" fill="#FFFFFF" d="M1219.4,1803.7c-1.5-5,0.9-6.1,5.5-5.8c6,0.4,8.9,2.1,8.8,6.2c-0.1,4-3.1,5.4-9.2,6
		C1219.2,1810.6,1218.5,1808.1,1219.4,1803.7z"/>
	<path display="none" fill="#FFFFFF" d="M1304.1,1812.8c-3.5,0-6.6,0-10,0c1.5-4.7,3-9.1,4.9-14.9
		C1300.9,1803.7,1302.5,1808.1,1304.1,1812.8z"/>
</g>
</svg>
