<?xml version="1.0" encoding="utf-8"?>
<!-- Generator: Adobe Illustrator 18.0.0, SVG Export Plug-In . SVG Version: 6.00 Build 0)  -->
<!DOCTYPE svg PUBLIC "-//W3C//DTD SVG 1.1//EN" "http://www.w3.org/Graphics/SVG/1.1/DTD/svg11.dtd">
<svg version="1.1" id="Layer_1" xmlns="http://www.w3.org/2000/svg" xmlns:xlink="http://www.w3.org/1999/xlink" x="0px" y="0px"
	 viewBox="0 0 30 30" enable-background="new 0 0 30 30" xml:space="preserve">
<g>
	<path fill="#A7A9AC" d="M21.9,1.3l-3.5,0c-4,0-6.6,2.6-6.6,6.7v3.1H8.2c-0.3,0-0.6,0.3-0.6,0.6v4.5c0,0.3,0.3,0.6,0.6,0.6h3.6v11.4
		c0,0.3,0.2,0.6,0.6,0.6H17c0.3,0,0.6-0.3,0.6-0.6V16.8h4.2c0.3,0,0.6-0.2,0.6-0.6l0-4.5c0-0.1-0.1-0.3-0.2-0.4
		c-0.1-0.1-0.2-0.2-0.4-0.2h-4.2V8.5c0-1.3,0.3-1.9,2-1.9l2.4,0c0.3,0,0.6-0.3,0.6-0.6V1.9C22.5,1.6,22.2,1.3,21.9,1.3z"/>
</g>
</svg>
