<?xml version="1.0" encoding="utf-8"?>
<!-- Generator: Adobe Illustrator 18.0.0, SVG Export Plug-In . SVG Version: 6.00 Build 0)  -->
<!DOCTYPE svg PUBLIC "-//W3C//DTD SVG 1.1//EN" "http://www.w3.org/Graphics/SVG/1.1/DTD/svg11.dtd">
<svg version="1.1" id="Layer_1" xmlns="http://www.w3.org/2000/svg" xmlns:xlink="http://www.w3.org/1999/xlink" x="0px" y="0px"
	 viewBox="0 0 30 30" enable-background="new 0 0 30 30" xml:space="preserve">
<g>
	<path fill="#A7A9AC" d="M21.5,1h-13c-4.4,0-8,3.4-8,7.7v12.5c0,4.2,3.6,7.7,8,7.7h13c4.4,0,8-3.4,8-7.7V8.7C29.5,4.4,25.9,1,21.5,1
		z M26.9,21.1c0,2.9-2.4,5.2-5.4,5.2h-13c-3,0-5.4-2.3-5.4-5.2V8.7c0-2.9,2.4-5.2,5.4-5.2h13c3,0,5.4,2.3,5.4,5.2L26.9,21.1
		L26.9,21.1z"/>
	<path fill="#A7A9AC" d="M15,7.7c-4.1,0-7.5,3.2-7.5,7.2c0,4,3.3,7.2,7.5,7.2s7.5-3.2,7.5-7.2C22.5,11,19.1,7.7,15,7.7z M15,19.6
		c-2.7,0-4.9-2.1-4.9-4.7c0-2.6,2.2-4.7,4.9-4.7s4.9,2.1,4.9,4.7C19.9,17.5,17.7,19.6,15,19.6z"/>
	<path fill="#A7A9AC" d="M22.8,5.6c-0.5,0-1,0.2-1.3,0.5c-0.4,0.3-0.6,0.8-0.6,1.3c0,0.5,0.2,0.9,0.6,1.3c0.3,0.3,0.8,0.5,1.3,0.5
		c0.5,0,1-0.2,1.3-0.5c0.4-0.3,0.6-0.8,0.6-1.3c0-0.5-0.2-0.9-0.6-1.3C23.8,5.8,23.3,5.6,22.8,5.6z"/>
</g>
</svg>
