<?xml version="1.0" encoding="utf-8"?>
<!-- Generator: Adobe Illustrator 18.0.0, SVG Export Plug-In . SVG Version: 6.00 Build 0)  -->
<!DOCTYPE svg PUBLIC "-//W3C//DTD SVG 1.1//EN" "http://www.w3.org/Graphics/SVG/1.1/DTD/svg11.dtd">
<svg version="1.1" id="Layer_1" xmlns="http://www.w3.org/2000/svg" xmlns:xlink="http://www.w3.org/1999/xlink" x="0px" y="0px"
	 viewBox="0 0 30 30" enable-background="new 0 0 30 30" xml:space="preserve">
<g>
	<g>
		<path fill="#EF4025" stroke="#EF4025" stroke-miterlimit="10" d="M23,20c-0.1,0-0.2,0-0.3-0.1l-4.8-4.5c-0.2-0.2-0.2-0.4,0-0.6
			c0.2-0.2,0.4-0.2,0.6,0l4.8,4.5c0.2,0.2,0.2,0.4,0,0.6C23.2,19.9,23.1,20,23,20z"/>
		<path fill="#EF4025" stroke="#EF4025" stroke-miterlimit="10" d="M7,20c-0.1,0-0.2,0-0.3-0.1c-0.2-0.2-0.1-0.4,0-0.6l4.8-4.5
			c0.2-0.2,0.4-0.1,0.6,0c0.2,0.2,0.1,0.4,0,0.6l-4.8,4.5C7.2,19.9,7.1,20,7,20z"/>
	</g>
	<path fill="#EF4025" stroke="#EF4025" stroke-miterlimit="10" d="M25.8,24.1H4.2c-1.1,0-2.1-0.9-2.1-2.1V7.9c0-1.1,0.9-2.1,2.1-2.1
		h21.6c1.1,0,2.1,0.9,2.1,2.1v14.1C27.9,23.2,26.9,24.1,25.8,24.1z M4.2,6.7C3.5,6.7,3,7.2,3,7.9v14.1c0,0.7,0.6,1.2,1.2,1.2h21.6
		c0.7,0,1.2-0.6,1.2-1.2V7.9c0-0.7-0.6-1.2-1.2-1.2H4.2z"/>
	<path fill="#EF4025" stroke="#EF4025" stroke-miterlimit="10" d="M15,17.1c-0.6,0-1.1-0.2-1.5-0.5L2.8,7.2c-0.2-0.2-0.2-0.4,0-0.6
		c0.2-0.2,0.4-0.2,0.6,0L14,15.9c0.5,0.5,1.4,0.5,2,0l10.6-9.3c0.2-0.2,0.4-0.1,0.6,0c0.2,0.2,0.1,0.4,0,0.6l-10.6,9.3
		C16.1,16.9,15.6,17.1,15,17.1z"/>
</g>
</svg>
