<?xml version="1.0" encoding="utf-8"?>
<!-- Generator: Adobe Illustrator 18.0.0, SVG Export Plug-In . SVG Version: 6.00 Build 0)  -->
<!DOCTYPE svg PUBLIC "-//W3C//DTD SVG 1.1//EN" "http://www.w3.org/Graphics/SVG/1.1/DTD/svg11.dtd">
<svg version="1.1" id="Layer_1" xmlns="http://www.w3.org/2000/svg" xmlns:xlink="http://www.w3.org/1999/xlink" x="0px" y="0px"
	 viewBox="0 0 30 30" enable-background="new 0 0 30 30" xml:space="preserve">
<path fill="#EF4025" stroke="#EF4025" stroke-miterlimit="10" d="M20.9,0.9H9.1C7.9,0.9,7,1.8,7,2.9v24.1c0,1.1,0.9,2.1,2.1,2.1
	h11.9c1.1,0,2.1-0.9,2.1-2.1V2.9C23,1.8,22.1,0.9,20.9,0.9z M7.9,4.6h14.1v17.9H7.9V4.6z M9.1,1.8h11.9c0.6,0,1.1,0.5,1.1,1.1v0.8
	H7.9V2.9C7.9,2.3,8.4,1.8,9.1,1.8z M20.9,28.2H9.1c-0.6,0-1.1-0.5-1.1-1.1v-3.6h14.1v3.6C22.1,27.7,21.6,28.2,20.9,28.2z"/>
<path fill="#EF4025" stroke="#EF4025" stroke-miterlimit="10" d="M15.3,24.6c-0.6,0-1.2,0.5-1.2,1.2s0.5,1.2,1.2,1.2
	c0.6,0,1.2-0.5,1.2-1.2S16,24.6,15.3,24.6z M15.3,26.4c-0.3,0-0.6-0.3-0.6-0.6c0-0.3,0.3-0.6,0.6-0.6c0.3,0,0.6,0.3,0.6,0.6
	C15.9,26.1,15.7,26.4,15.3,26.4z"/>
<path fill="#EF4025" d="M13,3.1h1.5c0.2,0,0.4-0.2,0.4-0.4c0-0.2-0.2-0.4-0.4-0.4H13c-0.2,0-0.4,0.2-0.4,0.4C12.6,3,12.8,3.1,13,3.1
	z"/>
<path fill="#EF4025" d="M15.7,3.1H16c0.2,0,0.4-0.2,0.4-0.4c0-0.2-0.2-0.4-0.4-0.4h-0.4c-0.2,0-0.4,0.2-0.4,0.4
	C15.3,3,15.5,3.1,15.7,3.1z"/>
<circle fill="#FFFFFF" cx="15.3" cy="25.8" r="0.7"/>
</svg>
