<?xml version="1.0" encoding="utf-8"?>
<!-- Generator: Adobe Illustrator 18.0.0, SVG Export Plug-In . SVG Version: 6.00 Build 0)  -->
<!DOCTYPE svg PUBLIC "-//W3C//DTD SVG 1.1//EN" "http://www.w3.org/Graphics/SVG/1.1/DTD/svg11.dtd">
<svg version="1.1" id="Layer_1" xmlns="http://www.w3.org/2000/svg" xmlns:xlink="http://www.w3.org/1999/xlink" x="0px" y="0px"
	 viewBox="0 0 30 30" enable-background="new 0 0 30 30" xml:space="preserve">
<g>
	<g>
		<path fill="#EF4025" stroke="#EF4025" stroke-miterlimit="10" d="M15.3,1.2c-5.2,0-9.4,4.2-9.4,9.4c0,2.1,1.2,5.2,3.8,9.9
			c1.8,3.2,3.6,5.9,3.6,6l1.3,2c0.1,0.2,0.3,0.3,0.6,0.3s0.5-0.1,0.6-0.3l1.3-2c0.1-0.1,1.8-2.8,3.6-6c2.6-4.7,3.8-7.9,3.8-9.9
			C24.6,5.4,20.4,1.2,15.3,1.2z M19.6,19.8C17.8,23,16,25.6,16,25.8l-0.7,1.1l-0.7-1.1c-0.1-0.1-1.8-2.8-3.6-5.9
			c-2.4-4.4-3.7-7.5-3.7-9.2c0-4.4,3.6-8,8-8s8,3.6,8,8C23.2,12.3,22,15.5,19.6,19.8z"/>
		<path fill="#EF4025" stroke="#EF4025" stroke-miterlimit="10" d="M15.3,5.3c-2.9,0-5.2,2.3-5.2,5.2s2.3,5.2,5.2,5.2
			s5.2-2.3,5.2-5.2S18.1,5.3,15.3,5.3z M15.3,14.3c-2.1,0-3.8-1.7-3.8-3.8s1.7-3.8,3.8-3.8c2.1,0,3.8,1.7,3.8,3.8
			S17.4,14.3,15.3,14.3z"/>
	</g>
</g>
</svg>
