<?xml version="1.0" encoding="utf-8"?>
<!-- Generator: Adobe Illustrator 18.0.0, SVG Export Plug-In . SVG Version: 6.00 Build 0)  -->
<!DOCTYPE svg PUBLIC "-//W3C//DTD SVG 1.1//EN" "http://www.w3.org/Graphics/SVG/1.1/DTD/svg11.dtd">
<svg version="1.1" id="Layer_1" xmlns="http://www.w3.org/2000/svg" xmlns:xlink="http://www.w3.org/1999/xlink" x="0px" y="0px"
	 viewBox="0 0 30 30" enable-background="new 0 0 30 30" xml:space="preserve">
<g>
	<path fill="#A7A9AC" d="M29.1,14.1C28.6,7,23,1.4,15.9,0.9v0H15h-0.9v0C7,1.4,1.4,7,0.9,14.1h0V15v0.9h0C1.4,23,7,28.6,14.1,29.1v0
		H15h0.9v0c7-0.5,12.7-6.1,13.1-13.1h0V15L29.1,14.1L29.1,14.1z M9.7,4C8.8,5.2,8.1,6.7,7.5,8.4H4.7C5.9,6.5,7.7,5,9.7,4z M3.7,10.3
		H7c-0.3,1.2-0.4,2.5-0.5,3.8H2.8C2.9,12.7,3.2,11.5,3.7,10.3z M2.8,15.9h3.7c0.1,1.3,0.2,2.6,0.5,3.8H3.7
		C3.2,18.5,2.9,17.3,2.8,15.9z M4.7,21.6h2.8c0.5,1.7,1.3,3.2,2.2,4.4C7.7,25,5.9,23.5,4.7,21.6z M14.1,27.1
		c-1.9-0.5-3.6-2.6-4.6-5.5h4.6V27.1z M14.1,19.7H8.9c-0.3-1.2-0.4-2.4-0.5-3.8h5.6V19.7z M14.1,14.1H8.4c0.1-1.3,0.2-2.6,0.5-3.8
		h5.1V14.1z M14.1,8.4H9.4c1-2.9,2.7-5,4.6-5.5V8.4z M25.3,8.4h-2.8c-0.6-1.7-1.3-3.2-2.2-4.4C22.3,5,24.1,6.5,25.3,8.4z M15.9,2.9
		c1.9,0.5,3.6,2.6,4.6,5.5h-4.6V2.9z M15.9,10.3h5.1c0.3,1.2,0.4,2.4,0.5,3.8h-5.6V10.3z M15.9,15.9h5.6c-0.1,1.3-0.2,2.6-0.5,3.8
		h-5.1V15.9z M15.9,27.1v-5.5h4.6C19.5,24.5,17.9,26.6,15.9,27.1z M20.3,26c0.9-1.2,1.7-2.7,2.2-4.4h2.8C24.1,23.5,22.3,25,20.3,26z
		 M26.3,19.7H23c0.3-1.2,0.4-2.5,0.5-3.8h3.7C27.1,17.3,26.8,18.5,26.3,19.7z M23.4,14.1c-0.1-1.3-0.2-2.6-0.5-3.8h3.3
		c0.5,1.2,0.8,2.4,0.9,3.8H23.4z"/>
</g>
</svg>
