<?xml version="1.0" encoding="utf-8"?>
<!-- Generator: Adobe Illustrator 18.0.0, SVG Export Plug-In . SVG Version: 6.00 Build 0)  -->
<!DOCTYPE svg PUBLIC "-//W3C//DTD SVG 1.1//EN" "http://www.w3.org/Graphics/SVG/1.1/DTD/svg11.dtd">
<svg version="1.1" id="Layer_1" xmlns="http://www.w3.org/2000/svg" xmlns:xlink="http://www.w3.org/1999/xlink" x="0px" y="0px"
	 viewBox="0 0 281 500" enable-background="new 0 0 281 500" xml:space="preserve">
<rect x="0.5" y="0" fill="#EC4224" width="280.8" height="44.4"/>
<g>
	<path fill="#FFFFFF" d="M29.8,29.1H18.3c-0.5,0-0.9-0.4-0.9-0.8s0.4-0.8,0.9-0.8h11.6c0.5,0,0.9,0.4,0.9,0.8S30.3,29.1,29.8,29.1z"
		/>
	<path fill="#FFFFFF" d="M29.8,23.8H18.3c-0.5,0-0.9-0.4-0.9-0.8s0.4-0.8,0.9-0.8h11.6c0.5,0,0.9,0.4,0.9,0.8
		C30.7,23.4,30.3,23.8,29.8,23.8z"/>
	<path fill="#FFFFFF" d="M29.8,18.4H18.3c-0.5,0-0.9-0.4-0.9-0.8s0.4-0.8,0.9-0.8h11.6c0.5,0,0.9,0.4,0.9,0.8S30.3,18.4,29.8,18.4z"
		/>
	<ellipse fill="#FFFFFF" cx="14.6" cy="17.7" rx="1.2" ry="1.1"/>
	<ellipse fill="#FFFFFF" cx="14.6" cy="22.9" rx="1.2" ry="1.1"/>
	<ellipse fill="#FFFFFF" cx="14.6" cy="28.2" rx="1.2" ry="1.1"/>
</g>
<g>
	<path fill="#FFFFFF" stroke="#FFFFFF" stroke-miterlimit="10" d="M264.6,16.1h-7.3v13.2h10.6v-10L264.6,16.1z M264.7,16.8l2.4,2.3
		h-2.4V16.8z M257.7,28.9V16.5h6.5v3.1h3.2v9.3C267.4,28.9,257.7,28.9,257.7,28.9z"/>
	<path fill="#FFFFFF" stroke="#FFFFFF" stroke-miterlimit="10" d="M266.1,20.7h-3.6c-0.1,0-0.2,0.1-0.2,0.2s0.1,0.2,0.2,0.2h3.6
		c0.1,0,0.2-0.1,0.2-0.2C266.3,20.8,266.2,20.7,266.1,20.7z"/>
	<path fill="#FFFFFF" stroke="#FFFFFF" stroke-miterlimit="10" d="M260.7,20.1l-1,0.8l-0.3-0.3c-0.1-0.1-0.2-0.1-0.3,0
		c-0.1,0.1-0.1,0.2,0,0.3l0.5,0.4c0,0,0.1,0.1,0.2,0.1h0.1l1.1-0.9c0.1-0.1,0.1-0.2,0-0.3C261,20,260.8,20,260.7,20.1z"/>
	<path fill="#FFFFFF" stroke="#FFFFFF" stroke-miterlimit="10" d="M266.1,23.1h-3.6c-0.1,0-0.2,0.1-0.2,0.2s0.1,0.2,0.2,0.2h3.6
		c0.1,0,0.2-0.1,0.2-0.2C266.3,23.2,266.2,23.1,266.1,23.1z"/>
	<path fill="#FFFFFF" stroke="#FFFFFF" stroke-miterlimit="10" d="M260.7,22.5l-1,0.8l-0.3-0.3c-0.1-0.1-0.2-0.1-0.3,0
		c-0.1,0.1-0.1,0.2,0,0.3l0.5,0.4c0,0,0.1,0.1,0.2,0.1h0.1l1.1-0.9c0.1-0.1,0.1-0.2,0-0.3C261,22.5,260.8,22.5,260.7,22.5z"/>
	<path fill="#FFFFFF" stroke="#FFFFFF" stroke-miterlimit="10" d="M266.1,25.6h-3.6c-0.1,0-0.2,0.1-0.2,0.2s0.1,0.2,0.2,0.2h3.6
		c0.1,0,0.2-0.1,0.2-0.2C266.3,25.7,266.2,25.6,266.1,25.6z"/>
	<path fill="#FFFFFF" stroke="#FFFFFF" stroke-miterlimit="10" d="M260.7,25l-1,0.8l-0.3-0.3c-0.1-0.1-0.2-0.1-0.3,0
		c-0.1,0.1-0.1,0.2,0,0.3l0.5,0.4c0,0,0.1,0.1,0.2,0.1h0.1l1.1-0.9c0.1-0.1,0.1-0.2,0-0.3C261,24.9,260.8,24.9,260.7,25z"/>
</g>
<g>
	<g id="Search">
		<g>
			<path fill="#FFFFFF" d="M232.9,16.2c-2.8,0-5,2.2-5,4.9c0,1.1,0.4,2.2,1.1,3l-4.2,4.2c-0.1,0.1-0.2,0.3-0.2,0.4
				c0,0.2,0.1,0.3,0.2,0.4c0.1,0.1,0.3,0.2,0.4,0.2s0.3-0.1,0.4-0.2l4.2-4.2c0.9,0.7,1.9,1,3.1,1c2.8,0,5-2.2,5-4.9
				S235.6,16.2,232.9,16.2z M232.9,24.8c-2.1,0-3.8-1.7-3.8-3.7s1.7-3.7,3.8-3.7s3.8,1.7,3.8,3.7S234.9,24.8,232.9,24.8z"/>
		</g>
	</g>
</g>
<g>
	<g id="filter">
		<path fill="#FFFFFF" d="M194.3,29.4h2.2c0.6,0,1.1-0.5,1.1-1.1l0,0c0-0.6-0.5-1.1-1.1-1.1h-2.2c-0.6,0-1.1,0.5-1.1,1.1l0,0
			C193.2,28.9,193.7,29.4,194.3,29.4z M185.5,17.6L185.5,17.6c0,0.6,0.5,1.1,1.1,1.1h17.6c0.6,0,1.1-0.5,1.1-1.1l0,0
			c0-0.6-0.5-1.1-1.1-1.1h-17.6C186,16.5,185.5,17,185.5,17.6z M189.9,24h11c0.6,0,1.1-0.5,1.1-1.1l0,0c0-0.6-0.5-1.1-1.1-1.1h-11
			c-0.6,0-1.1,0.5-1.1,1.1l0,0C188.8,23.5,189.3,24,189.9,24z"/>
	</g>
</g>
<rect x="43.7" y="19" fill="none" width="90.4" height="20.3"/>
<text transform="matrix(1.0204 0 0 1 43.7397 27.0845)" fill="#FFFFFF" font-family="'MyriadPro-Regular'" font-size="11.3327">Other Marts</text>
<g>
	<rect x="19.1" y="480.7" fill="none" width="101.9" height="16.3"/>
	<text transform="matrix(1.0219 0 0 1 19.0537 488.459)" fill="#FFFFFF" font-family="'MyriadPro-Regular'" font-size="10.8794">Actual Bill                200</text>
	<rect x="138.1" y="480.7" fill="none" width="124.1" height="16.3"/>
	<text transform="matrix(1.0219 0 0 1 148.748 488.459)" fill="#FFFFFF" font-family="'MyriadPro-Regular'" font-size="10.8794">Suggested Bill             150</text>
	<rect x="0.5" y="474.2" fill="#23572D" width="280.5" height="25.8"/>
	<rect x="74.9" y="483.7" fill="none" width="124.1" height="16.3"/>
	<text transform="matrix(1.0219 0 0 1 74.8579 491.4053)" fill="#FFFFFF" font-family="'MyriadPro-Bold'" font-size="10.8794">Total Bill                       2000</text>
</g>
<image overflow="visible" enable-background="new    " width="195" height="195" xlink:href="../icons/qne-logo-5ECE7F6E68-seeklogo.com.png"  transform="matrix(0.3433 0 0 0.3364 10.8688 96.4577)">
</image>
<image overflow="visible" enable-background="new    " width="2861" height="552" xlink:href="../icons/o_69831245819981.png"  transform="matrix(2.281930e-002 0 0 2.236398e-002 11.6937 199.6275)">
</image>
<image overflow="visible" enable-background="new    " width="300" height="300" xlink:href="../icons/logo-1458610184.png"  transform="matrix(0.2182 0 0 0.2138 10.8688 252.9465)">
</image>
<image overflow="visible" enable-background="new    " width="639" height="297" xlink:href="../icons/imtiaz.JPG"  transform="matrix(0.104 0 0 0.1019 11.4612 351.9394)">
</image>
<text transform="matrix(1.0204 0 0 1 122.165 136.6729)" fill="#23572D" font-family="'MyriadPro-Regular'" font-size="16.9991">RS 1800</text>
<text transform="matrix(1.0204 0 0 1 122.165 207.6147)" fill="#23572D" font-family="'MyriadPro-Regular'" font-size="16.9991">RS 1850</text>
<text transform="matrix(1.0204 0 0 1 122.165 285.585)" fill="#23572D" font-family="'MyriadPro-Regular'" font-size="16.9991">RS 1700</text>
<text transform="matrix(1.0204 0 0 1 122.165 365.1396)" fill="#23572D" font-family="'MyriadPro-Regular'" font-size="16.9991">RS 1650</text>
<text transform="matrix(1.0204 0 0 1 11.9185 80.1177)" fill="#23572D" font-family="'MyriadPro-Bold'" font-size="16.3191">STORES               PRICES              ORDER</text>
<path display="none" fill="#EC4224" d="M258.6,143.1h-40.9c-6,0-10.8-4.9-10.8-10.8v-0.2c0-6,4.9-10.8,10.8-10.8h40.9
	c6,0,10.8,4.9,10.8,10.8v0.2C269.5,138.2,264.6,143.1,258.6,143.1z"/>
<path display="none" fill="#EC4224" d="M258.3,216.7h-40.9c-6,0-10.8-4.9-10.8-10.8v-0.2c0-6,4.9-10.8,10.8-10.8h40.9
	c6,0,10.8,4.9,10.8,10.8v0.2C269.2,211.8,264.3,216.7,258.3,216.7z"/>
<path display="none" fill="#EC4224" d="M258.6,296.5h-40.9c-6,0-10.8-4.9-10.8-10.8v-0.2c0-6,4.9-10.8,10.8-10.8h40.9
	c6,0,10.8,4.9,10.8,10.8v0.2C269.5,291.6,264.6,296.5,258.6,296.5z"/>
<path display="none" fill="#23572D" d="M258.3,373.8h-40.9c-6,0-10.8-4.9-10.8-10.8v-0.2c0-6,4.9-10.8,10.8-10.8h40.9
	c6,0,10.8,4.9,10.8,10.8v0.2C269.2,368.9,264.3,373.8,258.3,373.8z"/>
<text transform="matrix(1.0204 0 0 1 220.2988 137.7637)" fill="#FFFFFF" font-family="'MyriadPro-Regular'" font-size="16.3191">Place</text>
<text transform="matrix(1.0204 0 0 1 220.0029 211.3979)" fill="#FFFFFF" font-family="'MyriadPro-Regular'" font-size="16.3191">Place</text>
<text transform="matrix(1.0204 0 0 1 220.0029 290.9883)" fill="#FFFFFF" font-family="'MyriadPro-Regular'" font-size="16.3191">Place</text>
<text transform="matrix(1.0204 0 0 1 220.0029 367.9854)" fill="#FFFFFF" font-family="'MyriadPro-Regular'" font-size="16.3191">Place</text>
<g display="none">
	<path display="inline" fill="#FFFFFF" stroke="#000000" stroke-miterlimit="10" d="M230.9,356.3H42.7c-6.6,0-12-5.4-12-12V148.7
		c0-6.6,5.4-12,12-12h188.2c6.6,0,12,5.4,12,12v195.6C242.9,350.9,237.5,356.3,230.9,356.3z"/>
	
		<image display="inline" overflow="visible" enable-background="new    " width="639" height="297" xlink:href="../icons/imtiaz.JPG"  transform="matrix(0.104 0 0 0.1019 104.6847 159.8202)">
	</image>
	
		<text transform="matrix(1.0204 0 0 1 62.1553 236.2573)" display="inline" fill="#23572D" font-family="'MyriadPro-Bold'" font-size="16.3191">Do You Want To Place </text>
	
		<text transform="matrix(1.0204 0 0 1 62.1553 255.8574)" display="inline" fill="#23572D" font-family="'MyriadPro-Bold'" font-size="16.3191">Order To Imtiaz Super </text>
	
		<text transform="matrix(1.0204 0 0 1 62.1553 275.457)" display="inline" fill="#23572D" font-family="'MyriadPro-Bold'" font-size="16.3191">Mart?</text>
	<path display="inline" fill="#23572D" d="M113.9,328H73c-6,0-10.8-4.9-10.8-10.8V317c0-6,4.9-10.8,10.8-10.8h40.9
		c6,0,10.8,4.9,10.8,10.8v0.2C124.7,323.1,119.8,328,113.9,328z"/>
	
		<text transform="matrix(1.0204 0 0 1 83.2261 322.2227)" display="inline" fill="#FFFFFF" font-family="'MyriadPro-Regular'" font-size="16.3191">YES</text>
	<path display="inline" fill="#EC4224" d="M201.4,328h-40.9c-6,0-10.8-4.9-10.8-10.8V317c0-6,4.9-10.8,10.8-10.8h40.9
		c6,0,10.8,4.9,10.8,10.8v0.2C212.2,323.1,207.3,328,201.4,328z"/>
	
		<text transform="matrix(1.0204 0 0 1 171.1563 322.2227)" display="inline" fill="#FFFFFF" font-family="'MyriadPro-Regular'" font-size="16.3191">NO</text>
</g>
<g>
	<path fill="#23572D" d="M266.1,371.6h-56.5c-1.7,0-3-1.3-3-3v-15.8c0-1.7,1.3-3,3-3h56.5c1.7,0,3,1.3,3,3v15.8
		C269.1,370.2,267.8,371.6,266.1,371.6z"/>
	<path fill="#EC4224" d="M266.1,293.9h-56.5c-1.7,0-3-1.3-3-3v-15.8c0-1.7,1.3-3,3-3h56.5c1.7,0,3,1.3,3,3v15.8
		C269.1,292.5,267.8,293.9,266.1,293.9z"/>
	<path fill="#EC4224" d="M266.1,214.6h-56.5c-1.7,0-3-1.3-3-3v-15.8c0-1.7,1.3-3,3-3h56.5c1.7,0,3,1.3,3,3v15.8
		C269.1,213.3,267.8,214.6,266.1,214.6z"/>
	<path fill="#EC4224" d="M266.1,142.1h-56.5c-1.7,0-3-1.3-3-3v-15.8c0-1.7,1.3-3,3-3h56.5c1.7,0,3,1.3,3,3v15.8
		C269.1,140.8,267.8,142.1,266.1,142.1z"/>
	<text transform="matrix(1.0204 0 0 1 219.2496 135.7)" fill="#FFFFFF" font-family="'MyriadPro-Regular'" font-size="16.3191">Place</text>
	<text transform="matrix(1.0204 0 0 1 218.9537 209.3343)" fill="#FFFFFF" font-family="'MyriadPro-Regular'" font-size="16.3191">Place</text>
	<text transform="matrix(1.0204 0 0 1 218.9537 288.9246)" fill="#FFFFFF" font-family="'MyriadPro-Regular'" font-size="16.3191">Place</text>
	<text transform="matrix(1.0204 0 0 1 218.9537 365.9217)" fill="#FFFFFF" font-family="'MyriadPro-Regular'" font-size="16.3191">Place</text>
</g>
</svg>
