<?xml version="1.0" encoding="utf-8"?>
<!-- Generator: Adobe Illustrator 18.0.0, SVG Export Plug-In . SVG Version: 6.00 Build 0)  -->
<!DOCTYPE svg PUBLIC "-//W3C//DTD SVG 1.1//EN" "http://www.w3.org/Graphics/SVG/1.1/DTD/svg11.dtd">
<svg version="1.1" id="Layer_1" xmlns="http://www.w3.org/2000/svg" xmlns:xlink="http://www.w3.org/1999/xlink" x="0px" y="0px"
	 viewBox="0 0 281 500" enable-background="new 0 0 281 500" xml:space="preserve">
<g display="none">
	<rect y="44.5" display="inline" fill="#191919" width="215.9" height="456.3"/>
	<ellipse display="inline" fill="#A7A9AC" stroke="#000000" stroke-miterlimit="10" cx="25.6" cy="66.6" rx="14.4" ry="14.1"/>
	<rect x="52" y="64.8" display="inline" fill="none" width="61.4" height="20.4"/>
	
		<text transform="matrix(1.0243 0 0 1 51.978 72.8296)" display="inline" fill="#FFFFFF" font-family="'MyriadPro-Regular'" font-size="11.3618">Name</text>
	<g display="inline">
		<g>
			<g>
				<path fill="#FFFFFF" stroke="#FFFFFF" stroke-miterlimit="10" d="M33.6,128.1l-7.5-5.4c-0.1-0.1-0.3-0.1-0.5,0l-7.5,5.4
					c-0.2,0.1-0.2,0.4-0.1,0.6s0.4,0.2,0.6,0.1l7.3-5.2l7.3,5.2c0.1,0.1,0.2,0.1,0.2,0.1c0.1,0,0.3-0.1,0.3-0.2
					C33.9,128.5,33.8,128.2,33.6,128.1z"/>
			</g>
		</g>
		<g>
			<g>
				<path fill="#FFFFFF" stroke="#FFFFFF" stroke-miterlimit="10" d="M31.6,128.8c-0.2,0-0.4,0.2-0.4,0.4v6.4h-3.3v-3
					c0-1.1-0.9-2.5-2.1-2.5c-1.1,0-2.1,0.9-2.1,2v3.5h-3.3v-6.4c0-0.2-0.2-0.4-0.4-0.4s-0.4,0.2-0.4,0.4v6.8c0,0.2,0.2,0.4,0.4,0.4
					h4.1c0.2,0,0.4-0.2,0.4-0.4l0,0v-3.9c0-0.7,0.6-1.2,1.2-1.2c0.7,0,1.2,0.5,1.2,1.2v3.9l0,0c0,0.2,0.2,0.4,0.4,0.4h4.1
					c0.2,0,0.4-0.2,0.4-0.4v-6.8C32.1,129,31.9,128.8,31.6,128.8z"/>
			</g>
		</g>
	</g>
	<rect x="52" y="126.4" display="inline" fill="none" width="61.4" height="20.4"/>
	
		<text transform="matrix(1.0243 0 0 1 51.978 134.4873)" display="inline" fill="#FFFFFF" font-family="'MyriadPro-Regular'" font-size="11.3618">Home</text>
	<path id="XMLID_544_" display="inline" fill="#FFFFFF" d="M30.1,166.9c0.1,0.1,0,0.3-0.1,0.4l-0.3,0.2h-0.1c-0.1,0-0.2,0-0.2-0.1
		c-0.1-0.1,0-0.3,0.1-0.4l0.3-0.2C29.9,166.8,30.1,166.8,30.1,166.9z M30,165.8l-0.3-0.2c-0.1-0.1-0.3,0-0.4,0.1s0,0.3,0.1,0.4
		l0.3,0.2h0.1c0.1,0,0.2,0,0.2-0.1C30.2,166.1,30.2,165.9,30,165.8z M27.1,169.3c-1.4,0.7-3.1,0.9-4.6,0.5c1.2,0,2.4-0.4,3.4-0.9
		c0.2-0.1,0.4-0.2,0.6-0.4c0.1-0.1,0.2-0.3,0.1-0.4c-0.1-0.1-0.3-0.2-0.4-0.1c-0.2,0.1-0.4,0.2-0.6,0.3c-1.1,0.6-2.3,0.9-3.5,0.9
		c1-0.5,1.9-1.3,2.7-2.1c0.9-1,1.5-2.1,1.9-3.4c0.4-1.3,0.5-2.6,0.3-3.9c-0.1-0.9-0.4-1.8-0.8-2.6c0,0,0-0.1-0.1-0.1l-1.4-1.1v-0.1
		l0.3-0.3l0.1,0.1c0.1,0.1,0.3,0.1,0.4,0s0.1-0.3,0-0.4l-0.1-0.1l0.3-0.3h0.1l1.2,1.6l0.1,0.1c1.4,0.6,2.5,1.7,3.2,3
		c0.4,0.7,0.7,1.5,0.8,2.2c0,0.1,0.2,0.2,0.3,0.2c0.2,0,0.3-0.2,0.2-0.3c-0.1-0.8-0.4-1.7-0.9-2.4c-0.8-1.4-2-2.5-3.4-3.2l-1.1-1.5
		c-0.1-0.1-0.2-0.2-0.4-0.2c-0.2,0-0.4,0-0.5,0.2l-1,0.9c-0.1,0.1-0.2,0.3-0.2,0.5s0.1,0.3,0.2,0.4l1.4,1.1c0.4,0.8,0.6,1.6,0.7,2.4
		c0,0.1,0,0.2,0,0.3c-0.2,0.3-0.4,0.7-0.6,1c-0.6,0.9-1.4,1.7-2.4,2.3s-2,1.4-3.1,1.5s-2.3-0.4-3.3-0.7c-0.1,0-0.3,0-0.4,0
		c-0.1,0.1-0.2,0.2-0.3,0.3c-0.1,0.2,0,0.3,0.1,0.5l0.1,0.2l0,0c1,1.5,2.5,2.6,4.3,3c0.1,0,0.3,0.1,0.5,0.1s0.3-0.1,0.3-0.2
		c0-0.1-0.1-0.3-0.2-0.3s-0.3,0-0.4-0.1c-1.4-0.3-2.7-1.1-3.6-2.2c0.8,0.6,1.7,1,2.7,1.2c1.3,0.3,2.6,0.2,3.8-0.2
		c0.1,0,0.2-0.2,0.2-0.3s-0.2-0.2-0.4-0.2c-1.1,0.4-2.3,0.4-3.5,0.2c-1-0.2-1.9-0.7-2.7-1.3c1,0.2,2,0.3,3,0.1
		c1.2-0.2,2.3-0.5,3.3-1.2c1-0.6,1.9-1.4,2.6-2.4c0.1-0.1,0.1-0.2,0.2-0.3c0,0.8-0.1,1.5-0.4,2.3c-0.4,1.2-1,2.3-1.8,3.2
		s-1.9,1.7-3,2.2c-0.1,0.1-0.3,0.2-0.3,0.3c-0.1,0.1,0,0.3,0,0.4c0.1,0.2,0.2,0.3,0.4,0.3l0.3,0.1c0.7,0.2,1.4,0.3,2.1,0.3
		c1.1,0,2.3-0.2,3.3-0.7c0.1-0.1,0.2-0.2,0.1-0.4C27.5,169.3,27.3,169.2,27.1,169.3z M28.6,158.7c-0.1,0.1-0.2,0.2-0.1,0.4
		c0.5,0.9,0.8,2,0.9,3c0,0.1,0.1,0.3,0.3,0.3l0,0c0.2,0,0.3-0.1,0.3-0.3c-0.1-1.1-0.4-2.3-0.9-3.3C28.9,158.6,28.7,158.6,28.6,158.7
		z M30.8,167.3c-0.2,0-0.3,0.1-0.3,0.3v0.4c0,0.1,0.1,0.3,0.3,0.3s0.3-0.1,0.3-0.3v-0.4C31.1,167.4,31,167.3,30.8,167.3z M32.2,167
		l-0.3-0.2c-0.1-0.1-0.3,0-0.4,0.1s0,0.3,0.1,0.4l0.3,0.2H32c0.1,0,0.2,0,0.2-0.1C32.3,167.3,32.3,167.1,32.2,167z M33.6,166.6
		c0,1.5-1.2,2.7-2.8,2.7c-1.5,0-2.8-1.2-2.8-2.7s1.2-2.7,2.8-2.7C32.3,163.9,33.6,165.1,33.6,166.6z M33,166.6c0-1.2-1-2.2-2.2-2.2
		s-2.2,1-2.2,2.2s1,2.2,2.2,2.2C32,168.7,33,167.8,33,166.6z M30.8,164.9c-0.2,0-0.3,0.1-0.3,0.3v0.4c0,0.1,0.1,0.3,0.3,0.3
		s0.3-0.1,0.3-0.3v-0.4C31.1,165,31,164.9,30.8,164.9z M34.9,166.6c0,2.2-1.8,4-4.1,4c-2.2,0-4.1-1.8-4.1-4s1.8-4,4.1-4
		C33,162.6,34.9,164.4,34.9,166.6z M34.3,166.6c0-1.9-1.6-3.4-3.5-3.4c-1.9,0-3.5,1.5-3.5,3.4s1.6,3.4,3.5,3.4
		C32.7,170,34.3,168.5,34.3,166.6z M31.9,165.6l-0.3,0.2c-0.1,0.1-0.2,0.2-0.1,0.4c0.1,0.1,0.1,0.1,0.2,0.1h0.1l0.3-0.2
		c0.1-0.1,0.2-0.2,0.1-0.4S32,165.6,31.9,165.6z"/>
	<rect x="0.1" y="144.6" display="inline" fill="#FFFFFF" width="215.8" height="1.2"/>
	<rect x="52" y="159.4" display="inline" fill="none" width="61.4" height="19.9"/>
	
		<text transform="matrix(1.0243 0 0 1 51.978 167.437)" display="inline" fill="#FFFFFF" font-family="'MyriadPro-Regular'" font-size="11.3618">Fresh</text>
	<path id="XMLID_27_" display="inline" fill="#FFFFFF" d="M29.8,182.4L29.8,182.4L29.8,182.4L29.8,182.4l-0.9-2.6v-1.3
		c0-0.1-0.1-0.3-0.3-0.3h-6c-0.2,0-0.3,0.1-0.3,0.3v1.3l-0.9,2.5v0.1l0,0l0,0l0,0l0,0l0,0l0,0l0,0v8.1l0,0v3.5
		c0,0.1,0.1,0.3,0.3,0.3h7.9c0.2,0,0.3-0.1,0.3-0.3v-4.5l0,0v-7.1C29.8,182.4,29.8,182.4,29.8,182.4L29.8,182.4L29.8,182.4
		L29.8,182.4L29.8,182.4z M22.8,178.9h5.5v0.8h-5.5V178.9z M22.7,180.2h5.6l0.7,2h-7L22.7,180.2z M21.9,182.7h4.2v0.3
		c0,0.6-0.4,1.1-1,1.2c-0.1,0-0.2,0.1-0.2,0.3v0.2c0,0.7-0.6,1.3-1.3,1.3h-1.7L21.9,182.7L21.9,182.7z M26,193.8h-4.1v-3.1
		c0.2-0.1,0.4-0.2,0.6-0.2h0.7c0.5,0,1,0.4,1.1,0.9c0,0.1,0.1,0.2,0.3,0.2h0.2c0.6,0,1.2,0.5,1.2,1.1L26,193.8L26,193.8z
		 M29.2,189.3h-1.7c-0.5,0-0.8-0.4-0.8-0.8V188c0-0.4,0.3-0.7,0.6-0.8c0.1,0,0.2-0.1,0.2-0.3v-0.2c0-0.4,0.4-0.8,0.8-0.8h0.8v3.4
		H29.2z M29.2,185.4l-0.8,0.5c-0.7,0-1.4,0.1-1.4,0.9c-0.5,0.2-0.8,0.7-0.8,1.2v0.5c0,0.7,0.6,1.3,1.4,1.3h1.7v4h-2.7v-1.1
		c0-0.9-0.8-1.7-1.7-1.7l0,0c-0.3-0.6-0.9-1.1-1.6-1.1h-0.7c-0.2,0-0.4,0-0.6,0.1v-3.5h1.7c1,0,1.9-0.8,1.9-1.8l0,0
		c0.7-0.3,1.2-0.9,1.2-1.7v-0.3h2.6L29.2,185.4L29.2,185.4z"/>
	<rect x="52" y="182.3" display="inline" fill="none" width="61.4" height="20.4"/>
	
		<text transform="matrix(1.0243 0 0 1 51.978 190.3882)" display="inline" fill="#FFFFFF" font-family="'MyriadPro-Regular'" font-size="11.3618">Milk</text>
	<path id="XMLID_168_" display="inline" fill="#FFFFFF" d="M25.3,212.1c0,0,0.1,0,0.2,0s0.1,0,0.2,0c0.5-0.3,0.8-0.9,0.8-1.5
		s-0.3-1.2-0.8-1.5c-0.1-0.1-0.2-0.1-0.3,0c-0.5,0.3-0.8,0.9-0.8,1.5C24.5,211.2,24.8,211.8,25.3,212.1z M25.4,209.7
		c0.3,0.2,0.4,0.6,0.4,0.9c0,0.4-0.2,0.7-0.4,0.9c-0.3-0.2-0.4-0.6-0.4-0.9S25.2,209.9,25.4,209.7z M29.7,219.1
		c0,0.2-0.1,0.3-0.3,0.3H25c-0.1,0-0.2,0-0.2-0.1c-0.1-0.1-0.1-0.2,0-0.3l1.8-4.7c0.7-1.8,1.7-2.9,2.7-2.9s2,1,2.7,2.9v0.1
		c0.1,0.1,0,0.3-0.2,0.4c-0.1,0.1-0.3,0-0.4-0.2v-0.1c-0.6-1.6-1.4-2.5-2.2-2.5s-1.6,0.9-2.2,2.5l-1.7,4.4h4
		C29.6,218.8,29.7,218.9,29.7,219.1z M19.8,214.1c-0.4-1-0.2-2,0.4-2.9c0.1-0.1,0.2-0.1,0.3-0.1c0.9,0.2,1.7,0.8,2.1,1.6
		c0.1,0.1,0,0.3-0.1,0.4s-0.3,0-0.4-0.1c-0.3-0.6-0.9-1.1-1.5-1.3c-0.4,0.7-0.5,1.5-0.2,2.2c0.2,0.6,0.6,1,1.2,1.3
		c-0.2-0.4-0.3-0.9-0.4-1.3l0,0c0-0.2,0.1-0.3,0.2-0.3c0.2,0,0.3,0.1,0.3,0.2c0.1,0.8,0.5,1.5,0.9,2.1c0.1,0.1,0.1,0.3-0.1,0.4
		c-0.1,0-0.1,0.1-0.2,0.1s-0.2,0-0.2-0.1c-0.1-0.1-0.1-0.2-0.2-0.2C20.9,215.7,20.1,215,19.8,214.1z M24,218.8h-0.3v-10
		c0-0.6,0.4-1.1,1-1.3c0.1,0,0.2-0.1,0.2-0.3v-1.8h1v1.8c0,0.1,0.1,0.2,0.2,0.3c0.6,0.1,1,0.7,1,1.3v2.6c0,0.2,0.1,0.3,0.3,0.3
		s0.3-0.1,0.3-0.3v-2.6c0-0.8-0.5-1.5-1.2-1.8v-1.6c0.1-0.1,0.1-0.1,0.1-0.2v-2c0-0.2-0.1-0.3-0.3-0.3h-1.8c-0.2,0-0.3,0.1-0.3,0.3
		v2c0,0.1,0,0.2,0.1,0.2v1.6c-0.7,0.3-1.2,1-1.2,1.8v10.3c0,0.2,0.1,0.3,0.3,0.3H24c0.2,0,0.3-0.1,0.3-0.3
		C24.2,218.9,24.1,218.8,24,218.8z M24.8,203.5H26v1.4h-1.2V203.5z M30.7,214c0.2,0,0.3,0.1,0.3,0.3s-0.1,0.3-0.3,0.3h-0.1
		c-0.2,0-0.3-0.1-0.3-0.3C30.3,214.2,30.5,214,30.7,214L30.7,214z M22.3,216.8c-0.2,0-0.4,0-0.6,0c-0.8-0.6-1.9-0.8-2.8-0.5
		c-1,0.3-1.8,1.1-2,2.1c0,0.1,0,0.2,0.1,0.3c0.6,0.4,1.2,0.7,1.9,0.7c0.3,0,0.6,0,1-0.1c0.9-0.3,1.7-1,2-1.9c0.1,0,0.3,0,0.4,0
		c0.2,0,0.3-0.1,0.3-0.2S22.5,216.8,22.3,216.8z M19.7,218.7c-0.8,0.2-1.6,0.1-2.2-0.3c0.3-0.7,0.9-1.3,1.6-1.5
		c0.5-0.2,1.1-0.2,1.6,0c-0.2,0-0.4,0.1-0.7,0.2l0,0l0,0c-0.1,0-0.2,0.2-0.2,0.3s0.2,0.2,0.3,0.2c0.3-0.1,0.7-0.2,1-0.2
		C20.9,218,20.4,218.5,19.7,218.7z M30.2,217.4c0,0.2-0.1,0.3-0.3,0.3h-0.1c-0.2,0-0.3-0.1-0.3-0.3s0.1-0.3,0.3-0.3H30
		C30.1,217.1,30.2,217.2,30.2,217.4z M33.5,218.1c0,0.2-0.1,0.3-0.3,0.3h-0.1c-0.2,0-0.3-0.1-0.3-0.3s0.1-0.3,0.3-0.3h0.1
		C33.4,217.8,33.5,217.9,33.5,218.1z M28.4,214.3c0,0.2-0.1,0.3-0.3,0.3H28c-0.2,0-0.3,0.3-0.3,0.2c0-0.2,0.1-0.7,0.3-0.7h0.1
		C28.3,214,28.4,214.2,28.4,214.3z M34.9,219l-0.9-2.3c-0.5-1.2-1-1.5-1.4-1.5s-1,0.3-1.4,1.5l-0.9,2.3c0,0.1,0,0.2,0,0.3
		c0.1,0.1,0.1,0.1,0.2,0.1h4.1c0.1,0,0.2,0,0.2-0.1C34.9,219.2,34.9,219.1,34.9,219z M30.9,218.8l0.7-1.9c0.3-0.7,0.6-1.1,0.9-1.1
		s0.6,0.4,0.9,1.1l0.7,1.9H30.9z M28.5,215.5c0-0.2,0.1-0.3,0.3-0.3h0.1c0.2,0,0.3,0.1,0.3,0.3s-0.1,0.3-0.3,0.3h-0.1
		C28.7,215.7,28.5,215.6,28.5,215.5z M28.5,213.3c0-0.2,0.1-0.3,0.3-0.3h0.1c0.2,0,0.3,0.1,0.3,0.3s-0.1,0.3-0.3,0.3h-0.1
		C28.7,213.5,28.5,213.4,28.5,213.3z M29.4,214.6c-0.2,0-0.3-0.1-0.3-0.3s0.1-0.3,0.3-0.3h0.1c0.2,0,0.3,0.1,0.3,0.3
		C29.7,214.5,29.6,214.6,29.4,214.6L29.4,214.6z M29.9,213.5c-0.2,0-0.3-0.1-0.3-0.3s0.1-0.3,0.3-0.3H30c0.2,0,0.3,0.1,0.3,0.3
		S30.1,213.5,29.9,213.5L29.9,213.5z"/>
	<rect x="52.4" y="206.4" display="inline" fill="none" width="61.4" height="20.4"/>
	
		<text transform="matrix(1.0243 0 0 1 52.4434 214.4746)" display="inline" fill="#FFFFFF" font-family="'MyriadPro-Regular'" font-size="11.3618">Spices</text>
	<g display="inline">
		<path id="XMLID_1410_" fill="#FFFFFF" d="M21,331.1c-0.1-0.1-0.1-0.3,0-0.4s0.3-0.1,0.4,0c0.2,0.2,0.4,0.4,0.7,0.5
			c0.2,0.1,0.2,0.2,0.2,0.4c0,0.1-0.2,0.2-0.3,0.2h-0.1C21.6,331.6,21.2,331.4,21,331.1z M24.4,324.6c-0.1-0.1-0.3-0.1-0.4,0
			c-0.3,0.4-0.8,0.6-1.3,0.6s-0.9-0.2-1.3-0.6c-0.1-0.1-0.3-0.1-0.4,0s-0.1,0.3,0,0.4c0.4,0.5,1.1,0.8,1.7,0.8s1.3-0.3,1.7-0.8
			C24.5,324.9,24.5,324.7,24.4,324.6z M24.4,328c0.1-0.1,0.1-0.3,0-0.4s-0.3-0.1-0.4,0c-0.3,0.4-0.8,0.6-1.3,0.6s-0.9-0.2-1.3-0.6
			c-0.1-0.1-0.3-0.1-0.4,0s-0.1,0.3,0,0.4c0.4,0.5,1.1,0.8,1.7,0.8C23.3,328.8,24,328.5,24.4,328z M22.4,334.9
			C22.4,335,22.4,335,22.4,334.9c0.2,0,0.3-0.1,0.3-0.3c0-0.2-0.1-0.3-0.3-0.3c-0.4,0-0.8-0.2-1.1-0.6c-0.1-0.1-0.3-0.1-0.4,0
			s-0.1,0.3,0,0.4C21.3,334.6,21.9,334.9,22.4,334.9z M23.2,337.8c-0.2,0-0.3,0-0.5,0c-1.3,0-2.4-1-2.4-2.3V324
			c0-1.3,1.1-2.3,2.4-2.3s2.4,1,2.4,2.3v4.5c0,0.2,0.1,0.3,0.3,0.3s0.3-0.1,0.3-0.3V324c0-1.6-1.3-2.9-3-2.9s-3,1.3-3,2.9v11.5
			c0,1.6,1.3,2.9,3,2.9c0.2,0,0.4,0,0.6-0.1c0.2,0,0.3-0.2,0.2-0.3C23.5,337.8,23.3,337.7,23.2,337.8z M34.2,327.8h-7.7
			c-0.2,0-0.3,0.1-0.3,0.3c0,0.2,0.1,0.3,0.3,0.3h7.7c0.1,0,0.2,0.1,0.2,0.2v0.7c0,0.1-0.1,0.2-0.2,0.2H34c-0.2,0-0.3,0.1-0.3,0.3
			v5.7c0,0.4-0.3,0.8-0.8,0.8c-0.2,0-0.3,0.1-0.3,0.3c0,0.2,0.1,0.3,0.3,0.3c0.8,0,1.4-0.6,1.4-1.3V330c0.4,0,0.7-0.4,0.7-0.7v-0.7
			C35,328.2,34.6,327.8,34.2,327.8z M27.4,331.3c-0.2,0-0.3,0.1-0.3,0.3v0.1c0,0.2,0.1,0.3,0.3,0.3s0.3-0.1,0.3-0.3v-0.1
			C27.7,331.4,27.5,331.3,27.4,331.3z M25.9,332.7c-0.2,0-0.3,0.1-0.3,0.3v0.1c0,0.2,0.1,0.3,0.3,0.3s0.3-0.1,0.3-0.3V333
			C26.2,332.8,26.1,332.7,25.9,332.7z M32.7,330.9c0,0.4-0.3,0.7-0.7,0.7v5.4c0,0.7-0.6,1.3-1.4,1.3h-5.4c-0.8,0-1.4-0.6-1.4-1.3
			v-5.4c-0.4,0-0.7-0.4-0.7-0.7v-0.7c0-0.4,0.3-0.8,0.8-0.8h7.9c0.4,0,0.8,0.3,0.8,0.8v0.7H32.7z M32.1,330.2c0-0.1-0.1-0.2-0.2-0.2
			H24c-0.1,0-0.2,0.1-0.2,0.2v0.7c0,0.1,0.1,0.2,0.2,0.2h0.2c0.2,0,0.3,0.1,0.3,0.3v5.7c0,0.4,0.3,0.8,0.8,0.8h5.4
			c0.4,0,0.8-0.3,0.8-0.8v-5.7c0-0.2,0.1-0.3,0.3-0.3H32c0.1,0,0.2-0.1,0.2-0.2L32.1,330.2L32.1,330.2z M25.9,331.3
			c-0.2,0-0.3,0.1-0.3,0.3v0.1c0,0.2,0.1,0.3,0.3,0.3s0.3,0.3,0.3,0.2v-0.5C26.2,331.4,26.1,331.3,25.9,331.3z"/>
		<rect x="52.4" y="325.9" fill="none" width="61.4" height="20.4"/>
		<text transform="matrix(1.0243 0 0 1 52.4434 334.001)" fill="#FFFFFF" font-family="'MyriadPro-Regular'" font-size="11.3618">Bread</text>
		<path id="XMLID_1230_" fill="#FFFFFF" d="M22.2,358.7c-0.2,0-0.3-0.1-0.3-0.3c0-0.2,0.1-0.3,0.3-0.3h0.1c0.2,0,0.3,0.1,0.3,0.3
			S22.5,358.7,22.2,358.7L22.2,358.7z M27.5,358.3c-0.1,0-0.3,0.1-0.3,0.2c-0.1,0.3-0.2,0.6-0.2,0.9c0,0.1,0,0.2,0,0.4
			c0,0.2,0.2,0.3,0.3,0.2c0.2,0,0.3-0.2,0.3-0.3c0-0.1,0-0.2,0-0.3c0-0.2,0-0.3,0.1-0.5c0.2,0,0.4,0,0.6,0c1.5,0,2.9-0.5,3.6-1.4
			c0,0.1,0,0.2,0,0.3c-0.1,0.3-0.2,0.5-0.5,0.6c-0.1,0.1-0.2,0.3-0.1,0.4s0.3,0.2,0.4,0.1c0.4-0.2,0.6-0.6,0.7-1
			c0-0.2,0.1-0.3,0-0.5c0.7,0.5,1.2,1.2,1.2,1.9c0,0.1,0,0.2,0,0.3c0,0.2,0.1,0.3,0.3,0.3l0,0c0.1,0,0.3-0.1,0.3-0.3
			c0-0.1,0-0.2,0-0.4c0-1.2-0.9-1.8-2.2-2.3c-0.1,0-0.3-0.5-0.4-0.3c-0.6,0.9-2,1.6-3.5,1.6C27.9,358.4,27.7,358.3,27.5,358.3z
			 M24.4,356.6c0.2,0,0.3-0.1,0.3-0.3c0-0.2-0.1-0.3-0.3-0.3c-0.1,0-0.3,0-0.4,0c-2.4,0-4.3,1.9-4.3,4.2v1.9c0,0.2,0.1,0.3,0.3,0.3
			h3.3c0.2,0,0.3-0.1,0.3-0.3s-0.1-0.3-0.3-0.3h-3v-1.6c0-2,1.7-3.6,3.7-3.6C24.2,356.5,24.3,356.5,24.4,356.6z M21.4,359.3
			c-0.2,0-0.3,0.1-0.3,0.3c0,0.2,0.1,0.3,0.3,0.3h0.1c0.2,0,0.3-0.1,0.3-0.3S21.7,359.3,21.4,359.3L21.4,359.3z M23.8,363.2H19V350
			h2.3c0.2,0,0.3-0.1,0.3-0.3c0-0.2-0.1-0.3-0.3-0.3H19v-0.9h10.2v0.9h-2.3c-0.2,0-0.3,0.1-0.3,0.3c0,0.2,0.1,0.3,0.3,0.3h2.3v5.6
			c0,0.2,0.1,0.3,0.3,0.3c0.2,0,0.3-0.1,0.3-0.3v-7.4c0-0.2-0.1-0.3-0.3-0.3H18.7c-0.2,0-0.3,0.1-0.3,0.3v15.3
			c0,0.2,0.1,0.3,0.3,0.3h5.1c0.2,0,0.3-0.1,0.3-0.3S23.9,363.2,23.8,363.2z M25.7,354.8c-0.2,0-0.3,0.1-0.3,0.3s0.1,0.3,0.3,0.3
			h0.1c0.2,0,0.3-0.1,0.3-0.3S25.9,354.8,25.7,354.8L25.7,354.8z M27.6,356.1c0.1,0.2,0.2,0.2,0.4,0.2c0.2-0.1,0.2-0.2,0.2-0.4
			c-0.6-1.7-2.2-2.8-4.1-2.8c-2.4,0-4.3,1.9-4.3,4.2c0,0.2,0.1,0.3,0.3,0.3s0.3-0.1,0.3-0.3c0-2,1.7-3.6,3.7-3.6
			C25.7,353.7,27.1,354.7,27.6,356.1z M22.2,361.1L22.2,361.1c0.2,0,0.4-0.1,0.4-0.3c0-0.2-0.1-0.3-0.3-0.3h-0.1
			c-0.2,0-0.3,0.1-0.3,0.3C21.9,361,22.1,361.1,22.2,361.1z M22.5,355.4c0.2,0,0.3-0.1,0.3-0.3s-0.1-0.3-0.3-0.3h-0.1
			c-0.2,0-0.3,0.1-0.3,0.3S22.3,355.4,22.5,355.4L22.5,355.4z M36.2,358.8v1.8c0,0.5-0.2,0.9-0.5,1.2l-0.3,2.3
			c-0.1,0.7-0.7,1.2-1.4,1.2h-7.9c-0.7,0-1.3-0.5-1.4-1.2l-0.3-2.3c-0.3-0.3-0.5-0.8-0.5-1.2v-1.8c0-1.1,0.9-1.9,2-1.9h3.8
			c0.2,0,0.3,0.1,0.3,0.3s-0.1,0.3-0.3,0.3H26c-0.7,0-1.4,0.6-1.4,1.3v0.5c0,0.7,0.6,1.3,1.4,1.3h8.3c0.7,0,1.4-0.6,1.4-1.3v-0.5
			c0-0.7-0.6-1.3-1.4-1.3c-0.2,0-0.3-0.1-0.3-0.3s0.1-0.3,0.3-0.3C35.4,356.9,36.2,357.8,36.2,358.8z M35.1,362.4
			c-0.3,0.1-0.5,0.2-0.8,0.2H26c-0.3,0-0.6-0.1-0.8-0.2l0.2,1.7c0,0.4,0.4,0.7,0.8,0.7h7.9c0.4,0,0.7-0.3,0.8-0.7L35.1,362.4z
			 M35.6,360.7c-0.4,0.3-0.8,0.5-1.4,0.5H26c-0.5,0-1-0.2-1.4-0.5c0,0.3,0.1,0.6,0.3,0.8l0,0c0.2,0.3,0.6,0.4,1,0.4h8.3
			c0.4,0,0.7-0.2,1-0.4l0,0C35.5,361.3,35.6,361,35.6,360.7z M25.7,352.6c0.2,0,0.3-0.1,0.3-0.3s-0.1-0.3-0.3-0.3h-0.1
			c-0.2,0-0.3,0.1-0.3,0.3S25.5,352.6,25.7,352.6L25.7,352.6z M28.4,354.4c0-2.3-1.9-4.2-4.3-4.2s-4.3,1.9-4.3,4.2
			c0,0.2,0.1,0.3,0.3,0.3c0.2,0,0.3-0.1,0.3-0.3c0-2,1.7-3.6,3.7-3.6s3.7,1.6,3.7,3.6c0,0.2,0.1,0.7,0.3,0.7
			C28.3,355.1,28.4,354.5,28.4,354.4z M24.1,354.9c0.2,0,0.3-0.1,0.3-0.3c0-0.2-0.1-0.3-0.3-0.3H24c-0.2,0-0.3,0.1-0.3,0.3
			S23.9,354.9,24.1,354.9L24.1,354.9z M24.1,351.9c0.2,0,0.3-0.1,0.3-0.3c0-0.2-0.1-0.3-0.3-0.3H24c-0.2,0-0.3,0.1-0.3,0.3
			S23.9,351.9,24.1,351.9L24.1,351.9z M22.5,352.6c0.2,0,0.3-0.1,0.3-0.3s-0.1-0.3-0.3-0.3h-0.1c-0.2,0-0.3,0.1-0.3,0.3
			S22.3,352.6,22.5,352.6L22.5,352.6z"/>
		<rect x="52.4" y="352.7" fill="none" width="61.4" height="20.4"/>
		<text transform="matrix(1.0243 0 0 1 52.4434 360.8145)" fill="#FFFFFF" font-family="'MyriadPro-Regular'" font-size="11.3618">Cheese</text>
		<path id="XMLID_30_" fill="#FFFFFF" d="M26.9,379c0,0.2-0.1,0.3-0.3,0.3h-0.1c-0.2,0-0.3-0.1-0.3-0.3s0.1-0.3,0.3-0.3h0.1
			C26.8,378.7,26.9,378.9,26.9,379z M27.7,392.4c0,0.2-0.1,0.3-0.3,0.3h-1.1c-0.8,0-1.4-0.5-1.7-1.1h-2c-0.2,0-0.3-0.1-0.3-0.3
			s0.1-0.3,0.3-0.3h1.9c0,0,0,0,0-0.1v-5.6h-0.1c-0.2,0-0.3-0.1-0.3-0.3v-1.5c0-0.2,0.1-0.3,0.3-0.3h8.3c0.2,0,0.3,0.1,0.3,0.3v1.5
			c0,0.2-0.1,0.3-0.3,0.3h-0.1v1.9c0,0.2-0.1,0.3-0.3,0.3s-0.3-0.1-0.3-0.3v-1.9h-7v5.6c0,0.2,0,0.3,0,0.3c0.1,0.5,0.6,0.9,1.2,0.9
			h1.1C27.6,392.1,27.7,392.2,27.7,392.4z M32.3,384.7v-0.9l-7.7,0.5v0.4H32.3z M26.6,380.1L26.6,380.1c-0.3,0-0.4,0.1-0.4,0.3
			s0.1,0.3,0.3,0.3h0.1c0.2,0,0.3-0.1,0.3-0.3S26.8,380.1,26.6,380.1z M18.2,385.8L18.2,385.8c0.2,0,0.3-0.1,0.3-0.3l0.2-7.8h7.7
			c0.2,0,0.3-0.1,0.3-0.3s-0.1-0.3-0.3-0.3h-7.7v-1.3c0-0.1,0.1-0.1,0.1-0.1h8.5c0.1,0,0.1,0.1,0.1,0.1l0.2,6.2
			c0,0.2,0.1,0.3,0.3,0.3c0.2,0,0.3-0.1,0.3-0.3l-0.2-6.2c0-0.4-0.3-0.7-0.7-0.7h-8.5c-0.4,0-0.7,0.3-0.7,0.7l-0.3,9.7
			C17.9,385.6,18,385.8,18.2,385.8z M21.6,388.6v2.1c0,1.3-1.1,2.4-2.4,2.4c-1.4,0-2.5-1.1-2.5-2.4v-2.1c0-1.3,1.1-2.4,2.4-2.4l0,0
			C20.5,386.2,21.6,387.3,21.6,388.6z M18.3,392.3c-0.4-1-0.2-2.1,0.6-2.9c0.6-0.7,0.4-1.5-0.1-2.6c-0.9,0.1-1.5,0.9-1.5,1.8v2.1
			C17.3,391.4,17.7,392,18.3,392.3z M21,388.6c0-0.9-0.6-1.6-1.5-1.8c0.5,1,0.7,2.1-0.1,3l0,0c-0.8,0.7-0.9,1.8-0.3,2.6l0,0
			c1,0,1.8-0.8,1.8-1.8L21,388.6L21,388.6z M33.1,391.9c-0.8,0.7-1.8,1.2-2.9,1.2c-0.3,0-0.5,0-0.8-0.1l0,0h-0.1
			c-1.1-0.7-1.8-2-1.8-3.3s0.7-2.5,1.8-3.3c0.1-0.1,0.2-0.1,0.3,0c0.8,0.5,1.3,1.3,1.6,2.1c0.8-0.4,1.8-0.6,2.7-0.4
			c0.1,0,0.2,0.1,0.2,0.2C34.4,389.7,34,391,33.1,391.9z M30.8,389.7c0-1.1-0.5-2-1.4-2.7c-0.9,0.6-1.4,1.6-1.4,2.7
			c0,0.9,0.4,1.8,1.1,2.4V390c0-0.2,0.1-0.3,0.3-0.3c0.2,0,0.3,0.1,0.3,0.3v2.1C30.4,391.5,30.8,390.6,30.8,389.7z M33.6,388.7
			c-0.8-0.1-1.6,0.1-2.2,0.4c0,0.2,0,0.4,0,0.6c0,1.1-0.4,2.1-1.2,2.8c0.9,0,1.8-0.4,2.4-1C33.4,390.8,33.8,389.7,33.6,388.7z
			 M25,378.7c-0.2,0-0.3,0.1-0.3,0.3s0.1,0.7,0.3,0.7l0.1-0.5c0.2,0,0.3-0.1,0.3-0.3S25.2,378.7,25,378.7L25,378.7z"/>
		<rect x="52.9" y="380" fill="none" width="61.4" height="19.9"/>
		<text transform="matrix(1.0243 0 0 1 52.9092 388.083)" fill="#FFFFFF" font-family="'MyriadPro-Regular'" font-size="11.3618">Tea/Coffee</text>
		<path id="XMLID_99_" fill="#FFFFFF" d="M20.4,404.9c-0.1,0-0.3,0.1-0.3,0.3l-0.1,4.7c0,0.2-0.1,0.3-0.3,0.3l0,0
			c-0.2,0-0.3-0.1-0.3-0.3l0.1-4.7c0-0.5,0.4-0.9,0.9-0.9h0.4c0.2,0,0.3,0.1,0.3,0.3s-0.1,0.3-0.3,0.3L20.4,404.9L20.4,404.9z
			 M28.4,404.8c0.1,0,0.1,0,0.1,0.1c0,0.2,0.1,0.3,0.3,0.3c0.2,0,0.3-0.1,0.3-0.3c0-0.4-0.3-0.7-0.7-0.7c-0.2,0-0.3,0.1-0.3,0.3
			S28.2,404.8,28.4,404.8z M21.9,415.7c0.2,0,0.3-0.1,0.3-0.3v-3.7c0-0.5-0.4-0.9-1-0.9c-0.5,0-1,0.4-1,0.9v3.7
			c0,0.2,0.1,0.3,0.3,0.3c0.2,0,0.3-0.1,0.3-0.3v-3.7c0-0.2,0.2-0.4,0.4-0.4c0.2,0,0.4,0.2,0.4,0.4v3.7
			C21.6,415.6,21.7,415.7,21.9,415.7z M24.8,414c0-0.2-0.1-0.3-0.3-0.3c-0.2,0-0.3,0.1-0.3,0.3v0.8c0,0.3-0.1,0.5-0.3,0.7
			c-0.2,0.2-0.5,0.3-0.8,0.3h-0.4c-0.2,0-0.3,0.1-0.3,0.3c0,0.4-0.2,0.7-0.3,0.7h-1.7c-0.1,0-0.3-0.3-0.3-0.7c0-0.2-0.1-0.3-0.3-0.3
			h-0.4c-0.3,0-0.6-0.1-0.8-0.3c-0.2-0.2-0.3-0.5-0.3-0.7l0.4-10.1c0-0.6,0.5-1.1,1.1-1.1h2.9c0.6,0,1.1,0.5,1.1,1.1v0.5
			c0,0.2,0.1,0.3,0.3,0.3c0.2,0,0.3-0.1,0.3-0.3v-0.5c0-0.9-0.8-1.7-1.7-1.7h-2.9c-0.9,0-1.7,0.7-1.7,1.7l-0.4,10.1
			c0,0.4,0.1,0.8,0.5,1.2c0.3,0.3,0.8,0.5,1.3,0.5h0.1c0.1,0.5,0.5,0.9,0.9,0.9h1.7c0.4,0,0.8-0.4,0.9-0.9h0.1
			c0.5,0,0.9-0.2,1.3-0.5c0.3-0.3,0.5-0.7,0.5-1.2L24.8,414z M21.9,417.9c-0.2,0-0.3,0.1-0.3,0.3v1.6c0,0.2-0.2,0.4-0.4,0.4
			c-0.2,0-0.4-0.2-0.4-0.4v-1.6c0-0.2-0.1-0.3-0.3-0.3c-0.2,0-0.3,0.1-0.3,0.3v1.6c0,0.5,0.4,0.9,1,0.9c0.5,0,1-0.4,1-0.9v-1.6
			C22.2,418.1,22.1,417.9,21.9,417.9z M28.3,415.9l-0.4,0.3c-0.1,0.1-0.1,0.3,0,0.4s0.1,0.1,0.2,0.1s0.2,0,0.2-0.1l0.4-0.3
			c0.1-0.1,0.1-0.3,0-0.4S28.4,415.8,28.3,415.9z M29.3,413.6l-0.4,0.3c-0.1,0.1-0.1,0.3,0,0.4s0.1,0.1,0.2,0.1s0.2,0,0.2-0.1
			l0.4-0.3c0.1-0.1,0.1-0.3,0-0.4S29.4,413.5,29.3,413.6z M27.4,413.1c0.1-0.1,0.1-0.3,0-0.4l-0.4-0.3c-0.1-0.1-0.3-0.1-0.4,0
			s-0.1,0.3,0,0.4l0.4,0.3c0.1,0.1,0.1,0.1,0.2,0.1S27.3,413.2,27.4,413.1z M32.7,408.9c0,0.6-0.1,1.1-0.3,1.7l0,0l-3.7,9.9
			c0,0.1-0.2,0.2-0.3,0.2c-0.1,0-0.2-0.1-0.3-0.2l-3.7-9.9l0,0c-0.2-0.5-0.3-1.1-0.3-1.7c0-1.6,0.9-3,2.3-3.7c0-0.1,0-0.1,0-0.2
			c0-1.1,0.9-2,2.1-2c1.1,0,2.1,0.9,2.1,2c0,0.1,0,0.1,0,0.2C31.8,405.9,32.7,407.4,32.7,408.9z M26.9,405c0,0.1,0,0.2,0,0.3l0,0
			c0.1,0.6,0.7,1.1,1.4,1.1c0.7,0,1.3-0.5,1.4-1.1l0,0c0-0.1,0-0.2,0-0.3c0-0.8-0.6-1.4-1.4-1.4S26.9,404.2,26.9,405z M31.6,410.8
			h-1.2v1.2c0,0.5-0.4,0.9-1,0.9c-0.5,0-0.8-0.3-0.9-0.7c-0.1,0-0.1,0-0.2,0c-0.5,0-1-0.4-1-0.9v-0.5l-2.3,0.5l3.3,8.8L31.6,410.8z
			 M32,408.9c0-1.3-0.7-2.5-1.8-3.1c-0.3,0.7-1,1.2-1.9,1.2c-0.8,0-1.6-0.5-1.9-1.2c-1.1,0.6-1.8,1.8-1.8,3.1c0,0.4,0.1,0.8,0.2,1.2
			h2.8c0.2,0,0.3,0.1,0.3,0.3v0.8c0,0.2,0.2,0.4,0.4,0.4c0.1,0,0.2,0,0.3-0.1c0.1-0.1,0.1-0.1,0.2-0.1h0.1c0.1,0,0.2,0.2,0.2,0.3
			v0.3c0,0.2,0.2,0.4,0.4,0.4c0.2,0,0.4-0.2,0.4-0.4v-1.5c0-0.2,0.1-0.3,0.3-0.3h1.7C32,409.8,32,409.4,32,408.9z M28,414.6
			l-0.4-0.3c-0.1-0.1-0.3-0.1-0.4,0s-0.1,0.3,0,0.4l0.4,0.3c0.1,0.1,0.1,0.1,0.2,0.1s0.2,0,0.2-0.1C28.1,414.9,28.1,414.7,28,414.6z
			"/>
		<rect x="52.4" y="408" fill="none" width="61.4" height="20.4"/>
		<text transform="matrix(1.0243 0 0 1 52.4434 416.0332)" fill="#FFFFFF" font-family="'MyriadPro-Regular'" font-size="11.3618">Ice Cream</text>
		<path id="XMLID_2_" fill="#FFFFFF" d="M23.8,445.5c0.1,0.2,0,0.4-0.1,0.4s-0.1,0-0.2,0s-0.2-0.1-0.3-0.2c-0.5-0.9-0.7-1.5-0.9-2.9
			c-0.1-0.6,0-1.3,0.4-1.9s1.2-1.2,2.2-1.5c0.8-0.2,1.5-0.2,2,0.1c0.4,0.2,0.7,0.6,0.9,1c0.1,0.2,0,0.4-0.2,0.4
			c-0.2,0.1-0.4,0-0.4-0.2c-0.1-0.3-0.3-0.5-0.5-0.7c-0.4-0.2-0.9,0.2-1.5,0.4c-0.8,0.2-1.5,0.3-1.8,0.7c-0.3,0.5-0.4,1-0.3,1.4
			C23.1,444.1,23.3,444.6,23.8,445.5z M29.1,444.6c-0.2,0-0.4,0.1-0.4,0.3c-0.2,1.5-0.4,2-1.2,3.2c-0.1,0.2,0,0.4,0.1,0.4
			s0.1,0,0.2,0s0.2-0.1,0.3-0.2c0.8-1.3,1-1.9,1.3-3.5C29.4,444.8,29.2,444.7,29.1,444.6z M18.6,447.9L18.6,447.9
			c0.2,0,0.4-0.1,0.4-0.3c0.6-2.7,0.6-10.6,0-13.2c0-0.2-0.2-0.3-0.4-0.3c-0.2,0-0.3,0.2-0.3,0.4c0.5,2.5,0.5,10.4,0,13
			C18.3,447.7,18.4,447.8,18.6,447.9z M22.9,448.8c-1.8,0-3.6-0.1-5.3-0.4c-0.6-3.1-0.6-11.6,0-14.7l0,0c2.9-0.3,5.9-0.4,9-0.2
			c0.2,0,0.3-0.1,0.4-0.3s-0.1-0.3-0.3-0.3c-3-0.2-5.9-0.1-8.8,0.2v-1c1.7-0.2,3.4-0.4,5.1-0.4s3.4,0.1,5.1,0.4v1.4
			c0,0.2,0.1,0.3,0.3,0.3c0,0.2,0.1,0.4,0.1,0.7c0,0.2,0.2,0.3,0.4,0.3c0.2,0,0.3-0.2,0.3-0.4c0-0.4-0.1-0.7-0.2-1
			c0-0.1-0.1-0.2-0.2-0.2v-1.3c0-0.2-0.1-0.3-0.3-0.3c-1.8-0.3-3.6-0.4-5.4-0.4s-3.7,0.1-5.4,0.4c-0.2,0-0.3,0.2-0.3,0.3v1.3
			c-0.1,0-0.2,0.1-0.2,0.2c-0.7,3.1-0.7,12.4,0,15.5c0,0.1,0.1,0.2,0.3,0.3c1.9,0.3,3.8,0.4,5.7,0.4c0.2,0,0.3-0.1,0.3-0.3
			S23.1,448.8,22.9,448.8z M32.6,438.2c0,0.4-0.1,0.8-0.5,1.3c-0.4,0.5-1,0.8-1.6,0.9c-0.1,0-0.1,0-0.2,0c-0.4,0-0.8-0.1-1.1-0.3
			c-0.9-0.5-1.2-0.8-1.8-1.7c-0.2-0.3-0.4-0.8-0.4-1.2c0-0.5,0.3-1.1,0.8-1.6c0.4-0.4,0.9-0.6,1.3-0.5c0.4,0,0.8,0.2,1.1,0.6l0,0
			c0.5,0.8,0.8,1,1.6,1.5C32.3,437.4,32.5,437.8,32.6,438.2z M31.9,438.3c0-0.2-0.1-0.4-0.4-0.5c-0.9-0.5-1.2-0.8-1.8-1.6l0,0
			c-0.1-0.2-0.3-0.3-0.6-0.3l0,0c-0.2,0-0.5,0.1-0.8,0.4c-0.4,0.3-0.6,0.8-0.6,1.1c0,0.3,0.1,0.6,0.2,0.8c0.5,0.8,0.8,1,1.6,1.5
			c0.2,0.1,0.5,0.2,0.9,0.2c0.3,0,0.8-0.3,1.1-0.7C31.8,438.8,31.9,438.5,31.9,438.3z M30.7,443.8c0.3,0.6,0.5,1.2,0.4,1.9
			c-0.2,1.6-0.4,2.1-1.3,3.5c-0.3,0.5-0.8,1-1.5,1.2c-0.3,0.1-0.6,0.2-1,0.2c-0.5,0-1.1-0.1-1.7-0.3c-0.8-0.3-1.3-0.8-1.5-1.3
			c-0.2-0.6-0.2-1.2,0.2-1.8c0.8-1.3,1-1.8,1.2-3.2l0,0c0.1-0.7,0.4-1.2,1-1.5c0.5-0.3,1.2-0.3,2-0.1
			C29.5,442.6,30.4,443.2,30.7,443.8z M30.1,444.1c-0.3-0.5-1-1-1.8-1.2c-0.6-0.2-1.2-0.2-1.5,0s-0.6,0.5-0.6,1l0,0
			c-0.2,1.6-0.4,2.1-1.3,3.5c-0.2,0.4-0.3,0.8-0.1,1.2c0.2,0.4,0.6,0.7,1.2,1c0.8,0.3,1.6,0.4,2.2,0.2c0.5-0.2,0.9-0.5,1.2-0.9
			c0.8-1.3,1-1.8,1.2-3.2C30.5,445.1,30.4,444.6,30.1,444.1z M34.5,432.7c0,0.3-0.1,0.6-0.3,0.9c-0.4,0.6-0.6,0.8-1.2,1.2
			c-0.2,0.1-0.5,0.2-0.8,0.2h-0.1c-0.4,0-0.8-0.3-1.1-0.6c-0.3-0.3-0.4-0.6-0.4-0.9s0.2-0.6,0.5-0.8c0.5-0.3,0.7-0.5,1-1l0,0
			c0.2-0.3,0.5-0.5,0.8-0.5s0.6,0.1,0.9,0.4C34.3,431.9,34.5,432.3,34.5,432.7z M33.9,432.7c0-0.2-0.1-0.4-0.4-0.7
			c-0.2-0.1-0.3-0.2-0.4-0.2l0,0c-0.1,0-0.2,0.1-0.3,0.2l0,0c-0.4,0.6-0.6,0.8-1.2,1.2c-0.1,0.1-0.2,0.2-0.2,0.3
			c0,0.1,0.1,0.3,0.2,0.5c0.2,0.3,0.5,0.4,0.7,0.4s0.4,0,0.5-0.1c0.5-0.3,0.7-0.5,1-1C33.8,433.1,33.9,432.9,33.9,432.7z M29,442
			c0.2,0,0.3-0.1,0.3-0.3c0-0.2,0-0.5,0-0.7s-0.2-0.3-0.3-0.3l0,0c-0.2,0-0.3,0.1-0.3,0.3c0,0.2,0,0.5,0,0.7
			C28.6,441.8,28.8,442,29,442L29,442z"/>
		<rect x="52.4" y="437.3" fill="none" width="61.4" height="19.9"/>
		<text transform="matrix(1.0243 0 0 1 52.4434 445.3467)" fill="#FFFFFF" font-family="'MyriadPro-Regular'" font-size="11.3618">Snacks</text>
		<path id="XMLID_391_" fill="#FFFFFF" d="M21.2,466.6v-4.2c0-0.2,0.2-0.3,0.3-0.3l0,0c0.2,0,0.3,0.1,0.3,0.3v4.2
			c0,0.2-0.2,0.3-0.3,0.3l0,0C21.4,466.9,21.2,466.8,21.2,466.6z M24.9,470.5c-1.6-1.9-1.3-4.7,0.7-6.3l0,0c0.2-0.2,0.6-0.2,0.9-0.1
			s0.6,0.3,0.8,0.6l0,0c0.2,0.3,0.4,0.6,0.4,0.9c0.1,0.4,0,0.7-0.3,0.9l0,0c-0.7,0.5-0.8,1.5-0.2,2.1l0,0c0.2,0.2,0.2,0.6,0.1,0.9
			s-0.3,0.6-0.6,0.8c-0.4,0.3-0.8,0.5-1.1,0.5C25.3,470.8,25,470.7,24.9,470.5L24.9,470.5z M26.7,469.1c-0.1-0.1-0.5-0.1-0.9,0.3
			c-0.4,0.3-0.5,0.7-0.4,0.8l0,0l0,0c0.1,0.1,0.5,0.1,0.9-0.3c0.2-0.2,0.4-0.4,0.4-0.5C26.7,469.2,26.7,469.1,26.7,469.1z
			 M26.2,465.6c0.3,0.4,0.7,0.5,0.8,0.4c0,0,0.1-0.1,0-0.3c0-0.2-0.1-0.4-0.3-0.6l0,0c-0.2-0.2-0.4-0.3-0.5-0.4c-0.1,0-0.1,0-0.2,0
			h-0.1C25.9,464.8,25.9,465.2,26.2,465.6z M24.9,469.4c0.1-0.2,0.3,0.1,0.5-0.1c0.3-0.2,0.6-0.8,0.9-0.9c-0.2-0.6-0.1-1.2,0.2-1.7
			c-0.3-0.1-0.6-0.3-0.8-0.6c-0.2-0.2-0.3-0.4-0.4-0.6C24.4,466.5,24.2,468.1,24.9,469.4z M19.2,466.9L19.2,466.9
			c0.2,0,0.3-0.1,0.3-0.3v-4.2c0-0.2-0.1-0.3-0.3-0.3l0,0c-0.2,0-0.3,0.1-0.3,0.3v4.2C18.9,466.8,19.1,466.9,19.2,466.9z
			 M20.4,466.9L20.4,466.9c0.2,0,0.3-0.1,0.3-0.3v-4.2c0-0.2-0.1-0.3-0.3-0.3l0,0c-0.2,0-0.3,0.1-0.3,0.3v4.2
			C20.1,466.8,20.2,466.9,20.4,466.9z M31.1,472c0,0.8-0.4,1.5-1,1.5c-0.8,0-1.5,0.7-1.5,1.5c0,0.6-0.7,1-1.5,1
			c-0.9,0-1.5-0.4-1.5-1c0-2.5,2.1-4.5,4.6-4.5C30.7,470.6,31.1,471.2,31.1,472z M27.9,475c0-0.1-0.3-0.3-0.9-0.3
			c-0.5,0-0.9,0.2-0.9,0.3c0,0.1,0.3,0.3,0.9,0.3C27.6,475.4,27.9,475.1,27.9,475z M29.3,473c-0.2-0.3-0.2-0.6-0.2-1
			c0-0.3,0-0.5,0.1-0.7c-1.4,0.3-2.6,1.4-2.9,2.8c0.2-0.1,0.5-0.1,0.8-0.1c0.4,0,0.7,0.1,1,0.2C28.3,473.7,28.7,473.2,29.3,473z
			 M30.4,472c0-0.5-0.2-0.8-0.4-0.8c-0.1,0-0.4,0.3-0.4,0.8s0.2,0.8,0.4,0.8C30.2,472.9,30.4,472.6,30.4,472z M27,478.5
			c0,0.8-0.4,1.5-1,1.5c-2.5,0-4.6-2-4.6-4.5c0-0.6,0.7-1,1.5-1c0.9,0,1.5,0.4,1.5,1c0,0.8,0.7,1.5,1.5,1.5
			C26.6,477,27,477.7,27,478.5z M22.9,475.9c0.5,0,0.9-0.2,0.9-0.3c0-0.1-0.3-0.3-0.9-0.3c-0.5,0-0.9,0.2-0.9,0.3
			C22.1,475.7,22.4,475.9,22.9,475.9z M24.9,478.5c0-0.4,0.1-0.7,0.2-1c-0.6-0.2-1-0.7-1.3-1.2c-0.3,0.1-0.6,0.2-1,0.2
			c-0.3,0-0.5,0-0.8-0.1c0.3,1.4,1.5,2.5,2.9,2.8C25,479,24.9,478.8,24.9,478.5z M26.3,478.5c0-0.5-0.2-0.8-0.4-0.8
			c-0.1,0-0.4,0.3-0.4,0.8s0.2,0.8,0.4,0.8C26.1,479.3,26.3,479,26.3,478.5z M33.9,465c0,2.5-2.1,4.5-4.6,4.5c-0.6,0-1-0.6-1-1.5
			c0-0.8,0.4-1.5,1-1.5c0.8,0,1.5-0.7,1.5-1.5c0-0.6,0.7-1,1.5-1C33.2,464,33.9,464.5,33.9,465z M29.7,468c0-0.5-0.2-0.8-0.4-0.8
			S29,467.5,29,468s0.2,0.8,0.4,0.8C29.4,468.8,29.7,468.5,29.7,468z M33.1,465.9c-0.2,0.1-0.5,0.1-0.8,0.1c-0.4,0-0.7-0.1-1-0.2
			c-0.2,0.6-0.7,1-1.3,1.2c0.2,0.3,0.2,0.6,0.2,1c0,0.3,0,0.5-0.1,0.7C31.6,468.4,32.8,467.3,33.1,465.9z M33.2,465
			c0-0.1-0.3-0.3-0.9-0.3s-0.9,0.2-0.9,0.3s0.3,0.3,0.9,0.3C32.9,465.3,33.2,465.1,33.2,465z M21.5,478.4L21.5,478.4
			c-0.2,0-0.3,0.1-0.3,0.3v2.3c0,0.2,0.1,0.3,0.3,0.3l0,0c0.2,0,0.3-0.1,0.3-0.3v-2.3C21.8,478.6,21.7,478.4,21.5,478.4z
			 M20.4,475.4h-1.1l0,0h-1.1l0,0h-1v-7.3h5.6v5.3c0,0.2,0.1,0.3,0.3,0.3c0.2,0,0.3-0.1,0.3-0.3v-5.6c0-0.2-0.1-0.3-0.3-0.3h-6.3
			c-0.2,0-0.3,0.1-0.3,0.3v8c0,0.2,0.1,0.3,0.3,0.3h1v4.9c0,0.2,0.1,0.3,0.3,0.3l0,0c0.2,0,0.3-0.1,0.3-0.3v-4.9h0.5v4.9
			c0,0.2,0.1,0.3,0.3,0.3l0,0c0.2,0,0.3-0.1,0.3-0.3v-4.9H20v4.9c0,0.2,0.1,0.3,0.3,0.3l0,0c0.2,0,0.3-0.1,0.3-0.3v-5.2
			c0-0.1,0-0.2-0.1-0.2C20.5,475.5,20.5,475.4,20.4,475.4z M18.1,466.9L18.1,466.9c0.2,0,0.3-0.1,0.3-0.3v-4.3
			c0-0.2-0.1-0.3-0.3-0.3l0,0c-0.2,0-0.3,0.1-0.3,0.3v4.3C17.8,466.8,17.9,466.9,18.1,466.9z M17.9,469.1v5.3c0,0.2,0.1,0.3,0.3,0.3
			c0.2,0,0.3-0.1,0.3-0.3v-5.3c0-0.2-0.1-0.3-0.3-0.3C18,468.8,17.9,469,17.9,469.1z"/>
		<rect x="52.4" y="468" fill="none" width="61.4" height="20.4"/>
		<text transform="matrix(1.0243 0 0 1 52.4434 476.0234)" fill="#FFFFFF" font-family="'MyriadPro-Regular'" font-size="11.3618">Pasta</text>
		<path id="XMLID_203_" fill="#FFFFFF" d="M16.8,513.2c0,0.2-0.2,0.4-0.4,0.4c-1.3,0-2.3-1-2.3-1.8v-13.6c0-1.7,1-2.7,2.3-2.7h8.9
			c0.5,0,1.1,0.2,1.5,0.5c0.2,0.1,0.2,0.4,0,0.5c-0.1,0.2-0.4,0.2-0.5,0c-0.3-0.2-0.6-0.4-1-0.4h-8.9c-0.9,0-1.6,0.7-1.6,1.5v13.6
			c0,0.8,0.7,1.5,1.6,1.5C16.6,512.8,16.8,513,16.8,513.2z M25.5,497.1h-9.2c-0.2,0-0.4,0.2-0.4,0.4s0.2,0.4,0.4,0.4h9.2
			c0.2,0,0.4-0.2,0.4-0.4S25.7,497.1,25.5,497.1z M26.5,499.7l0.6-2.6c0-0.2,0.2-0.3,0.4-0.3c0.2,0,0.3,0.2,0.3,0.4l-0.5,2.2
			c0.2,0,0.5,0.1,0.7,0.2l0.2-0.8c0.1-0.6,0.6-1,1.1-1.2l0.8-3.5c0-0.2,0.2-0.3,0.4-0.3c0.2,0,0.3,0.2,0.3,0.4l-0.8,3.5
			c0.4,0.4,0.6,1,0.5,1.5l-0.2,0.8c0.2,0,0.5,0,0.7,0.1l0.5-2.2c0-0.2,0.2-0.3,0.4-0.3s0.3,0.2,0.3,0.4l-0.6,2.6
			c0.1,0.6-0.2,1.3-0.7,1.6l-0.2,0.1c0.1,0,0.2,0.1,0.3,0.2c0.1,0.1,0.1,0.1,0.1,0.2c0.1,0.6-0.1,1.3-0.7,1.7l-1,0.6
			c-0.3,0.2-0.7,0.3-1.1,0.2c0,0,0,0,0,0.1c-0.1,0.5-0.3,1.1-0.5,1.6c-0.1,0.1-0.2,0.2-0.3,0.2h-0.1c-0.2-0.1-0.3-0.3-0.2-0.5
			c0.2-0.5,0.3-1,0.5-1.5l0,0c0,0,0,0,0-0.1c-0.4-0.1-0.7-0.4-0.9-0.7l-0.6-1c-0.4-0.6-0.3-1.3,0.1-1.8c0.1-0.1,0.1-0.1,0.2-0.1
			s0.2,0,0.3,0l-0.1-0.2C26.1,500.9,26.1,500.2,26.5,499.7z M28.6,500.4l0.3,0.5l0.5-0.3v-0.1l0.3-1.1c0.1-0.3,0-0.6-0.3-0.8
			c-0.3,0.1-0.5,0.3-0.6,0.6l-0.3,1.1C28.6,500.3,28.6,500.3,28.6,500.4z M27.1,501.1l0.9,1.3l0,0l0.4,0.7l0.7-0.4l0,0l0,0l1.4-0.8
			c0.3-0.2,0.4-0.5,0.4-0.8c-0.3-0.1-0.6-0.1-0.9,0l-1,0.6c-0.1,0.1-0.2,0.1-0.3,0c-0.1,0-0.2-0.1-0.2-0.2l-0.6-0.9v-0.1
			c-0.2-0.3-0.5-0.4-0.8-0.4C26.9,500.5,26.9,500.8,27.1,501.1z M26.6,502.4c-0.2,0.3-0.1,0.6,0,0.9l0.6,1c0.3,0.4,1.3,0.7,1.7,0.4
			l1-0.6c0.3-0.2,0.4-0.5,0.4-0.8c-0.3-0.1-0.6-0.1-0.9,0l0,0l-1,0.6c-0.1,0.1-0.2,0.1-0.3,0c-0.1,0-0.2-0.1-0.2-0.2l-0.6-1
			C27.2,502.5,26.9,502.4,26.6,502.4z M22.6,507.4h0.1c0.2,0,0.4-0.2,0.4-0.4c0-0.2-0.2-0.4-0.4-0.4h-0.1c-0.2,0-0.4,0.2-0.4,0.4
			C22.2,507.3,22.4,507.4,22.6,507.4z M17.7,511.5c0-0.2-0.2-0.4-0.4-0.4h-1.1c-0.2,0-0.4,0.2-0.4,0.4s0.2,0.4,0.4,0.4h1.1
			C17.5,511.9,17.7,511.7,17.7,511.5z M21.7,508.1h-0.1c-0.2,0-0.4,0.2-0.4,0.4s0.2,0.4,0.4,0.4h0.1c0.2,0,0.4-0.2,0.4-0.4
			S21.9,508.1,21.7,508.1z M25.1,508.1H25c-0.2,0-0.4,0.2-0.4,0.4s0.2,0.4,0.4,0.4h0.1c0.2,0,0.4-0.2,0.4-0.4S25.3,508.1,25.1,508.1
			z M24.1,506.7H24c-0.2,0-0.4,0.2-0.4,0.4c0,0.2,0.2,0.4,0.4,0.4h0.1c0.2,0,0.4-0.2,0.4-0.4C24.5,506.9,24.3,506.7,24.1,506.7z
			 M35.9,505l-2.7,2.3c0.1,0.6-0.1,1.1-0.5,1.5l-0.6,0.5c0.2,0.1,0.4,0.3,0.5,0.5l1.7-1.5c0.2-0.1,0.4-0.1,0.5,0s0.1,0.4,0,0.5
			l-2,1.7c-0.3,0.6-0.9,0.9-1.6,0.8H31c0,0.1,0.1,0.2,0.1,0.3c0,0.1,0,0.2,0,0.2c-0.3,0.6-0.8,0.9-1.5,0.9h-0.1
			c-0.2,0-0.4-0.2-0.3-0.4c0-0.2,0.2-0.3,0.4-0.3c0.3,0,0.6-0.1,0.8-0.4c-0.1-0.2-0.3-0.4-0.5-0.4c-0.4-0.1-0.8-0.3-1.1-0.7
			c-0.3-0.3-0.5-0.7-0.5-1v-0.1c0-0.3-0.2-0.6-0.5-0.7c-0.2-0.1-0.3-0.3-0.2-0.5c0.1-0.2,0.3-0.3,0.5-0.2c0.1,0,0.2,0.1,0.3,0.2V508
			c0-0.6,0.5-1.2,1.1-1.4l2-1.8c0.1-0.1,0.4-0.1,0.5,0c0.1,0.1,0.1,0.4,0,0.5l-1.7,1.5c0.2,0.2,0.3,0.4,0.4,0.6l0.6-0.5
			c0.4-0.4,1.1-0.5,1.6-0.3l2.7-2.3c0.2-0.1,0.4-0.1,0.5,0C36.1,504.6,36.1,504.9,35.9,505z M32,510.3c-0.1-0.3-0.4-0.5-0.7-0.5
			h-0.1l0,0l-1.1-0.1c-0.2,0-0.4-0.2-0.3-0.4l0.1-1.1c0-0.3-0.1-0.6-0.4-0.8c-0.3,0.1-0.5,0.4-0.5,0.7l-0.1,1.1
			c0,0.2,0.1,0.6,0.4,0.8c0.2,0.3,0.6,0.5,0.8,0.5l1.2,0.1C31.5,510.7,31.8,510.6,32,510.3z M32.4,507.4c-0.3-0.1-0.6,0-0.9,0.2
			l-0.9,0.8l-0.1,0.1v0.6h0.6l0.1-0.1l0.9-0.8C32.4,508,32.5,507.7,32.4,507.4z M29.3,514.5c0,0.1,0,0.2,0,0.3
			c-0.1,0.1-0.2,0.2-0.3,0.2H17.8c-0.1,0-0.2-0.1-0.3-0.2s-0.1-0.2,0-0.3l2.4-6.2c0.9-2.4,2.2-3.7,3.5-3.7s2.6,1.3,3.5,3.7
			L29.3,514.5z M28.4,514.3l-2.2-5.7c-0.8-2.1-1.8-3.3-2.9-3.3c-1,0-2.1,1.2-2.9,3.3l-2.2,5.7H28.4z M24.1,512.1H24
			c-0.2,0-0.4,0.2-0.4,0.4s0.2,0.4,0.4,0.4h0.1c0.2,0,0.4-0.2,0.4-0.4S24.3,512.1,24.1,512.1z M22.7,509.6h-0.1
			c-0.2,0-0.4,0.2-0.4,0.4c0,0.2,0.2,0.4,0.4,0.4h0.1c0.2,0,0.4-0.2,0.4-0.4C23.1,509.7,22.9,509.6,22.7,509.6z M23.8,508.4
			c0-0.2-0.2-0.4-0.4-0.4h-0.1c-0.2,0-0.4,0.2-0.4,0.4s0.2,0.4,0.4,0.4h0.1C23.6,508.8,23.8,508.6,23.8,508.4z"/>
		<rect x="52.4" y="500.5" fill="none" width="61.4" height="20.4"/>
		<text transform="matrix(1.0243 0 0 1 52.4434 508.5186)" fill="#FFFFFF" font-family="'MyriadPro-Regular'" font-size="11.3618">Rice</text>
	</g>
	<g display="inline">
		<path id="XMLID_1164_" fill="#FFFFFF" d="M16.4,243.7c0,0.2-0.2,0.4-0.4,0.4h-2.7c-0.2,0-0.4-0.2-0.4-0.4v-14.8
			c0-0.2,0.2-0.4,0.4-0.4h19.1c0.2,0,0.4,0.2,0.4,0.4v9.6c0,0.2-0.2,0.4-0.4,0.4s-0.4-0.2-0.4-0.4v-9.2H13.7v14h2.2
			C16.2,243.3,16.4,243.5,16.4,243.7z M22.9,236.8v-0.2c-0.6,0.1-1.3,0.1-1.9,0c-0.6,0.3-1.5,0.4-2.5,0.4s-2-0.2-2.6-0.5v1.5
			c0,0.1,0.2,0.3,0.6,0.4c0.5,0.2,1.3,0.3,2,0.3s1.5-0.1,2-0.3s0.6-0.4,0.6-0.4v-0.5c0-0.2,0.2-0.4,0.4-0.4c0.2,0,0.4,0.2,0.4,0.4
			v0.5c0,1-1.8,1.6-3.5,1.6s-3.5-0.5-3.5-1.6v-2.6c0-0.7,0.8-1.2,2.2-1.5c0.2,0,0.4,0.1,0.5,0.3c0,0.2-0.1,0.4-0.4,0.5
			c-1.1,0.2-1.5,0.5-1.5,0.7c0,0.1,0.2,0.3,0.6,0.4c0.5,0.2,1.3,0.3,2,0.3c0.2,0,0.5,0,0.7,0c-0.6-0.3-0.9-0.6-0.9-1.1v-2.6
			c0-1,1.8-1.6,3.5-1.6s3.5,0.5,3.5,1.6v2.6c0,0.6-0.6,1.1-1.5,1.3v0.4c0,0.1,0.2,0.3,0.6,0.4c0.5,0.2,1.3,0.3,2,0.3
			c0.8,0,1.5-0.1,2-0.3s0.6-0.4,0.6-0.4v-1.5c-0.7,0.3-1.7,0.5-2.6,0.5c-0.2,0-0.4-0.2-0.4-0.4s0.2-0.4,0.4-0.4c0.8,0,1.5-0.1,2-0.3
			s0.6-0.4,0.6-0.4s-0.2-0.3-0.6-0.4c-0.5-0.2-1.3-0.3-2-0.3c-0.2,0-0.4-0.2-0.4-0.4s0.2-0.4,0.4-0.4c1.7,0,3.5,0.5,3.5,1.6v2.6
			c0,1-1.8,1.6-3.5,1.6C24.7,238.4,22.9,237.8,22.9,236.8z M19.2,232.5c0,0.1,0.2,0.3,0.6,0.4c0.5,0.2,1.3,0.3,2,0.3
			c0.8,0,1.5-0.1,2-0.3s0.6-0.4,0.6-0.4c0-0.1-0.2-0.3-0.6-0.4c-0.5-0.2-1.3-0.3-2-0.3s-1.5,0.1-2,0.3
			C19.3,232.3,19.2,232.5,19.2,232.5z M23.8,235.5c0.5-0.2,0.6-0.4,0.6-0.4v-1.5c-0.7,0.3-1.7,0.5-2.6,0.5c-1,0-2-0.2-2.6-0.5v1.5
			c0,0.1,0.2,0.7,0.6,0.9c0.5,0.2,1.3-0.1,2-0.1C22.6,235.8,23.3,235.7,23.8,235.5z M39.1,242.9v2.3c0,0.1-0.1,0.2-0.1,0.3
			c-0.1,0.1-0.2,0.1-0.3,0.1l-0.6-0.1c-0.4,0-0.8-0.2-1.1-0.4c-0.5,1.7-2.1,3-4.1,3h-9.2c-1.9,0-3.6-1.3-4.1-3
			c-0.3,0.2-0.7,0.3-1.1,0.4l-0.6,0.1c-0.1,0-0.2,0-0.3-0.1c-0.1-0.1-0.1-0.2-0.1-0.3v-2.3c0-0.1,0.1-0.2,0.1-0.3
			c0.1-0.1,0.2-0.1,0.3-0.1l0.6,0.1c0.4,0,0.8,0.2,1.1,0.4c0.5-1.7,2.2-3,4.1-3h9.2c1.9,0,3.6,1.3,4.1,3c0.3-0.2,0.7-0.3,1.1-0.4
			l0.6-0.1c0.1,0,0.2,0,0.3,0.1S39.1,242.8,39.1,242.9z M19.4,244c0-0.3-0.5-0.6-1-0.6h-0.1v1.4h0.1c0.5-0.1,0.9-0.4,1-0.6
			C19.4,244.1,19.4,244.1,19.4,244z M36.3,244.1c0-1.8-1.5-3.3-3.4-3.3h-9.2c-1.8,0-3.4,1.4-3.4,3.2v0.2c0,1.8,1.6,3.2,3.4,3.2h9.2
			C34.8,247.4,36.3,245.9,36.3,244.1z M38.3,243.4L38.3,243.4c-0.7,0.1-1.1,0.4-1.1,0.7s0.4,0.6,1,0.7h0.1V243.4z M32.7,241.6h-1.3
			c-0.2,0-0.4,0.2-0.4,0.4s0.2,0.4,0.4,0.4h1.3c1,0,1.8,0.8,1.8,1.7c0,0.2,0.2,0.4,0.4,0.4s0.4-0.2,0.4-0.4
			C35.3,242.7,34.1,241.6,32.7,241.6z M29.9,241.6L29.9,241.6c-0.3,0-0.5,0.2-0.5,0.4s0.2,0.4,0.4,0.4h0.1c0.2,0,0.4-0.2,0.4-0.4
			S30.2,241.6,29.9,241.6z"/>
		<rect x="52.4" y="233.8" fill="none" width="61.4" height="19.9"/>
		<text transform="matrix(1.0243 0 0 1 52.4434 241.9106)" fill="#FFFFFF" font-family="'MyriadPro-Regular'" font-size="11.3618">Frozen</text>
		<rect y="254.8" width="215.9" height="64.5"/>
		<text transform="matrix(1.0243 0 0 1 51.0405 273.6084)" fill="#FFFFFF" font-family="'MyriadPro-Regular'" font-size="8.635">Meat</text>
		<text transform="matrix(1.0243 0 0 1 51.0405 285.6533)" fill="#EE4124" font-family="'MyriadPro-Regular'" font-size="8.635">Chicken</text>
		<text transform="matrix(1.0243 0 0 1 51.0405 297.9248)" fill="#FFFFFF" font-family="'MyriadPro-Regular'" font-size="8.635">Prawn</text>
		<text transform="matrix(1.0243 0 0 1 51.0405 309.9688)" fill="#FFFFFF" font-family="'MyriadPro-Regular'" font-size="8.635">Fish</text>
		<path id="XMLID_587_" fill="#FFFFFF" d="M40.1,271.1c0,0.1-0.1,0.2-0.2,0.2l0,0c-0.1,0-0.2-0.1-0.2-0.2s0.1-0.2,0.2-0.2l0,0
			C40,270.9,40.1,271,40.1,271.1z M39.2,270.2c0,0.4-0.3,0.7-0.7,0.7H37c-0.4,0-0.7-0.3-0.7-0.7c0-0.4,0.3-0.7,0.7-0.7h1.5
			C38.9,269.5,39.2,269.8,39.2,270.2z M38.9,270.2c0-0.2-0.2-0.4-0.4-0.4H37c-0.2,0-0.4,0.2-0.4,0.4c0,0.2,0.2,0.4,0.4,0.4h1.5
			C38.7,270.6,38.9,270.5,38.9,270.2z M39.9,269.2L39.9,269.2c-0.1,0-0.2,0.1-0.2,0.2s0.1,0.2,0.2,0.2l0,0c0.1,0,0.2-0.1,0.2-0.2
			C40.1,269.3,40,269.2,39.9,269.2z M38.2,270.1h-1c-0.1,0-0.2,0.1-0.2,0.2s0.1,0.2,0.2,0.2h1c0.1,0,0.2-0.1,0.2-0.2
			C38.4,270.1,38.3,270.1,38.2,270.1z M41.1,270.9L41.1,270.9c-0.1,0-0.2,0.1-0.2,0.2s0.1,0.2,0.2,0.2l0,0c0.1,0,0.2-0.1,0.2-0.2
			S41.2,270.9,41.1,270.9z M40.3,270.1L40.3,270.1c-0.1,0-0.2,0.1-0.2,0.2s0.1,0.2,0.2,0.2l0,0c0.1,0,0.2-0.1,0.2-0.2
			C40.5,270.1,40.4,270.1,40.3,270.1z M42.9,270.2c0,0.7-0.3,1.3-0.8,1.8s-1.2,0.7-2,0.7c-0.4,0-0.8-0.1-1.2-0.2s-0.7-0.3-0.9-0.6
			l0,0c0-0.1-0.1-0.1-0.2-0.1H37c-0.5,0-0.9-0.2-1.3-0.5c-0.3-0.3-0.5-0.7-0.5-1.1s0.2-0.8,0.5-1.1c0.3-0.3,0.8-0.5,1.3-0.5h0.8l0,0
			c0.1,0,0.2,0,0.2-0.1c0.3-0.3,0.6-0.5,1-0.6l0,0c0.4-0.1,0.7-0.2,1.2-0.2c0.8,0,1.5,0.3,2,0.7C42.6,268.9,42.9,269.6,42.9,270.2z
			 M42.6,270.2c0-0.6-0.3-1.1-0.7-1.5c-0.5-0.4-1.1-0.6-1.8-0.6c-0.4,0-0.7,0.1-1,0.2s-0.6,0.3-0.9,0.5c-0.1,0.1-0.3,0.2-0.4,0.2
			l0,0H37c-0.4,0-0.8,0.1-1.1,0.4c-0.3,0.2-0.4,0.6-0.4,0.9s0.2,0.6,0.4,0.9c0.3,0.2,0.7,0.4,1.1,0.4h0.8c0.2,0,0.3,0.1,0.5,0.2
			c0.2,0.2,0.5,0.4,0.8,0.5s0.7,0.2,1,0.2c0.7,0,1.3-0.2,1.8-0.6C42.3,271.3,42.6,270.8,42.6,270.2z M43.8,271.7
			c0,0.9-0.4,1.7-1.1,2.3c-0.7,0.6-1.6,0.9-2.6,0.9c-0.5,0-1-0.1-1.5-0.3c-0.4-0.2-0.7-0.4-1.1-0.6H37c-0.7,0-1.4-0.2-1.9-0.7
			c-0.5-0.4-0.8-1-0.8-1.6v-1.1c0,0,0-0.2,0-0.3c0-0.6,0.3-1.2,0.8-1.6s1.2-0.7,1.9-0.7h0.5c0.3-0.3,0.7-0.5,1.1-0.6
			c0.5-0.2,1-0.3,1.5-0.3c1,0,1.9,0.3,2.6,0.9c0.7,0.6,1.1,1.4,1.1,2.3C43.8,270.3,43.8,271.7,43.8,271.7z M43.4,271.6
			c-0.2,0.4-0.4,0.7-0.8,1c-0.7,0.6-1.6,0.9-2.6,0.9c-0.5,0-1-0.1-1.5-0.3c-0.4-0.2-0.7-0.4-1.1-0.6H37c-0.7,0-1.4-0.2-1.9-0.7
			c-0.2-0.2-0.3-0.3-0.5-0.5v0.3c0,0.5,0.2,1,0.7,1.4c0.4,0.4,1,0.6,1.7,0.6h0.4V273c0-0.1,0.1-0.2,0.2-0.2c0.1,0,0.2,0.1,0.2,0.2
			v0.6l0,0c0.3,0.3,0.6,0.5,1,0.6c0.4,0.2,0.9,0.3,1.4,0.3c0.9,0,1.8-0.3,2.4-0.9C43.1,273.1,43.4,272.4,43.4,271.6L43.4,271.6z
			 M43.4,270.2c0-0.8-0.3-1.5-1-2c-0.6-0.6-1.5-0.9-2.4-0.9c-0.5,0-0.9,0.1-1.4,0.3c-0.4,0.1-0.7,0.8-1,1.1l-0.1-0.4H37
			c-0.6,0-1.2,0.2-1.7,0.6c-0.4,0.4-0.7,0.9-0.7,1.4v0.1c0,0.5,0.3,0.9,0.7,1.3s1,0.6,1.7,0.6h0.6h0.1c0.3,0.3,0.6,0.5,1,0.6
			c0.4,0.2,0.9,0.3,1.4,0.3c0.9,0,1.8-0.3,2.4-0.9c0.6-0.5,0.9-1.2,1-1.9l0,0C43.4,270.3,43.4,270.3,43.4,270.2z M41.1,269.2
			L41.1,269.2c-0.1,0-0.2,0.1-0.2,0.2s0.1,0.2,0.2,0.2l0,0c0.1,0,0.2-0.1,0.2-0.2C41.3,269.3,41.2,269.2,41.1,269.2z M41.5,270.1
			L41.5,270.1c-0.1,0-0.2,0.1-0.2,0.2s0.1,0.2,0.2,0.2l0,0c0.1,0,0.2-0.1,0.2-0.2C41.7,270.1,41.6,270.1,41.5,270.1z"/>
		<path id="XMLID_966_" fill="#FFFFFF" d="M38.9,284.9c0.5,0.3,1,0.5,1.6,0.5c1.2,0,2.3-0.7,2.6-1.7c0-0.1,0.1-0.2,0.2-0.1
			c0.1,0,0.2,0.1,0.1,0.2c-0.4,1.1-1.6,1.9-2.9,1.9c-0.7,0-1.3-0.2-1.8-0.5c-0.1-0.1-0.1-0.2-0.1-0.3
			C38.7,284.9,38.8,284.9,38.9,284.9z M39.8,284.2L39.8,284.2c0.2,0,0.2-0.1,0.2-0.2s-0.1-0.2-0.2-0.2h-0.1c-0.1,0-0.2,0.1-0.2,0.2
			S39.7,284.2,39.8,284.2z M44.5,283.1c0,1.9-1.8,3.5-4.1,3.5c-1.6,0-3-0.8-3.7-2.1c-0.5,0-0.9-0.2-1.2-0.6H35l-0.5,0.5
			c-0.3,0.3-0.9,0.3-1.3,0c-0.3-0.3-0.3-0.9,0-1.2l0.1-0.1l-0.1-0.1c-0.3-0.3-0.3-0.9,0-1.2c0.3-0.3,0.9-0.3,1.3,0l0.5,0.5h0.5
			c0.3-0.4,0.7-0.6,1.2-0.6h1.8c0.1,0,0.2,0.1,0.2,0.2s-0.1,0.2-0.2,0.2h-1.8c-0.4,0-0.7,0.2-0.9,0.5l0,0c-0.1,0.2-0.2,0.4-0.2,0.6
			s0.1,0.4,0.2,0.6l0,0c0.2,0.3,0.5,0.5,0.9,0.5h0.1l0,0h1.7c0.1,0,0.2,0.1,0.2,0.2s-0.1,0.2-0.2,0.2h-1.4c0.6,1,1.9,1.7,3.3,1.7
			c2,0,3.7-1.4,3.7-3.1s-1.7-3.1-3.7-3.1c-1.2,0-2.3,0.5-3,1.3c-0.1,0.1-0.2,0.1-0.3,0s-0.1-0.2,0-0.3c0.4-0.4,0.9-0.8,1.4-1
			c0.6-0.3,1.2-0.4,1.8-0.4C42.7,279.6,44.5,281.2,44.5,283.1z M35.4,283.6c-0.1-0.1-0.1-0.3-0.1-0.5s0-0.3,0.1-0.5H35
			c0,0-0.1,0-0.1-0.1l-0.5-0.5c-0.1-0.1-0.2-0.1-0.4-0.1c-0.1,0-0.3,0-0.4,0.1c-0.2,0.2-0.2,0.5,0,0.7l0.2,0.2l0.1,0.1
			c0,0,0,0.1-0.1,0.1l-0.2,0.2c-0.2,0.2-0.2,0.5,0,0.7s0.5,0.2,0.7,0l0.5-0.5l0.1-0.1L35.4,283.6L35.4,283.6z M39.1,283L39.1,283
			c0.2,0,0.2-0.1,0.2-0.2s-0.1-0.2-0.2-0.2H39c-0.1,0-0.2,0.1-0.2,0.2C38.9,283,39,283,39.1,283z M39.8,281.9L39.8,281.9
			c0.2,0,0.2-0.1,0.2-0.2s-0.1-0.2-0.2-0.2V281.9c-0.1,0.1-0.2-0.3-0.2-0.2C39.6,281.8,39.7,281.9,39.8,281.9z M41.2,281.9
			L41.2,281.9c0.2,0,0.2-0.1,0.2-0.2s-0.1-0.2-0.2-0.2h-0.1c-0.1,0-0.2,0.1-0.2,0.2C41,281.8,41.1,281.9,41.2,281.9z M42,283
			c0.1,0,0.2-0.1,0.2-0.2s-0.1-0.2-0.2-0.2h-0.1c-0.1,0-0.2,0.1-0.2,0.2C41.7,283,41.8,283,42,283L42,283z M41.2,284.2L41.2,284.2
			c0.2,0,0.2-0.1,0.2-0.2s-0.1-0.2-0.2-0.2h-0.1c-0.1,0-0.2,0.1-0.2,0.2S41.1,284.2,41.2,284.2z M40.6,283c0.1,0,0.2-0.1,0.2-0.2
			s-0.1-0.2-0.2-0.2h-0.1c-0.1,0-0.2,0.1-0.2,0.2C40.4,283,40.5,283,40.6,283L40.6,283z"/>
		<path id="XMLID_994_" fill="#FFFFFF" d="M39.8,306.5c0-0.1,0.1-0.2,0.2-0.2l0,0c0.1,0,0.2,0.1,0.2,0.2s-0.1,0.2-0.2,0.2l0,0
			C39.9,306.7,39.8,306.6,39.8,306.5z M40.8,305.8L40.8,305.8c0.1,0,0.2-0.1,0.2-0.2s-0.1-0.2-0.2-0.2l0,0c-0.1,0-0.2,0.1-0.2,0.2
			S40.7,305.8,40.8,305.8z M39.5,305.8L39.5,305.8c0.1,0,0.2-0.1,0.2-0.2s-0.1-0.2-0.2-0.2l0,0c-0.1,0-0.2,0.1-0.2,0.2
			S39.4,305.8,39.5,305.8z M39,304.8L39,304.8c0.1,0,0.2-0.1,0.2-0.2s-0.1-0.2-0.2-0.2l0,0c-0.1,0-0.2,0.1-0.2,0.2
			S38.9,304.8,39,304.8z M40.3,304.8L40.3,304.8c0.1,0,0.2-0.1,0.2-0.2s-0.1-0.2-0.2-0.2l0,0c-0.1,0-0.2,0.1-0.2,0.2
			S40.2,304.8,40.3,304.8z M37.9,304.5L37.9,304.5c-0.1,0-0.2,0.1-0.2,0.2s0.1,0.2,0.2,0.2l0,0c0.1,0,0.2-0.1,0.2-0.2
			S38,304.5,37.9,304.5z M38.3,305.8L38.3,305.8c0.1,0,0.2-0.1,0.2-0.2s-0.1-0.2-0.2-0.2l0,0c-0.1,0-0.2,0.1-0.2,0.2
			S38.2,305.8,38.3,305.8z M42.5,305.1L42.5,305.1c-0.1,0-0.2,0.1-0.2,0.2s0.1,0.2,0.2,0.2l0,0c0.1,0,0.2-0.1,0.2-0.2
			C42.6,305.2,42.6,305.1,42.5,305.1z M44.1,305.9L44.1,305.9c-0.4,0.8-1,1.5-1.7,1.9c-0.8,0.5-1.6,0.7-2.5,0.7
			c-1.5,0-2.8-0.7-3.7-1.8c-0.4,0.6-1,1-1.7,1.4c-0.1,0-0.1,0-0.2,0c0,0-0.1-0.1-0.1-0.2c0.2-0.6,0.4-1.3,0.5-2
			c-0.1-0.7-0.3-1.4-0.5-2c0-0.1,0-0.1,0.1-0.2s0.1,0,0.2,0c0.7,0.3,1.3,0.8,1.7,1.4c0.9-1.1,2.2-1.8,3.7-1.8c0.9,0,1.8,0.3,2.5,0.7
			C43.1,304.4,43.7,305,44.1,305.9C44.1,305.8,44.1,305.8,44.1,305.9z M43.6,306h-0.5c-0.1,0-0.2-0.1-0.2-0.2s0.1-0.2,0.2-0.2h0.5
			c-0.8-1.3-2.2-2.2-3.8-2.2c-1.4,0-2.7,0.7-3.5,1.8c0.1,0.2,0.2,0.3,0.3,0.5c0,0.1,0,0.2-0.1,0.2s-0.2,0-0.2-0.1
			c-0.1-0.2-0.2-0.4-0.3-0.6l0,0c-0.4-0.5-0.8-0.9-1.4-1.3c0.1,0.3,0.2,0.6,0.2,0.9h0.1c0.2,0.1,0.4,0.2,0.6,0.3
			c0.1,0.1,0.1,0.2,0,0.2c-0.1,0.1-0.2,0.1-0.2,0c-0.1-0.1-0.3-0.2-0.4-0.2c0,0.1,0.1,0.3,0.1,0.4c0,0,0,0,0,0.1
			c0,0.2-0.1,0.3-0.1,0.4c0.1-0.1,0.3-0.2,0.4-0.2c0.1-0.1,0.2,0,0.2,0c0.1,0.1,0,0.2,0,0.2c-0.2,0.1-0.4,0.2-0.6,0.3h-0.1
			c-0.1,0.3-0.1,0.6-0.2,0.9c0.5-0.3,1-0.8,1.4-1.3l0.1-0.1c0.1,0,0.1,0,0.1,0.1c0.8,1.2,2.1,1.9,3.6,1.9
			C41.4,308.2,42.9,307.4,43.6,306z M41.5,307.1c-0.5,0.2-1.1,0.8-1.7,0.8c-0.5,0-1.1-0.5-1.5-0.7c-0.1,0-0.2,0-0.2,0.1
			s0,0.2,0.1,0.2c0.5,0.2,1.1,0.3,1.6,0.3c0.6,0,1.3-0.1,1.8-0.4c0.1,0,0.1-0.1,0.1-0.2C41.7,307.1,41.6,307,41.5,307.1z"/>
		<path id="XMLID_570_" fill="#FFFFFF" d="M40.6,292.4c-0.2-0.2-0.4-0.3-0.6-0.4c-0.1,0-0.1-0.1-0.1-0.2s0.1-0.1,0.2-0.1
			c0.3,0.1,0.5,0.2,0.8,0.5c0.2,0.2,0.3,0.4,0.4,0.7c0,0.1,0,0.2-0.1,0.2c0,0,0,0-0.1,0s-0.1,0-0.1-0.1
			C40.8,292.7,40.7,292.5,40.6,292.4z M42,295.6v0.1h-0.1h-0.1v0.2c0,0.5-0.3,0.9-0.6,1.2l0,0c-0.2,0.3-0.1,0.4,0.1,0.6
			c0.2,0.2,0.5,0.5,0.2,0.9c0,0.1-0.1,0.1-0.2,0.1c-0.1,0-0.1-0.1-0.1-0.2c0.1-0.2,0-0.4-0.2-0.6s-0.4-0.3-0.3-0.6h-0.1
			c-0.2,0.2-0.1,0.4,0,0.6c0.2,0.2,0.4,0.6,0,1c-0.1,0.1-0.2,0.1-0.2,0c-0.1-0.1-0.1-0.2,0-0.2c0.2-0.2,0.1-0.3,0-0.6
			c-0.1-0.2-0.3-0.4-0.2-0.7c-0.1,0-0.2,0-0.3-0.1c-0.2-0.1-0.3-0.3-0.3-0.6v-1.1l0,0v-0.1l0.1-1l0,0v-0.1l0.1-1.1
			c0,0,0-0.1-0.1-0.1l0,0v0.1c0,0.1-0.1,0.2-0.2,0.2c-0.1,0-0.2,0-0.2,0.1l0,0v0.1l-0.1,1.3c0,0,0,0,0,0.1l0,0v0.1l-0.1,1.3
			c0,0.2-0.1,0.3-0.2,0.5v0.7c0,0.3-0.2,0.5-0.4,0.6v0.3c0,0.2-0.1,0.3-0.3,0.4c0.1,0.1,0.2,0.3,0.2,0.4v0.2v0.1l-0.1,0.1
			c0,0-0.1,0-0.2,0c-0.2-0.1-0.3-0.1-0.5-0.1s-0.3,0-0.5,0.1h-0.2c0,0-0.1,0-0.1-0.1v-0.1v-0.2c0-0.2,0.1-0.3,0.2-0.4
			c-0.1-0.1-0.2-0.3-0.3-0.4v-0.3c-0.2-0.1-0.4-0.4-0.4-0.6V297c-0.1-0.1-0.2-0.3-0.2-0.5l-0.1-1.3v-0.1l0,0c0,0,0,0,0-0.1l-0.1-1.3
			v-0.1l0,0c0.1-0.7,0.4-1.4,0.9-1.9c0.6-0.6,1.4-0.9,2.2-0.9c0.1,0,0.1,0.1,0.2,0.1c0.6,0,1.2,0.3,1.7,0.7c0.5,0.4,0.7,1,0.8,1.7
			v0.1l0.1,1v0.1l0,0L42,295.6z M38.2,299.6L38.2,299.6c0-0.2-0.2-0.4-0.5-0.4c-0.2,0-0.4,0.2-0.4,0.4l0,0c0.1,0,0.3-0.1,0.5-0.1
			S38,299.6,38.2,299.6z M38.2,298.2h-1v0.1l0,0v0.4c0,0.1,0.1,0.2,0.3,0.2h0.2h0.2c0.1,0,0.3-0.1,0.3-0.2v-0.4l0,0V298.2z
			 M38.6,296.8h-1.8l0.1,0.9c0,0.1,0,0.1,0.1,0.2l0,0h0.1h1.3h0.1l0,0c0-0.1,0.1-0.1,0.1-0.2V297l0,0L38.6,296.8z M38.9,295.4h-2.3
			l0.1,1.1l0,0h2.2l0,0V295.4z M38.9,293.9h-2.3l0.1,1.2c0,0,0,0,0,0.1h2.1c0,0,0,0,0-0.1L38.9,293.9z M39.3,291.1
			c-0.7,0-1.3,0.3-1.8,0.8c-0.5,0.4-0.7,1-0.8,1.6h2.2l0.1-0.1l-0.5-0.5c-0.1-0.1-0.1-0.2,0-0.2c0.1-0.1,0.2-0.1,0.2,0l0.6,0.5l0,0
			c0,0,0,0,0.1,0L39.3,291.1L39.3,291.1z M40,292.6c0.1-0.1,0.2-0.1,0.2,0c0.1,0.1,0.1,0.2,0,0.2l-0.4,0.4c0,0,0,0,0,0.1h1.8
			c-0.1-0.5-0.3-1-0.7-1.3c-0.4-0.4-0.9-0.6-1.5-0.7v1.7l0,0L40,292.6z M41.4,295.7h-1.5v1.1c0,0.2,0.1,0.3,0.1,0.3
			c0.1,0.1,0.2,0.1,0.3,0l0.2-0.1c0.4-0.1,0.8-0.7,0.8-1.2L41.4,295.7L41.4,295.7z M41.7,295.4l-0.1-0.8h-1.8l-0.1,0.8H41.7
			L41.7,295.4z M41.7,294.3v-0.8H40l-0.1,0.8H41.7z M37.3,293.2L37.3,293.2c0.1,0,0.2,0,0.2-0.1c0.1-0.3,0.3-0.5,0.5-0.7
			s0.5-0.4,0.8-0.5c0.1,0,0.1-0.1,0.1-0.2s-0.1-0.1-0.2-0.1c-0.3,0.1-0.7,0.8-0.9,1s-0.4,0.1-0.5,0.4
			C37.2,293.1,37.2,293.2,37.3,293.2z M40.7,296.4L40.7,296.4c0.1,0,0.2-0.1,0.2-0.2s-0.1-0.2-0.2-0.2l0,0c-0.1,0-0.2,0.1-0.2,0.2
			S40.6,296.4,40.7,296.4z"/>
	</g>
</g>
<g display="none">
	<path display="inline" fill="#FFFFFF" stroke="#FFFFFF" stroke-miterlimit="10" d="M29.9,96.1h-7.3v13.3h10.7v-10L29.9,96.1z
		 M30,96.9l2.4,2.3H30V96.9z M23,109V96.6h6.6v3.1h3.2v9.3H23z"/>
	<path display="inline" fill="#FFFFFF" stroke="#FFFFFF" stroke-miterlimit="10" d="M31.4,100.8h-3.6c-0.1,0-0.2,0.1-0.2,0.2
		s0.1,0.2,0.2,0.2h3.6c0.1,0,0.2-0.1,0.2-0.2S31.5,100.8,31.4,100.8z"/>
	<path display="inline" fill="#FFFFFF" stroke="#FFFFFF" stroke-miterlimit="10" d="M26,100.2l-1,0.8l-0.3-0.3
		c-0.1-0.1-0.2-0.1-0.3,0c-0.1,0.1-0.1,0.2,0,0.3l0.5,0.4c0,0,0.1,0.1,0.2,0.1h0.1l1.1-0.9c0.1-0.1,0.1-0.2,0-0.3
		C26.2,100.1,26.1,100.1,26,100.2z"/>
	<path display="inline" fill="#FFFFFF" stroke="#FFFFFF" stroke-miterlimit="10" d="M31.4,103.2h-3.6c-0.1,0-0.2,0.1-0.2,0.2
		s0.1,0.2,0.2,0.2h3.6c0.1,0,0.2-0.1,0.2-0.2C31.6,103.3,31.5,103.2,31.4,103.2z"/>
	<path display="inline" fill="#FFFFFF" stroke="#FFFFFF" stroke-miterlimit="10" d="M26,102.6l-1,0.8l-0.3-0.3
		c-0.1-0.1-0.2-0.1-0.3,0c-0.1,0.1-0.1,0.2,0,0.3l0.5,0.4c0,0,0.1,0.1,0.2,0.1h0.1l1.1-0.9c0.1-0.1,0.1-0.2,0-0.3
		C26.2,102.6,26.1,102.5,26,102.6z"/>
	<path display="inline" fill="#FFFFFF" stroke="#FFFFFF" stroke-miterlimit="10" d="M31.4,105.7h-3.6c-0.1,0-0.2,0.1-0.2,0.2
		s0.1,0.2,0.2,0.2h3.6c0.1,0,0.2-0.1,0.2-0.2C31.6,105.8,31.5,105.7,31.4,105.7z"/>
	<path display="inline" fill="#FFFFFF" stroke="#FFFFFF" stroke-miterlimit="10" d="M26,105l-1,0.8l-0.3-0.3c-0.1-0.1-0.2-0.1-0.3,0
		c-0.1,0.1-0.1,0.2,0,0.3l0.5,0.4c0,0,0.1,0.1,0.2,0.1h0.1l1.1-0.9c0.1-0.1,0.1-0.2,0-0.3C26.2,105,26.1,105,26,105z"/>
</g>
<text transform="matrix(1.0243 0 0 1 52.7544 106.3301)" display="none" fill="#FFFFFF" enable-background="new    " font-family="'MyriadPro-Regular'" font-size="11.3618">My Lists</text>
<g>
	<path fill="#EF4025" d="M200.2,203.3c-1.5,0-2.9,0-4.2,0c-1.7,0-2.5-0.8-2.5-2.4c0-6.9,0-13.7,0-20.6c0-1.6,1-2.4,2.7-2.4
		c12.2,0,24.5,0,36.7,0c0.4,0,0.8,0,1.4,0c-1.3-1.4-2.4-2.7-3.6-4c-2.8-2.9-5.6-5.8-8.2-8.8c-0.4-0.4-0.9-0.8-1.3-1.2
		c-2.3-2.4-4.6-4.8-6.9-7.3c-2.8-2.9-5.5-5.8-8.2-8.7c-3.2-3.4-6.5-6.9-9.7-10.3c-2.8-3-5.6-5.9-8.4-8.9c-3.2-3.4-6.4-6.8-9.5-10.1
		c-2.8-2.9-5.5-5.9-8.3-8.8c-3.2-3.4-6.5-6.9-9.7-10.3c-2.7-2.9-5.4-5.7-8.1-8.6c-3.2-3.4-6.5-6.8-9.6-10.2c-1.5-1.6-3-3.1-4.5-4.7
		c-0.5-0.6-0.9-0.7-1.5,0c-2.3,2.7-4.7,5.4-7.1,8.1c-3.1,3.5-6.3,7.1-9.4,10.6c-2.4,2.7-4.8,5.4-7.3,8.1c-3,3.4-6,6.8-9,10.2
		c-2.4,2.7-4.8,5.3-7.2,8c-3.1,3.4-6.1,6.9-9.1,10.3c-2.4,2.7-4.7,5.3-7.1,7.9c-3.1,3.5-6.1,7-9.2,10.4c-2.3,2.6-4.7,5.2-7,7.8
		c-3.1,3.5-6.2,7-9.3,10.5c-2.3,2.6-4.6,5.2-6.9,7.8c-1.9,2.1-3.7,4.3-5.6,6.4c-0.3,0.3-0.4,0.6-0.4,1.1c0,0.2,0,0.4,0,0.6
		c0,79.6,0,159.2,0,238.8c0,1.2,0.3,1.6,1.5,1.5c6.1-0.1,12.2-0.1,18.3,0c1,0,1.3-0.2,1.3-1.3c0-15.8,0-31.7,0-47.5
		c0-1.3,0-2.5,0.8-3.7c0.9-1.4,2.1-1.8,3.6-1.6c1.5,0.2,2.3,1.2,2.9,2.4c0.4,0.8,0.5,1.7,0.5,2.6c0,6.4,0,12.8,0,19.2
		c0,0.9,0.2,1.2,1.1,1.2c7.1,0,14.2,0,21.4,0c0.9,0,1.1-0.3,1.1-1.1c0-6.5,0-12.9,0-19.4c0-1.1,0-2.1,0.7-3.1
		c0.9-1.3,1.9-1.9,3.4-1.8s2.4,1,3,2.3c0.4,0.8,0.6,1.7,0.6,2.6c0,16.6,0,33.2,0,49.8c0,1.4-0.4,2.7-1.4,3.7c-1,1.1-2.2,1.4-3.5,1.1
		c-1.5-0.4-2.4-1.7-2.6-3.2c-0.2-1.2-0.1-2.5-0.1-3.8c0-5.5,0-11,0-16.4c0-1-0.3-1.2-1.2-1.2c-7.1,0-14.2,0-21.3,0
		c-0.9,0-1.2,0.2-1.2,1.2c0,6.2,0,12.3,0,18.5c0,2.3-1.1,4-2.9,5.2c-0.5,0.3-1.1,0.4-1.7,0.4c-9.1,0-18.3,0-27.4,0
		c-1.7,0-2.4-0.8-2.5-2.5c0-0.4,0-0.9,0-1.3c0-81.2,0-162.3,0-243.5c0-1.9,0.4-3.4,1.7-4.8c7.3-8,14.5-16.2,21.7-24.4
		c9.2-10.3,18.3-20.6,27.5-31c7-7.9,14.1-15.8,21.1-23.8c8.6-9.7,17.3-19.4,25.9-29.2c2.1-2.4,3.8-2.8,6.3-0.2
		c12.8,13.7,25.6,27.3,38.4,40.9c3.8,4.1,7.7,8.2,11.5,12.3c4.9,5.2,9.9,10.5,14.8,15.7c4.1,4.3,8.2,8.7,12.3,13
		c4.8,5.1,9.6,10.2,14.5,15.3c3.7,4,7.4,8,11.2,11.9c0.6,0.6,0.8,1.3,0.8,2.1c0,6.6,0,13.2,0,19.8c0,1.8-1,2.8-2.8,2.9
		c-1.2,0-2.4,0-3.8,0c1.4,2.3,2.8,4.4,4.2,6.6c8,12.5,15.9,25.1,23.9,37.6c0.9,1.4,1.2,2.8,1.2,4.4c0,33.9,0,67.8,0,101.8
		c0,1.2-0.3,2.4-0.1,3.6c0.1,0.7-0.4,0.9-0.8,1.2c-4.8,3.2-9.9,6-15.3,8.1c-13,5.3-26.5,7.6-40.4,7.2c-12.5-0.4-24.6-2.9-36.1-8
		c-1.2-0.5-2.2-0.6-3.4,0.1c-7.1,3.6-14.6,5.7-22.5,6.4c-1.4,0.1-2.9,0.5-4.3,0.4c-8.3,0-16.3-1.4-24.1-4.3c-3.1-1.2-6.1-2.6-9-4.2
		c-4.5-2.4-8.5-5.7-12.3-9.2c-4-3.8-7.5-8.1-10.6-12.7c-2-3-3.8-6.2-5.1-9.5c-2.7-6.7-4.5-13.5-5.2-20.7c-0.7-7.7-0.3-15.4,1.7-22.9
		c3.3-12.4,9.4-23.3,18.6-32.2c3.2-3.1,6.7-5.9,10.5-8.3c0.6-0.4,1.8-0.9,2.4-0.6c0.7,0.3,1,1,1.1,1.7c0.4,2.5-1.8,4.1-3.8,5.6
		c-12,8.6-19.9,20.1-23.5,34.5c-3.7,15-2.3,29.6,4.5,43.5c3.2,6.6,7.5,12.5,12.9,17.4c3.3,3,6.7,5.8,10.6,8
		c12.1,7.1,25.1,9.6,38.9,7.4c8.9-1.4,17.1-4.7,24.4-10c4.5-3.2,8.6-7,12.1-11.3c2.8-3.4,5.1-7.1,7.2-11c2-3.8,3.7-7.7,4.6-11.9
		c0.5-2.4,0.9-4.8,1.4-7.2c0.9-4.4,1-8.7,0.7-13.1c-0.8-13.8-5.7-26-14.6-36.6c-4-4.7-8.6-8.7-13.8-12.1c-0.7-0.5-1.6-0.7-2.1-1.5
		c-0.7-1.1-0.6-2.1,0-3c4-6.4,8.1-12.7,12.1-19.1c5.2-8.1,10.4-16.3,15.5-24.4C199.6,204.3,199.8,203.9,200.2,203.3z M261,303
		L261,303c0-17,0-33.9,0-50.9c0-0.7-0.1-1.3-0.5-1.9c-9.7-15.3-19.5-30.6-29.1-46c-0.4-0.7-0.8-1-1.7-1c-7.1,0-14.2,0-21.4,0
		c-0.8,0-1.2,0.3-1.7,0.9c-4.8,7.6-9.6,15.1-14.3,22.6c-4.6,7.2-9.1,14.4-13.7,21.5c-0.4,0.7-0.4,1,0.3,1.5c1,0.7,2,1.4,3,2.2
		c19.4,16,27.3,36.7,25.2,61.6c-0.4,5-1.7,9.9-3.4,14.6c-4.8,13.3-12.9,24.2-24.4,32.4c-0.3,0.2-0.8,0.4-0.8,0.8s0.6,0.4,0.9,0.6
		c6.4,2.6,13.1,4.4,19.9,5.4c15.7,2.3,31.2,0.9,46.1-4.7c5.2-1.9,10.1-4.4,14.8-7.4c0.5-0.3,0.8-0.5,0.8-1.3
		C261,337.1,261,320,261,303z M218.8,197.3c6.2,0,12.4,0,18.5,0c0.8,0,1-0.2,1-1c0-3.9,0-7.8,0-11.7c0-0.7-0.2-0.9-0.9-0.9
		c-12.4,0-24.8,0-37.2,0c-0.7,0-0.9,0.2-0.9,0.9c0,3.9,0,7.8,0,11.7c0,0.8,0.2,1,1,1C206.5,197.3,212.6,197.3,218.8,197.3z"/>
	<path fill="#EF4025" d="M280,205.9c0,1.3-1.2,2.1-2.3,2.8c-1,0.7-2.1,0.2-3.2-0.7c-2-1.9-3.8-4-5.7-5.9c-2.5-2.6-5-5.2-7.4-7.8
		c-2.8-2.9-5.5-5.9-8.3-8.8c-3.4-3.6-6.7-7.1-10.1-10.7c-2.8-3-5.6-5.9-8.4-8.9c-3.3-3.5-6.7-7.1-10-10.6c-2.8-3-5.7-6-8.5-9
		c-3.3-3.5-6.6-7-9.9-10.5c-2.8-3-5.6-5.9-8.4-8.9c-3.3-3.5-6.7-7-10-10.6c-10.2-11.3-20.9-22.2-31.3-33.4c-6-6.4-12-12.8-18-19.2
		c-0.6-0.6-0.9-0.8-1.6,0c-10,11.3-20,22.5-29.9,33.7c-12.1,13.1-24,26.6-35.9,40c-9.3,10.5-18.7,21-28,31.5
		c-4.2,4.7-8.4,9.4-12.6,14.1c-3.4,3.8-6.9,7.7-10.3,11.6c-4.1,4.6-8.3,9.3-12.4,14c-1.4,1.6-2.9,1.5-4.6,0c-1.3-1.2-1.3-3.1,0-4.4
		c3-3.2,5.8-6.5,8.8-9.8c2.1-2.2,4.1-4.5,6.1-6.8c2.7-3.2,5.6-6.2,8.3-9.4c2-2.3,4.1-4.5,6.1-6.8c2.7-3.2,5.6-6.2,8.3-9.4
		c2-2.3,4.1-4.5,6.1-6.8c2.7-3.2,5.6-6.2,8.3-9.4c3.4-3.8,6.7-7.6,10.1-11.4c2.8-3.1,5.5-6.3,8.3-9.4s5.5-6.2,8.2-9.3
		c2.7-3.1,5.5-6.2,8.3-9.3c3.4-3.8,6.8-7.7,10.2-11.5c2.7-3.1,5.4-6.2,8.2-9.2c2.3-2.5,4.5-5.2,6.8-7.8c2.5-2.8,5-5.6,7.5-8.4
		c2.3-2.6,4.5-5.2,6.8-7.7c2-2.2,4-4.5,6.1-6.7c0.9-0.9,3.2-0.6,4.2,0.5c3,3.1,5.9,6.3,8.9,9.4c4.7,4.9,9.3,9.9,14,14.8
		c4.6,4.9,9.2,9.7,13.7,14.6c4.7,4.9,9.3,9.9,14,14.8c4.5,4.8,9.1,9.7,13.6,14.5c4.7,4.9,9.3,9.9,14,14.8c4.6,4.9,9.3,9.8,13.9,14.7
		c4.6,4.9,9.3,9.8,13.9,14.7c4.5,4.8,9.1,9.7,13.6,14.5c4.7,4.9,9.3,9.9,14,14.8c1.9,2.1,3.8,4.2,5.8,6.2
		C279.7,204.2,279.9,204.8,280,205.9z"/>
	<path fill="#23572E" d="M115.7,261.3c0.4-0.8,1.3-1,1.9-1.5c2.1-2,3.2-4.7,4.7-7.1c0.8-1.4,1.6-2.8,2.9-3.7
		c-4.2-2.6-7.2-6.3-9.8-10.5c1.1-0.1,2,0.4,3,0.5c2.6,0.1,5-0.6,7.4-1.2c5.8-1.5,9.7,0.9,12.9,5.2c0.2,0.2,0.7,1,0.7,0.9
		c0-1.9,0-3.9,0-5.7c0-2.3,0.1-4.6,0.1-6.9c0-1,0.1-1.9,1-2.4c1.2-0.7,2.6-0.7,3.8,0c1,0.6,1.1,1.6,1.1,2.7c0,2.1-0.1,4.1-0.1,6.2
		c0,2.1,0,4.1,0,6.1c0.6-0.7,1.1-1.6,1.8-2.4c3.2-3.5,7.1-4.8,11.5-3.6c2.2,0.6,4.5,1.7,6.8,1.6c1,0,2-0.4,3.2-0.5
		c-3,4.6-6.2,8.6-11,11.2c2.8,3.5,3.6,8.4,8.1,10.8c-6.9,1.3-14.4,1-18.2-2.4c-1.3,5.1-4.1,9.3-7.6,13.3c-0.5-1.1,0-2.1-0.3-3
		c-0.5-2-1.4-3.8-2.4-5.6c-0.8-1.4-1.6-2.9-2.2-4.5c-0.2-0.5-0.2-0.6-0.6-0.3c-3.1,2.8-7,3.5-11,3.6c-2.1,0.1-4.3,0-6.4-0.2
		C116.5,261.6,116.1,261.5,115.7,261.3z"/>
	<path fill="#EF4025" d="M155.9,403.3c0,2.5,0,4.7,0,7c0,4.8,0,9.6,0,14.4c0,1.4-0.9,2.6-2.2,2.9s-2.6-0.3-3.3-1.5
		c-0.3-0.5-0.2-0.9-0.2-1.4c0-10.1,0-20.2,0-30.3c0-1.2,0.4-2.3,1.5-2.8c1.3-0.5,2.9-0.1,3.7,1.1c3.2,4.4,6.3,8.8,9.5,13.2
		c0.5,0.6,0.6,0.9,1.2,0.1c3.1-4.3,6.2-8.6,9.3-13c0.9-1.2,2.3-1.8,3.7-1.4c1.1,0.3,1.9,1.5,1.9,3.1c0,10,0,19.9,0,29.9
		c0,1.9-1.2,3-3.1,3c-1.6,0-2.6-1.1-2.6-3c0-6.6,0-13.2,0-19.8c0-0.4,0.3-0.9-0.2-1c-0.4-0.1-0.5,0.4-0.7,0.7
		c-2.1,2.8-4.1,5.6-6.2,8.4c-1.6,2.3-3.6,2.4-5.2,0.2C160.6,409.9,158.4,406.7,155.9,403.3z"/>
	<path fill="#23572E" d="M110.1,409.4c0-10.1,7.8-18.1,18-18c10,0.1,17.8,7.9,17.8,18c0,10.2-7.9,17.9-17.9,18.1
		C118.3,427.8,109.7,419.1,110.1,409.4z M115.8,409.4c0,6.8,5.5,12.4,12.2,12.4c6.6,0.1,12.2-5.5,12.3-12.3
		c0.1-6.7-5.5-12.4-12.2-12.4C121.3,397.1,115.8,402.6,115.8,409.4z"/>
	<path fill="#EF4025" d="M210,409.8c0-4.8,0.1-9.7,0-14.5c0-2.8,1.1-3.7,3.8-3.8c3-0.1,6,0,9,0c5.7,0,9.9,3.7,10.8,9.1
		c0.7,4.4-0.8,8.1-5.2,10.7c-0.8,0.5-1,0.8-0.5,1.6c1.9,3.4,3.7,6.9,5.5,10.4c0.5,1,0.6,2.1-0.1,3.1c-0.7,1-1.6,1.4-2.8,1.2
		c-1-0.1-1.5-0.6-1.9-1.4c-1.9-3.7-3.8-7.3-5.7-11c-0.3-0.6-0.9-1.2-1-1.9c-0.1-0.5-0.5-0.4-0.8-0.4c-1.5,0-3,0-4.5,0
		c-0.8,0-0.9,0.3-0.9,1c0,3.6,0,7.2,0,10.8c0,2.2-1.8,3.5-3.9,2.8c-1.2-0.4-1.6-1.3-1.6-2.5c0-0.1,0-0.2,0-0.2
		C210,419.6,210,414.7,210,409.8z M215.5,402.1c0,1.4,0,2.9,0,4.3c0,0.4,0,0.8,0.6,0.8c2.6,0,5.2,0.1,7.8-0.1
		c2.5-0.2,4.4-2.7,4.2-5.1c-0.2-2.6-2.3-4.8-4.8-4.8c-2.3,0-4.6,0-7,0c-0.6,0-0.9,0.2-0.9,0.9C215.5,399.3,215.5,400.7,215.5,402.1z
		"/>
	<path fill="#EF4025" d="M185.2,409.3c0-4.9,0-9.8,0-14.8c0-2.3,0.9-3.2,3.1-3.2c5.2,0,10.5,0,15.7,0c1.7,0,2.9,1,3.2,2.5
		c0.2,1.1-0.6,2.4-1.8,3c-0.5,0.2-0.9,0.2-1.4,0.2c-4,0-7.9,0-11.9,0c-0.9,0-1.2,0.1-1.2,1.1c0.1,2.5,0.1,5.1,0,7.6c0,0.8,0.2,1,1,1
		c4.1,0,8.1,0,12.2,0c1.8,0,3.2,1.2,3.2,2.8c0,1.6-1.3,2.8-3.1,2.8c-4.1,0-8.1,0-12.2,0c-0.8,0-1.1,0.2-1.1,1.1
		c0.1,2.4,0.1,4.8,0,7.3c0,0.9,0.2,1.2,1.1,1.2c3.9-0.1,7.9,0,11.8,0c1.8,0,2.7,0.5,3.2,2c0.6,1.6-0.7,3.6-2.4,3.7
		c-5.7,0-11.3,0-17,0c-1.4,0-2.4-1.1-2.4-2.7C185.2,419.7,185.2,414.5,185.2,409.3z"/>
	<path fill="#EF4025" d="M249.2,418.9c0-1.6-0.1-3.2,0-4.8c0.1-1.5-0.4-2.6-1.3-3.7c-3.6-4.7-7.1-9.4-10.6-14c-0.7-1-0.4-3.2,0.5-4
		c1.2-0.9,3.2-0.6,4.2,0.7c1.4,1.8,2.7,3.6,4,5.4c1.8,2.4,3.6,4.8,5.3,7.2c0.5,0.7,0.9,0.6,1.3,0c1.9-2.6,3.9-5.2,6-7.7
		c1.3-1.6,2.4-3.2,3.8-4.7c1.1-1.2,2.7-1.2,3.9-0.2c1.1,1,1.3,2.7,0.4,3.9c-2.8,3.6-5.6,7.1-8.5,10.7c-1,1.2-1.9,2.5-2.9,3.7
		c-0.4,0.5-0.5,1-0.5,1.6c0,3.8,0,7.6,0,11.4c0,2.2-1,3.2-3.1,3.2c-1.4,0-2.4-1-2.5-2.5C249.2,423,249.2,421,249.2,418.9
		L249.2,418.9z"/>
	<path fill="#23572E" d="M92.2,437.6c0,1.9,0,3.7,0,5.6c0,0.3,0.2,0.8-0.4,0.8s-0.4-0.5-0.4-0.8c0-2,0-4,0-6.1c0-0.4-0.3-0.9,0.5-1
		c0.5,0,1,0,1.2,0.7c0.6,1.6,1.2,3.2,1.8,4.8c0.1,0.2,0.1,0.4,0.4,0.5c0.6-1.6,1.2-3.2,1.7-4.8c0.1-0.3,0.3-0.5,0.4-0.8
		c0.3-0.6,0.8-0.3,1.3-0.3s0.3,0.5,0.3,0.8c0,2.1,0,4.1,0,6.2c0,0.3,0.3,0.9-0.4,0.9c-0.8,0-0.5-0.6-0.5-0.9c0-1.5,0-2.9,0-4.4
		c0-0.2,0.1-0.5-0.2-0.6c-0.4,0-0.2,0.3-0.3,0.5c-0.6,1.5-1.1,3.1-1.7,4.6c-0.1,0.3-0.2,0.8-0.7,0.9c-0.6,0-0.4-0.5-0.6-0.7
		c-0.7-1.6-1.3-3.3-1.9-5C92.6,438.1,92.7,437.7,92.2,437.6z"/>
	<path fill="#23572E" d="M124.4,442.2c0,0.3,0,0.6,0,0.8c0,0.4,0.2,0.9-0.1,1.1c-0.5,0.3-0.5-0.3-0.7-0.5c-0.3-0.2-0.4,0-0.6,0.1
		c-2.5,1.4-4.5-0.2-4.8-2.7c-0.1-1.4-0.2-2.7,0.7-3.9c0.7-0.9,1.7-1.3,2.8-1.2c1,0.1,2,0.5,2.3,1.7c0.1,0.2,0.5,0.4,0,0.6
		c-0.2,0.1-0.5,0.4-0.7-0.1c-0.5-1-1.4-1.5-2.4-1.2s-1.3,1.2-1.6,2.2c-0.3,1-0.1,1.9,0.3,2.8c0.5,1.3,2.2,1.7,3.2,0.8
		c0.4-0.4,0.8-0.8,0.6-1.5c-0.2-0.8-0.8-0.3-1.2-0.4c-0.3-0.1-0.7,0-0.7-0.6c0-0.5,0.4-0.4,0.7-0.4
		C124.4,439.8,124.4,439.8,124.4,442.2z"/>
	<path fill="#23572E" d="M254.3,443.9c-0.8,0.2-1.1,0-1.3-0.7s-0.7-1.3-1-2.1c-0.3-0.9-1.2-0.4-1.9-0.4c-0.7-0.1-0.4,0.5-0.4,0.8
		c0,0.7,0,1.3,0,2c0,0.3,0,0.5-0.4,0.5c-0.3,0-0.5,0-0.5-0.4c0-2.3,0-4.7,0-7c0-0.3,0.2-0.4,0.4-0.4c1.2,0.1,2.4-0.2,3.6,0.2
		c0.9,0.3,1.3,0.9,1.5,1.7c0.2,0.8-0.1,1.5-0.8,1.9c-0.5,0.3-0.6,0.6-0.3,1.1C253.6,442,253.9,443,254.3,443.9z M251,437.1
		c-0.4,0.1-1.1-0.3-1.3,0.2c-0.2,0.7-0.2,1.5,0,2.2c0.1,0.4,0.9,0.2,1.3,0.2c1.6,0,2.3-0.4,2.3-1.4
		C253.4,437.5,252.7,437.1,251,437.1z"/>
	<path fill="#23572E" d="M134.6,443.9c-0.7,0.2-1.1,0-1.3-0.6c-0.2-0.8-0.7-1.4-1-2.2c-0.3-0.9-1.2-0.4-1.9-0.4
		c-0.7-0.1-0.4,0.5-0.4,0.8c0,0.7,0,1.3,0,2c0,0.3-0.1,0.5-0.4,0.4c-0.3,0-0.5,0-0.5-0.4c0-2.3,0-4.7,0-7c0-0.3,0.2-0.4,0.4-0.4
		c1.2,0.1,2.4-0.2,3.6,0.2c0.9,0.3,1.3,0.9,1.5,1.7c0.1,0.8-0.1,1.5-0.8,1.9c-0.5,0.3-0.5,0.6-0.3,1.1
		C133.8,442,134.2,443,134.6,443.9z M131.3,437.1c-0.3,0.2-1.1-0.4-1.3,0.2s-0.2,1.5,0,2.1s0.9,0.2,1.4,0.2c1.6,0,2.4-0.4,2.3-1.4
		C133.5,437,132.4,437.1,131.3,437.1z"/>
	<path fill="#23572E" d="M173.1,443.9c-0.7,0.2-1.1,0-1.3-0.7s-0.7-1.3-1-2.1c-0.3-1-1.3-0.4-2-0.5c-0.7,0-0.3,0.6-0.4,0.9
		c-0.1,0.6,0,1.3,0,1.9c0,0.3-0.1,0.5-0.5,0.5s-0.5-0.2-0.5-0.5c0-2.3,0-4.6,0-6.9c0-0.3,0.1-0.5,0.4-0.5c1.2,0.1,2.4-0.2,3.6,0.2
		c0.9,0.3,1.3,0.8,1.5,1.7c0.2,0.8-0.1,1.5-0.7,1.9c-0.6,0.4-0.6,0.7-0.3,1.2C172.3,442.1,172.7,443,173.1,443.9z M169.9,439.7
		c0.4,0,0.8,0,1.2-0.1c0.8-0.2,1.3-1.1,0.9-1.8c-0.3-0.6-3-1.1-3.5-0.6c0,0-0.1,0.1-0.1,0.2c0,0.7-0.2,1.5,0.1,2.1
		C168.7,440,169.4,439.6,169.9,439.7z"/>
	<path fill="#23572E" d="M87.2,440.1c0,1.6-0.4,3.2-2,3.8c-1.8,0.8-3.2,0.5-4.3-2.1c-0.5-1.2,0.1-4,1-5c1.5-1.7,4-0.9,4.8,0.9
		C87.1,438.5,87.2,439.3,87.2,440.1z M86.2,440c0-0.6,0-1.1-0.2-1.6c-0.4-0.9-0.9-1.5-2-1.5c-1,0-1.6,0.7-1.9,1.5
		c-0.5,1.3-0.5,2.6,0.2,3.8c0.4,0.7,0.9,1.2,1.8,1.1c0.9,0,1.4-0.5,1.7-1.2C86.1,441.4,86.3,440.7,86.2,440z"/>
	<path fill="#23572E" d="M144.6,439.8c0,1.9-0.5,3.4-1.9,4.2c-1.8,1-4.2-0.1-4.5-2.3c-0.2-1.4-0.3-2.8,0.5-4.2
		c0.7-1.1,1.5-1.6,2.7-1.5c1.3,0.1,2.2,0.8,2.7,1.9C144.5,438.5,144.6,439.3,144.6,439.8z M143.6,440c0.1-0.8-0.1-1.5-0.5-2.2
		c-0.7-1.2-2.2-1.3-3.1-0.3c-1.1,1.2-1.1,3.9,0,5.1c0.9,1,2.3,0.9,3-0.2C143.5,441.7,143.6,440.9,143.6,440z"/>
	<path fill="#23572E" d="M223.6,442.2c0-1.8,0-3.6,0-5.3c0-0.3-0.2-0.8,0.4-0.8c0.5,0,0.3,0.4,0.3,0.7c0,2.1,0,4.1,0,6.2
		c0,0.3,0.2,0.8-0.2,0.9c-0.5,0.1-0.9,0-1.2-0.5c-1.1-1.9-2.2-3.8-3.3-5.7c-0.1-0.1-0.1-0.2-0.3-0.5c0,2,0,3.9,0,5.7
		c0,0.3,0.3,1-0.4,1c-0.6,0-0.3-0.6-0.3-0.9c0-1.9,0-3.9,0-5.8c0-0.4-0.3-0.9,0.4-1.1c0.5-0.1,0.9,0.1,1.2,0.6
		c0.9,1.6,1.9,3.2,2.8,4.8C223.1,441.9,223.2,442.1,223.6,442.2z"/>
	<path fill="#23572E" d="M229.9,437.3c0,2.1,0,3.9,0,5.7c0,0.3,0.3,1-0.4,1c-0.6,0-0.3-0.6-0.4-0.9c0-2,0-4,0-6
		c0-0.3-0.3-0.8,0.4-0.9c0.5-0.1,0.9,0,1.2,0.6c0.9,1.6,1.9,3.2,2.8,4.8c0.1,0.3,0.3,0.5,0.6,0.8c0-1.9,0-3.7,0-5.4
		c0-0.3-0.3-0.9,0.4-0.9c0.6,0,0.3,0.6,0.3,0.9c0,1.9,0,3.9,0,5.8c0,0.4,0.3,0.9-0.3,1.1c-0.5,0.1-0.8-0.1-1.1-0.6
		c-1-1.9-2.2-3.7-3.2-5.6C230.2,437.7,230.1,437.6,229.9,437.3z"/>
	<path fill="#23572E" d="M76.5,440.1c0,1.1,0,2.2,0,3.3c0,0.4,0,0.6-0.5,0.6s-0.5-0.3-0.5-0.6c0-0.2,0-0.3,0-0.5
		c0-2.8,0-2.8-2.8-2.8c-0.6,0-0.9,0.1-0.9,0.8c0.1,0.8,0,1.6,0,2.4c0,0.3,0,0.6-0.5,0.6s-0.5-0.2-0.5-0.6c0-2.2,0-4.4,0-6.7
		c0-0.3,0-0.6,0.5-0.6s0.5,0.3,0.5,0.6c0,0.1,0,0.2,0,0.2c0.1,0.7-0.3,1.9,0.2,2.1c0.9,0.4,2,0.1,3,0.1c0.3,0,0.3-0.3,0.3-0.5
		c0-0.3-0.1-0.6,0-0.8c0.2-0.6-0.6-1.7,0.6-1.7c1.1,0,0.4,1.2,0.5,1.8C76.6,438.6,76.5,439.4,76.5,440.1z"/>
	<path fill="#23572E" d="M239.5,440c0-1,0-2.1,0-3.1c0-0.6,0.1-0.9,0.8-0.8c1.2,0.1,2.4,0,3.5,0c0.3,0,0.6-0.1,0.7,0.4
		c0,0.6-0.3,0.5-0.7,0.5c-0.9,0-1.7,0.1-2.6,0c-1.1-0.1-0.7,0.6-0.8,1.2c0,0.6-0.1,1.1,0.8,1c0.6-0.1,1.3,0,1.9,0
		c0.4,0,0.6,0.1,0.6,0.5s-0.3,0.4-0.6,0.4c-0.4,0-0.7,0-1.1,0c-1.6,0-1.6,0-1.7,1.6c-0.1,1,0.2,1.4,1.3,1.3c0.8-0.1,1.6,0,2.4,0
		c0.3,0,0.6,0,0.6,0.5s-0.3,0.5-0.6,0.5c-1.3,0-2.5,0-3.8,0c-0.6,0-0.7-0.2-0.7-0.8C239.5,442.2,239.5,441.1,239.5,440z"/>
	<path fill="#23572E" d="M103.7,440c0-1,0-2.1,0-3.1c0-0.6,0.2-0.8,0.8-0.8c1.1,0,2.3,0,3.4,0c0.3,0,0.7-0.2,0.7,0.5
		c0,0.6-0.4,0.5-0.7,0.5c-0.9,0-1.8,0-2.7,0c-0.9,0-0.6,0.7-0.6,1.1s-0.4,1.1,0.6,1.1c0.7,0,1.3,0,2,0c0.3,0,0.6,0,0.6,0.4
		c0,0.5-0.2,0.5-0.6,0.5c-0.2,0-0.4,0-0.6,0c-2.2,0-2.2,0-2.1,2.2c0,0.5,0.2,0.7,0.7,0.6c0.9,0,1.9,0,2.8,0c0.4,0,0.7,0,0.7,0.5
		s-0.4,0.4-0.7,0.4c-1.3,0-2.5,0-3.8,0c-0.6,0-0.7-0.3-0.7-0.8C103.7,442.2,103.7,441.1,103.7,440z"/>
	<path fill="#23572E" d="M158.5,440.1c0-1,0-2.1,0-3.1c0-0.6,0.1-0.9,0.8-0.8c1.2,0.1,2.4,0,3.5,0c0.4,0,0.7,0,0.7,0.5
		s-0.4,0.4-0.7,0.4c-0.9,0-1.8,0-2.7,0c-1-0.1-0.6,0.7-0.6,1.2s-0.2,1.1,0.7,1c0.7-0.1,1.3,0,2,0c0.4,0,0.6,0.1,0.6,0.5
		s-0.3,0.4-0.6,0.4c-0.4,0-0.8,0-1.2,0c-1.5,0-1.5,0-1.5,1.6c-0.1,1,0.2,1.4,1.3,1.3c0.8-0.1,1.6,0,2.4,0c0.3,0,0.6,0,0.6,0.5
		s-0.3,0.5-0.6,0.5c-1.3,0-2.5,0-3.8,0c-0.6,0-0.7-0.2-0.7-0.8C158.5,442.2,158.5,441.1,158.5,440.1z"/>
	<path fill="#23572E" d="M154.4,438.4c-0.3,0.1-0.6,0.2-1,0.3c-0.4-1.8-1.3-2-2.2-1.9c-1.1,0.2-1.5,1.1-1.7,2.2
		c-0.2,0.8-0.2,1.6,0.1,2.4c0.2,0.9,0.7,1.6,1.6,1.8c0.9,0.2,1.6-0.3,2.1-1.1c0.2-0.3,0.3-1,0.9-0.5c0.3,0.3,0.1,0.6-0.1,0.9
		c-0.4,1.3-2.1,1.8-3.3,1.6c-1.1-0.2-2.4-1.8-2.4-3c0-1.1-0.3-2.2,0.3-3.2c0.8-1.6,1.6-2.2,3.1-2.1
		C153.1,436,153.8,436.7,154.4,438.4z"/>
	<path fill="#23572E" d="M191.8,440c0-0.6,0-1.3,0-1.9c0.1-0.6-0.3-1.4,0.2-1.9c0.4-0.4,3.7,0.1,4.2,0.5c0.7,0.6,1.1,1.4,0.8,2.4
		c-0.3,1.2-1.2,1.8-2.6,1.8c-1.7,0-1.7,0-1.7,1.7c0,0.3,0,0.6,0,0.8c0,0.3,0,0.5-0.4,0.5s-0.5-0.2-0.5-0.6v-0.1
		C191.8,442.2,191.8,441.1,191.8,440z M192.8,438.5c-0.2,1,0,1.6,1.2,1.5c1.4-0.1,2.1-0.5,2.2-1.4c0-1-0.7-1.4-2.1-1.5
		C193,437,192.5,437.3,192.8,438.5z"/>
	<path fill="#23572E" d="M208.7,443.4c0.6-2.3,1.4-4.6,2.2-6.8c0.2-0.5,0.4-0.4,0.8-0.5c0.5,0,0.5,0.2,0.7,0.6
		c0.7,2.2,1.4,4.3,2.1,6.5c0.1,0.3,0.5,0.6-0.1,0.8c-0.4,0.1-0.8,0-0.9-0.5v-0.1c-0.7-1.8-0.7-1.7-2.6-1.8c-0.7,0-1.1,0.2-1.2,0.9
		c-0.1,0.4-0.2,0.7-0.3,1.1c-0.1,0.3-0.3,0.5-0.6,0.4S208.7,443.6,208.7,443.4z M212.8,440.6c-0.4-1.1-0.8-2.2-1.2-3.5
		c-0.4,1.4-0.8,2.4-1.1,3.5C211.3,440.6,212,440.6,212.8,440.6z"/>
	<path fill="#23572E" d="M176.3,436.2c0.9-0.3,1.3,0.1,1.7,0.9c0.3,0.7,0.8,1.3,1.2,2c0.3,0.6,0.5,0.5,0.7,0
		c0.4-0.8,0.8-1.5,1.2-2.2c0.3-0.4,0.6-1,1.3-0.6c-0.4,0.6-0.6,1.3-1.1,1.9c-1.2,1.6-1.7,3.3-1.4,5.2c0,0.4,0.1,0.7-0.5,0.7
		c-0.4,0-0.5-0.2-0.5-0.5C179.6,440.5,177.5,438.5,176.3,436.2z"/>
	<path fill="#23572E" d="M201.1,440c0-1.1,0-2.1,0-3.2c0-0.3,0-0.6,0.5-0.6s0.4,0.3,0.4,0.6c0,1.8,0,3.6,0,5.3c0,0.7,0.1,1,0.9,0.9
		c0.7-0.1,1.5,0,2.2,0c0.3,0,0.6,0,0.6,0.5s-0.3,0.5-0.6,0.5c-1.1,0-2.3,0-3.4,0c-0.6,0-0.6-0.3-0.6-0.7
		C201.1,442.2,201.1,441.1,201.1,440z"/>
	<path display="none" fill="#FFFFFF" d="M261,303c0,17,0,34.1,0,51.1c0,0.7-0.4,1-0.8,1.3c-4.7,3-9.6,5.4-14.8,7.4
		c-15,5.6-30.4,7-46.1,4.7c-6.8-1-13.5-2.8-19.9-5.4c-0.3-0.1-0.9-0.2-0.9-0.6s0.5-0.6,0.8-0.8c11.5-8.2,19.6-19,24.4-32.4
		c1.7-4.7,3-9.6,3.4-14.6c2.1-24.9-5.8-45.7-25.2-61.6c-0.9-0.8-1.9-1.5-3-2.2c-0.7-0.5-0.7-0.8-0.3-1.5c4.6-7.2,9.1-14.3,13.7-21.5
		c4.8-7.5,9.6-15.1,14.3-22.6c0.4-0.7,0.9-1,1.7-0.9c7.1,0,14.2,0,21.4,0c0.8,0,1.2,0.3,1.7,1c9.7,15.3,19.4,30.7,29.1,46
		c0.4,0.6,0.5,1.2,0.5,1.9C261,269.1,261,286,261,303L261,303z"/>
	<path display="none" fill="#FFFFFF" d="M218.8,197.3c-6.1,0-12.3,0-18.4,0c-0.8,0-1-0.2-1-1c0-3.9,0-7.8,0-11.7
		c0-0.7,0.2-0.9,0.9-0.9c12.4,0,24.8,0,37.2,0c0.7,0,0.9,0.2,0.9,0.9c0,3.9,0,7.8,0,11.7c0,0.8-0.2,1-1,1
		C231.1,197.3,224.9,197.3,218.8,197.3z"/>
	<path display="none" fill="#FFFFFF" d="M115.8,409.4c0-6.7,5.6-12.3,12.3-12.3c6.7,0,12.3,5.7,12.2,12.4
		c-0.1,6.8-5.7,12.4-12.3,12.3C121.2,421.7,115.7,416.1,115.8,409.4z"/>
	<path display="none" fill="#FFFFFF" d="M215.5,402.1c0-1.4,0-2.8,0-4.2c0-0.7,0.2-0.9,0.9-0.9c2.3,0,4.6,0,7,0
		c2.5,0,4.6,2.2,4.8,4.8c0.2,2.5-1.8,5-4.2,5.1c-2.6,0.2-5.2,0.1-7.8,0.1c-0.6,0-0.6-0.3-0.6-0.8
		C215.5,404.9,215.5,403.5,215.5,402.1z"/>
	<path display="none" fill="#FFFFFF" d="M251,437.1c1.7,0,2.3,0.4,2.3,1.2c0,1-0.7,1.4-2.3,1.4c-0.5,0-1.2,0.2-1.3-0.2
		c-0.2-0.7-0.2-1.5,0-2.2C249.9,436.8,250.6,437.2,251,437.1z"/>
	<path display="none" fill="#FFFFFF" d="M131.3,437.1c1.1,0,2.2-0.1,2.3,1.2c0.1,1-0.7,1.4-2.3,1.4c-0.5,0-1.2,0.3-1.4-0.2
		c-0.2-0.6-0.2-1.5,0-2.1C130.2,436.7,131,437.3,131.3,437.1z"/>
	<path fill="#FFFFFF" d="M169.9,439.7c-0.5-0.1-1.2,0.3-1.4-0.2c-0.2-0.6-0.1-1.4-0.1-2.1c0-0.1,0-0.2,0.1-0.2
		c0.5-0.5,3.2,0,3.5,0.6c0.4,0.7-0.1,1.7-0.9,1.8C170.7,439.7,170.3,439.7,169.9,439.7z"/>
	<path display="none" fill="#FFFFFF" d="M86.2,440c0.1,0.7-0.1,1.4-0.4,2.1c-0.4,0.7-0.9,1.2-1.7,1.2c-0.9,0-1.4-0.4-1.8-1.1
		c-0.6-1.2-0.7-2.5-0.2-3.8c0.3-0.8,0.9-1.5,1.9-1.5c1.1,0,1.6,0.6,2,1.5C86.2,438.9,86.2,439.5,86.2,440z"/>
	<path display="none" fill="#FFFFFF" d="M143.6,440c0,0.9-0.1,1.7-0.6,2.4c-0.8,1.1-2.1,1.2-3,0.2c-1.1-1.2-1.1-3.9,0-5.1
		c0.9-1,2.4-0.9,3.1,0.3C143.5,438.5,143.7,439.2,143.6,440z"/>
	<path display="none" fill="#FFFFFF" d="M192.8,438.5c-0.4-1.2,0.2-1.4,1.3-1.4c1.4,0.1,2.1,0.5,2.1,1.5c0,0.9-0.7,1.3-2.2,1.4
		C192.8,440.1,192.6,439.5,192.8,438.5z"/>
	<path display="none" fill="#FFFFFF" d="M212.8,440.6c-0.8,0-1.6,0-2.4,0c0.4-1.1,0.7-2.2,1.1-3.5
		C212.1,438.4,212.4,439.5,212.8,440.6z"/>
</g>
</svg>
